<svg width="180" height="54" viewBox="0 0 180 54" fill="none" xmlns="http://www.w3.org/2000/svg">
<g clip-path="url(#clip0_1342_25581)">
<path d="M26.7352 35.5469L17.1017 40.6098L17.107 40.5832L11.8125 43.3516L10.793 49.293L26.7352 40.9133L35.0164 45.2682L33.9649 39.3481L26.7352 35.5469Z" fill="white"/>
<path d="M29.3767 5.59015L26.7361 0.234375L18.7637 16.3842L9.52148 17.7285L13.8205 21.905L21.9207 20.7285L29.3767 5.59015Z" fill="white"/>
<path d="M18.9413 29.8933L6.82424 18.125L0.941406 18.9795L13.8384 31.5517L12.2705 40.6821L17.5677 37.9137L18.9413 29.8933Z" fill="white"/>
<path d="M40.3782 24.1875L38.8583 25.6702L34.5273 29.892L35.8823 37.7899L37.4368 46.5449L42.6755 49.3L39.6329 31.5504L46.309 25.042L40.3782 24.1875Z" fill="white"/>
<path d="M34.3501 21.1332L48.2586 23.1376L52.5309 18.9744L46.6721 18.1226L46.6188 18.1172L34.7068 16.3843L30.5834 8.03125L27.9375 13.403L31.5524 20.7286L34.3501 21.1332Z" fill="white"/>
<path d="M43.4255 37.4423C42.4273 35.933 42.1265 34.3732 42.752 33.9606C43.3776 33.548 44.6925 34.4344 45.6908 35.9437C46.689 37.453 46.9898 39.0129 46.3642 39.4255C45.7387 39.8381 44.4237 38.9516 43.4255 37.4423Z" fill="white"/>
<path d="M40.4568 14.7431C38.069 15.0998 36.0167 14.586 35.8676 13.5958C35.7212 12.6056 37.5367 11.5168 39.9217 11.1602C42.3095 10.8035 44.3618 11.3172 44.5109 12.3074C44.6573 13.2977 42.8419 14.3864 40.4568 14.7431Z" fill="white"/>
<path d="M20.1714 8.32729C19.7801 11.3166 18.4571 13.6112 17.2167 13.4488C15.9762 13.2864 15.2894 10.731 15.6834 7.73901C16.0747 4.74968 17.3977 2.45511 18.6381 2.61749C19.8786 2.77986 20.5654 5.3353 20.1714 8.32729Z" fill="white"/>
<path d="M6.60903 28.8443C9.40137 30.6677 11.0544 33.082 10.2984 34.24C9.54246 35.3979 6.66759 34.8575 3.87258 33.0368C1.08023 31.2134 -0.572819 28.799 0.183165 27.6411C0.939148 26.4831 3.81402 27.0235 6.60903 28.8443Z" fill="white"/>
<path d="M21.235 47.3396C23.3406 44.6777 25.944 43.2243 27.046 44.0974C28.1507 44.9705 27.3361 47.8374 25.2306 50.4993C23.125 53.1613 20.5216 54.6147 19.4196 53.7416C18.3176 52.8684 19.1294 50.0016 21.235 47.3396Z" fill="white"/>
<path d="M158.494 33.4437C158.494 35.3643 160.135 36.3246 163.417 36.3246C166.733 36.3246 168.39 35.4617 168.39 33.7359C168.39 32.8174 167.827 32.0658 166.699 31.4813C165.572 30.8967 164.196 30.4096 162.572 30.0199C160.981 29.6302 159.373 29.1848 157.749 28.6838C156.157 28.1549 154.798 27.3477 153.671 26.2621C152.544 25.1487 151.98 23.7708 151.98 22.1285C151.98 15.1418 157.334 11.6484 168.042 11.6484C171.954 11.6484 174.904 12.2747 176.893 13.5273C178.916 14.7521 179.927 16.464 179.927 18.663C179.927 19.4702 179.794 20.2496 179.529 21.0012C179.297 21.7249 179.048 22.2399 178.783 22.5461L178.385 23.0471H169.584C170.313 22.4069 170.678 21.5996 170.678 20.6254C170.678 18.8161 169.269 17.9114 166.451 17.9114C162.904 17.9114 161.13 18.8578 161.13 20.7507C161.13 21.6971 161.694 22.4486 162.821 23.0053C163.948 23.562 165.307 24.0074 166.898 24.3414C168.523 24.6476 170.147 25.0373 171.772 25.5105C173.396 25.9837 174.772 26.7771 175.899 27.8905C177.026 28.9761 177.59 30.3957 177.59 32.1493C177.59 35.6844 176.33 38.3149 173.81 40.0407C171.291 41.7387 167.412 42.5876 162.174 42.5876C156.936 42.5876 153.356 41.8082 151.433 40.2494C150.008 39.0804 149.295 37.4659 149.295 35.4061C149.295 34.6267 149.394 33.7777 149.593 32.8591L149.742 32.1911H158.693L158.594 32.6921C158.528 32.9705 158.494 33.221 158.494 33.4437Z" fill="white"/>
<path fill-rule="evenodd" clip-rule="evenodd" d="M130.111 32.8559H136.028C139.509 32.8559 142.46 32.1183 144.88 30.643C147.3 29.1399 148.759 27.2331 149.256 24.9228L150.25 20.2047C150.383 19.5644 150.449 18.9521 150.449 18.3675C150.449 16.6417 149.869 15.2221 148.709 14.1087C147.118 12.6612 144.449 11.9375 140.703 11.9375H121.528L120.16 18.4508L137.57 18.451C138.896 18.451 139.808 18.7015 140.305 19.2026C140.802 19.7036 141.051 20.1629 141.051 20.5804C141.051 20.998 141.018 21.332 140.951 21.5825L140.603 23.2944C140.172 25.3264 138.598 26.3424 135.879 26.3424H122.51L119.221 41.9999H128.172L130.111 32.8559Z" fill="white"/>
<path d="M115.533 41.9999H90.5703L96.8856 11.9375H121.849L120.456 18.451H104.444L103.3 24.0877H116.528L115.135 30.6012H101.908L100.914 35.4864H116.926L115.533 41.9999Z" fill="white"/>
<path d="M79.5338 11.9375C83.8766 11.9375 86.9763 12.8561 88.8327 14.6932C90.1919 16.085 90.8715 17.8247 90.8715 19.9124C90.8715 20.6639 90.7887 21.4573 90.6229 22.2923L88.6836 31.6033C88.0205 34.7487 86.3961 37.2678 83.8103 39.1607C81.2245 41.0535 77.8762 41.9999 73.7655 41.9999H59.2949L65.6102 11.9375H79.5338ZM76.401 18.451H73.1687L69.6381 35.4864H74.3622C75.9203 35.4864 77.1303 35.1384 77.9923 34.4425C78.8873 33.7188 79.5006 32.5497 79.8322 30.9353L81.2742 24.0877C81.4068 23.4753 81.4732 22.9186 81.4732 22.4176C81.4732 19.7732 79.7824 18.451 76.401 18.451Z" fill="white"/>
</g>
<defs>
<clipPath id="clip0_1342_25581">
<rect width="179.927" height="53.764" fill="white" transform="translate(0 0.234375)"/>
</clipPath>
</defs>
</svg>
