<svg width="190" height="50" viewBox="0 0 190 50" fill="none" xmlns="http://www.w3.org/2000/svg">
<rect width="190" height="50" rx="10" fill="white"/>
<path d="M68.6667 21.7728C67.7908 19.456 65.5306 17.5913 61.4057 17.4783C55.7268 17.2806 52.0822 20.5297 51.2346 23.1007C51.1216 23.4115 51.4041 23.5527 51.7432 23.3832C53.2688 22.4791 55.3313 23.355 56.2071 24.7676C56.5179 25.2762 56.7439 25.9542 56.8004 26.7171C57.1677 25.8695 58.0153 25.2762 59.0042 25.2762C60.3321 25.2762 61.4057 26.3498 61.4057 27.6777C61.4057 29.0055 60.3321 30.0792 59.0042 30.0792C57.9588 30.0792 57.083 29.4293 56.7439 28.497C56.6027 29.4011 56.2636 30.3617 55.7268 31.2375C54.0316 34.2606 49.5394 38.7246 37.8145 39.0918C45.9231 41.8041 54.8792 40.7023 61.5187 36.0405C67.9886 31.6613 68.8362 26.5758 68.8362 26.5758C69.2317 24.8241 69.2035 23.1572 68.6667 21.7728Z" fill="url(#paint0_linear_273_21627)"/>
<path d="M50.6125 30.2485C53.4661 27.7623 53.3813 25.1913 52.5337 24.0894C52.3642 23.9199 52.1664 24.0329 52.1382 24.2024C51.7144 25.4455 47.3352 26.8299 44.1426 24.7392C44.2839 25.0217 44.3969 25.3608 44.3969 25.6998C44.3969 26.8017 43.4928 27.7058 42.3909 27.7058C41.2608 27.7058 40.385 26.8017 40.385 25.6998C40.385 24.598 41.289 23.6656 42.3909 23.6656C42.6169 23.6656 42.843 23.7221 43.0407 23.7786C42.6169 23.3266 42.2496 22.818 41.9389 22.1965C39.6504 17.7325 42.4757 12.0254 42.4757 12.0254C37.9835 14.5964 33.5477 19.2581 32.1633 24.0611C30.892 28.5534 32.6154 31.6047 35.3559 33.1586C39.2548 35.3341 46.4876 33.8084 50.6125 30.2485Z" fill="url(#paint1_linear_273_21627)"/>
<path d="M50.4137 24.5694C50.6398 24.5694 50.7528 24.4282 50.5267 24.1456C49.6509 23.072 49.4249 19.9077 52.0807 17.1672C51.9111 17.2237 51.7416 17.2519 51.5721 17.2519C50.5833 17.2519 49.7922 16.4608 49.7922 15.472C49.7922 14.4831 50.5833 13.6921 51.5721 13.6921C52.561 13.6921 53.352 14.4831 53.352 15.472C53.352 15.7263 53.2955 15.9523 53.2108 16.1783C53.7193 15.7828 54.2844 15.4155 54.906 15.0765C54.906 15.0765 60.3023 11.9686 65.8398 13.6073C62.9863 10.8385 56.3469 7.95671 50.6115 10.33C46.2323 12.1381 44.6784 16.4326 45.413 19.7664C46.0628 22.6765 48.4078 24.4564 50.4137 24.5694Z" fill="url(#paint2_linear_273_21627)"/>
<path d="M88.4733 20.981V18.0145C88.4733 17.0539 85.874 17.0821 85.874 17.0821V26.8576H88.4733V22.3089H90.5358V20.981H88.4733Z" fill="#0055A2"/>
<path d="M83.1337 27.168C80.6757 27.168 78.1895 28.4111 78.1895 30.6148C78.1895 32.7903 80.704 34.0617 83.1337 34.0617C85.5635 34.0617 88.1062 32.8186 88.1062 30.6148C88.1062 28.4394 85.5917 27.168 83.1337 27.168ZM83.1337 32.7903C81.9753 32.7903 80.7887 31.9992 80.7887 30.6148C80.7887 29.2304 81.9753 28.4394 83.1337 28.4394C84.2921 28.4394 85.4787 29.2304 85.4787 30.6148C85.4787 31.9992 84.2921 32.7903 83.1337 32.7903Z" fill="#0055A2"/>
<path d="M79.4047 23.7786C81.1564 24.7392 83.1059 26.5756 83.1059 26.5756L84.349 24.5697C83.7557 23.8069 81.1847 22.8745 80.1958 22.5637C80.4501 22.0552 80.6761 21.5184 80.8456 20.8968H84.236V19.5689H80.9586V18.241C80.9586 17.2804 78.3594 17.3087 78.3594 17.3087H78.1899V19.5689H74.4322C74.4322 19.5689 74.404 20.8403 74.856 20.8968H78.1616C77.9638 22.3942 76.6924 24.6544 74.2627 26.2931L74.9408 26.8017C74.969 26.8017 77.5683 26.0106 79.4047 23.7786Z" fill="#0055A2"/>
<path d="M98.3333 23.7781C100.509 23.7781 102.713 22.648 102.713 20.6703C102.713 18.6926 100.509 17.5625 98.3333 17.5625C96.1578 17.5625 93.9541 18.6926 93.9541 20.6703C93.9541 22.648 96.1578 23.7781 98.3333 23.7781ZM98.3333 18.9469C99.1809 18.9469 100.057 19.5685 100.057 20.6703C100.057 21.7722 99.1809 22.3938 98.3333 22.3938C97.4857 22.3938 96.5816 21.7722 96.5816 20.6703C96.6099 19.5685 97.4857 18.9469 98.3333 18.9469Z" fill="#0055A2"/>
<path d="M97.0608 28.1852H99.6601V25.6707H104.039V24.3428H92.5403C92.5403 24.3428 92.5121 25.6707 93.0206 25.6707H97.089V28.1852H97.0608Z" fill="#0055A2"/>
<path d="M98.7838 28.9766H96.1846V31.8301C96.1846 32.7625 96.9191 33.497 97.8515 33.497H107.401V32.1691H98.7556V28.9766H98.7838Z" fill="#0055A2"/>
<path d="M101.695 28.0726H104.802V29.7113H107.402V18.2123C107.402 17.2517 104.802 17.3082 104.802 17.3082V26.7447H101.243C101.243 26.7165 101.214 28.0726 101.695 28.0726Z" fill="#0055A2"/>
<path d="M148.003 18.5225C148.003 18.5225 148.596 24.0884 143.369 29.0609L144.047 29.5695C145.997 28.5523 147.692 26.9419 148.935 25.1055C150.8 26.5181 152.438 29.3152 152.438 29.3152L153.992 27.507C153.201 25.8966 150.489 24.2296 149.698 23.7776C150.404 22.3649 150.856 20.8958 150.941 19.4549C150.997 18.4943 148.342 18.5225 148.342 18.5225" fill="#0055A2"/>
<path d="M155.659 17.2794V33.4966H158.258V18.2117C158.258 17.2511 155.659 17.2794 155.659 17.2794Z" fill="#0055A2"/>
<path d="M124.92 26.7727H110.285C109.466 26.7727 109.268 25.9251 109.353 25.2471H124.92V26.7727Z" fill="#0055A2"/>
<path d="M111.077 28.0156H121.502C122.407 28.0156 123.169 28.7502 123.169 29.6825V33.4402H120.514V29.5413H111.077V28.0156Z" fill="#0055A2"/>
<path d="M122.49 17.3643V18.8899L114.156 18.9182V19.9918L122.293 19.9635V21.4609L114.156 21.4892V22.6476L122.688 22.6193C122.773 23.2409 122.745 24.145 121.869 24.145H111.5V17.3643H122.49Z" fill="#0055A2"/>
<path d="M139.02 17.3366V23.3262V33.5538H141.421V18.2407C141.421 17.2801 139.02 17.3366 139.02 17.3366Z" fill="#0055A2"/>
<path d="M135.49 17.3366V20.8964H133.964V22.3373H135.49V25.1626H133.964V26.6035H135.49V33.582H137.891V23.3262V21.8853V18.2407C137.891 17.2801 135.49 17.3366 135.49 17.3366Z" fill="#0055A2"/>
<path d="M129.725 28.1287V24.7949H133.285V18.6357H127.013V18.664C127.013 18.8335 126.928 20.0484 127.549 20.1614H130.544V23.2975H127.013V29.6544H133.341C134.189 29.6544 134.302 28.7786 134.189 28.1287H129.725Z" fill="#0055A2"/>
<defs>
<linearGradient id="paint0_linear_273_21627" x1="45.7292" y1="44.7658" x2="64.3694" y2="17.1305" gradientUnits="userSpaceOnUse">
<stop stop-color="#6CBB5A"/>
<stop offset="1" stop-color="#009A53"/>
</linearGradient>
<linearGradient id="paint1_linear_273_21627" x1="32.87" y1="17.5996" x2="50.0312" y2="31.9995" gradientUnits="userSpaceOnUse">
<stop stop-color="#4CACE2"/>
<stop offset="0.1889" stop-color="#3F9FD9"/>
<stop offset="0.5698" stop-color="#157DC3"/>
<stop offset="1" stop-color="#0056A7"/>
</linearGradient>
<linearGradient id="paint2_linear_273_21627" x1="61.3157" y1="8.52352" x2="46.1531" y2="23.1659" gradientUnits="userSpaceOnUse">
<stop stop-color="#F8B500"/>
<stop offset="1" stop-color="#EA5504"/>
</linearGradient>
</defs>
</svg>
