<svg width="190" height="50" viewBox="0 0 190 50" fill="none" xmlns="http://www.w3.org/2000/svg">
<rect width="190" height="50" rx="10" fill="white"/>
<path d="M95.551 23.6142C94.053 23.1934 93.0149 22.3049 92.4039 21.1827C91.8192 22.4786 90.7548 23.5073 89.2108 23.9883L88.291 22.3851C90.4329 21.7438 91.3658 20.1406 91.3921 18.5174H88.7706V16.9142H91.3921V15.3711H93.3172V16.9142H95.9715V18.5174H93.3172C93.3434 19.9669 94.2764 21.4365 96.4183 22.0244L95.5444 23.6142H95.551ZM99.1055 27.0611C99.1055 28.7778 97.3709 29.7732 94.5721 29.7732C91.7732 29.7732 90.0255 28.7778 90.0255 27.0611C90.0255 25.3443 91.76 24.3356 94.5721 24.3356C97.3841 24.3356 99.1055 25.351 99.1055 27.0611ZM97.2001 27.0611C97.2001 26.2795 96.2934 25.9255 94.5786 25.9255C92.8638 25.9255 91.944 26.2862 91.944 27.0611C91.944 27.836 92.8507 28.1967 94.5786 28.1967C96.3066 28.1967 97.2001 27.836 97.2001 27.0611ZM100.741 18.7779V20.4613H98.9609V24.0618H97.0359V15.4112H98.9609V18.7779H100.741Z" fill="#727171"/>
<path d="M113.033 27.8894V29.526H103.079V25.2508H104.945V23.3336C103.762 23.3937 102.646 23.4138 101.64 23.4138L101.391 21.7772C103.841 21.7638 107.1 21.7304 109.932 21.343L110.063 22.8059C109.012 23.0063 107.934 23.1332 106.857 23.2134V25.9254H105.004V27.8894H113.033ZM102.363 18.4706C102.363 16.9409 103.749 15.8988 105.714 15.8988C107.678 15.8988 109.051 16.9409 109.051 18.4706C109.051 20.0003 107.665 21.029 105.714 21.029C103.762 21.029 102.363 20.0003 102.363 18.4706ZM104.183 18.4706C104.183 19.172 104.807 19.5327 105.714 19.5327C106.62 19.5327 107.231 19.172 107.231 18.4706C107.231 17.7692 106.607 17.3951 105.714 17.3951C104.82 17.3951 104.183 17.7692 104.183 18.4706ZM110.812 23.7544V15.4111H112.737V26.2928H110.812V25.1572H108.289V23.7544H110.812Z" fill="#727171"/>
<path d="M121.526 23.8346C120.068 23.3202 119.076 22.2915 118.498 20.9956C117.9 22.4318 116.835 23.554 115.305 24.1018L114.286 22.4986C116.546 21.717 117.492 19.7999 117.492 17.836V16.2929H119.444V17.8493C119.444 19.673 120.35 21.4833 122.519 22.2314L121.526 23.8346ZM118.333 27.8894H125.515V29.526H116.408V24.9234H118.333V27.8827V27.8894ZM126.829 19.5728V21.2762H125.048V25.9254H123.123V15.4111H125.048V19.5728H126.829Z" fill="#727171"/>
<path d="M138.747 15.4111V23.1332H136.822V20.2474H134.693C134.332 21.8039 132.959 22.866 131.224 22.866C129.214 22.866 127.696 21.4298 127.696 19.4392C127.696 17.4485 129.214 16.0057 131.224 16.0057C132.926 16.0057 134.299 17.0477 134.68 18.5775H136.822V15.4111H138.747ZM132.933 19.4325C132.933 18.357 132.217 17.7157 131.231 17.7157C130.246 17.7157 129.542 18.357 129.542 19.4325C129.542 20.508 130.259 21.1492 131.231 21.1492C132.203 21.1492 132.933 20.508 132.933 19.4325ZM136.842 23.7544H138.747V29.5994H129.858V23.7544H131.763V25.1305H136.835V23.7544H136.842ZM136.842 26.687H131.77V27.9829H136.842V26.687Z" fill="#727171"/>
<path d="M147.961 24.0216C146.476 23.5206 145.451 22.4919 144.84 21.2161C144.242 22.6188 143.165 23.7277 141.608 24.2755L140.629 22.6656C142.856 21.9174 143.835 20.0337 143.835 18.2368V18.0631H141.141V16.4399H148.441V18.0631H145.786V18.2368C145.786 19.9201 146.765 21.6836 148.934 22.4452L147.955 24.0216H147.961ZM152.054 27.8894V29.526H142.79V24.8633H144.716V27.8894H152.061H152.054ZM151.719 25.7985H149.781V15.4111H151.719V25.7985Z" fill="#727171"/>
<path d="M165.74 23.0996V24.6895H153.618V23.0996H165.74ZM165.109 18.0028H154.196V16.4597H158.71V15.2773H160.635V16.4597H165.109V18.0028ZM164.308 27.5619C164.308 29.0315 162.606 29.793 159.643 29.793C156.68 29.793 154.998 29.0315 154.998 27.5619C154.998 26.0923 156.7 25.3307 159.643 25.3307C162.586 25.3307 164.308 26.0923 164.308 27.5619ZM159.676 18.3769C162.56 18.3769 164.176 19.0783 164.176 20.4543C164.176 21.8304 162.56 22.4984 159.676 22.4984C156.792 22.4984 155.188 21.797 155.188 20.4543C155.188 19.1117 156.805 18.3769 159.676 18.3769ZM162.343 27.5619C162.343 27.0341 161.515 26.8003 159.65 26.8003C157.784 26.8003 156.956 27.0341 156.956 27.5619C156.956 28.0896 157.784 28.3234 159.65 28.3234C161.515 28.3234 162.343 28.0896 162.343 27.5619ZM159.676 19.7596C158.014 19.7596 157.245 19.96 157.245 20.4477C157.245 20.9019 158.02 21.1157 159.676 21.1157C161.332 21.1157 162.107 20.8952 162.107 20.4477C162.107 19.9667 161.351 19.7596 159.676 19.7596Z" fill="#727171"/>
<path d="M178.237 27.8894V29.526H168.283V25.2508H170.149V23.3336C168.967 23.3937 167.85 23.4138 166.844 23.4138L166.595 21.7772C169.045 21.7638 172.304 21.7304 175.136 21.343L175.267 22.8059C174.216 23.0063 173.139 23.1332 172.061 23.2134V25.9254H170.208V27.8894H178.237ZM167.567 18.4706C167.567 16.9409 168.953 15.8988 170.918 15.8988C172.882 15.8988 174.256 16.9409 174.256 18.4706C174.256 20.0003 172.869 21.029 170.918 21.029C168.967 21.029 167.567 20.0003 167.567 18.4706ZM169.394 18.4706C169.394 19.172 170.018 19.5327 170.924 19.5327C171.831 19.5327 172.442 19.172 172.442 18.4706C172.442 17.7692 171.818 17.3951 170.924 17.3951C170.031 17.3951 169.394 17.7692 169.394 18.4706ZM176.023 23.7544V15.4111H177.948V26.2928H176.023V25.1572H173.5V23.7544H176.023Z" fill="#727171"/>
<path d="M89.0508 34.5361C89.0508 33.2669 89.7341 32.5254 90.5488 32.5254C90.9561 32.5254 91.2846 32.7592 91.4949 33.0197L91.1532 33.5074C90.9955 33.3203 90.805 33.1867 90.5619 33.1867C90.0757 33.1867 89.7078 33.6877 89.7078 34.516C89.7078 35.3443 90.0363 35.8587 90.5488 35.8587C90.8247 35.8587 91.0415 35.7051 91.2124 35.478L91.554 35.9589C91.2912 36.3263 90.943 36.5267 90.5291 36.5267C89.7144 36.5267 89.0574 35.832 89.0574 34.5427L89.0508 34.5361Z" fill="#B5B5B6"/>
<path d="M92.2402 32.2988H92.8775V33.3476L92.8513 33.8953C93.0484 33.6749 93.2849 33.4678 93.62 33.4678C94.1456 33.4678 94.369 33.902 94.369 34.6368V36.4538H93.7317V34.7303C93.7317 34.2828 93.6265 34.1225 93.39 34.1225C93.1929 34.1225 93.0615 34.236 92.8841 34.4498V36.4538H92.2468V32.2988H92.2402Z" fill="#B5B5B6"/>
<path d="M95.127 35.6585C95.127 35.0373 95.5474 34.7033 96.5264 34.583C96.5198 34.2958 96.4147 34.0753 96.1125 34.0753C95.8891 34.0753 95.6657 34.1956 95.4423 34.3492L95.2124 33.8415C95.5015 33.6278 95.8497 33.4541 96.2307 33.4541C96.8483 33.4541 97.1637 33.895 97.1637 34.7367V36.4401H96.6447L96.5987 36.1261H96.5855C96.3753 36.3465 96.1256 36.5135 95.8497 36.5135C95.416 36.5135 95.127 36.1461 95.127 35.6518V35.6585ZM96.5264 35.6385V35.0506C95.9351 35.1441 95.7314 35.3379 95.7314 35.5984C95.7314 35.8255 95.8694 35.9257 96.0533 35.9257C96.2373 35.9257 96.3687 35.8188 96.5198 35.6385H96.5264Z" fill="#B5B5B6"/>
<path d="M98.041 33.5344H98.5601L98.606 33.9219H98.6258C98.836 33.6747 99.0857 33.4609 99.4207 33.4609C99.9463 33.4609 100.176 33.8951 100.176 34.6299V36.4469H99.539V34.7235C99.539 34.2759 99.4339 34.1156 99.1974 34.1156C99.0003 34.1156 98.8688 34.2291 98.6915 34.4429V36.4469H98.0541V33.5344H98.041Z" fill="#B5B5B6"/>
<path d="M100.891 36.9613C100.891 36.7141 101.015 36.507 101.239 36.3601V36.3333C101.114 36.2331 101.015 36.0795 101.015 35.8457C101.015 35.6253 101.14 35.4249 101.285 35.2979V35.2779C101.121 35.1309 100.963 34.8571 100.963 34.5164C100.963 33.8283 101.429 33.4609 101.948 33.4609C102.08 33.4609 102.211 33.4943 102.316 33.5344H103.197V34.0955H102.776C102.842 34.1957 102.888 34.3561 102.888 34.5364C102.888 35.1911 102.467 35.5251 101.948 35.5251C101.85 35.5251 101.738 35.4983 101.633 35.4583C101.561 35.5251 101.528 35.5919 101.528 35.7054C101.528 35.8591 101.626 35.9459 101.909 35.9459H102.323C102.908 35.9459 103.23 36.1663 103.23 36.674C103.23 37.2619 102.717 37.7094 101.909 37.7094C101.337 37.7094 100.891 37.4756 100.891 36.9613ZM102.625 36.8076C102.625 36.6005 102.481 36.5471 102.218 36.5471H101.922C101.771 36.5471 101.672 36.5337 101.58 36.507C101.469 36.6139 101.423 36.7275 101.423 36.8477C101.423 37.0949 101.646 37.2351 102.008 37.2351C102.369 37.2351 102.625 37.0414 102.625 36.8143V36.8076ZM102.329 34.5164C102.329 34.1757 102.165 33.982 101.948 33.982C101.732 33.982 101.567 34.1757 101.567 34.5164C101.567 34.8571 101.738 35.0508 101.948 35.0508C102.159 35.0508 102.329 34.8571 102.329 34.5164Z" fill="#B5B5B6"/>
<path d="M103.61 33.5342H104.248L104.51 34.9771C104.556 35.2576 104.589 35.5382 104.635 35.8254H104.655C104.701 35.5382 104.747 35.2509 104.806 34.9771L105.095 33.5342H105.667L105.969 34.9771C106.028 35.2576 106.068 35.5382 106.12 35.8254H106.14C106.186 35.5382 106.212 35.2576 106.265 34.9771L106.527 33.5342H107.119L106.521 36.4467H105.765L105.509 35.1775C105.457 34.9036 105.417 34.6364 105.371 34.3291H105.351C105.305 34.6364 105.266 34.9103 105.22 35.1775L104.97 36.4467H104.241L103.61 33.5342Z" fill="#B5B5B6"/>
<path d="M107.632 34.9973C107.632 34.0221 108.19 33.4609 108.801 33.4609C109.412 33.4609 109.971 34.0221 109.971 34.9973C109.971 35.9726 109.412 36.5204 108.801 36.5204C108.19 36.5204 107.632 35.9593 107.632 34.9973ZM109.32 34.9973C109.32 34.4496 109.13 34.0889 108.801 34.0889C108.473 34.0889 108.282 34.4496 108.282 34.9973C108.282 35.5451 108.473 35.8991 108.801 35.8991C109.13 35.8991 109.32 35.5451 109.32 34.9973Z" fill="#B5B5B6"/>
<path d="M110.728 33.5344H111.253L111.299 33.9219H111.319C111.529 33.6747 111.779 33.4609 112.114 33.4609C112.639 33.4609 112.863 33.8951 112.863 34.6299V36.4469H112.226V34.7235C112.226 34.2759 112.12 34.1156 111.884 34.1156C111.687 34.1156 111.555 34.2291 111.378 34.4429V36.4469H110.741V33.5344H110.728Z" fill="#B5B5B6"/>
<path d="M114.995 32.5986H115.639V36.4463H114.995V32.5986Z" fill="#B5B5B6"/>
<path d="M116.601 33.5344H117.12L117.166 33.9219H117.185C117.396 33.6747 117.645 33.4609 117.98 33.4609C118.506 33.4609 118.729 33.8951 118.729 34.6299V36.4469H118.092V34.7235C118.092 34.2759 117.987 34.1156 117.75 34.1156C117.553 34.1156 117.422 34.2291 117.244 34.4429V36.4469H116.607V33.5344H116.601Z" fill="#B5B5B6"/>
<path d="M119.471 34.9975C119.471 34.0423 119.971 33.4611 120.496 33.4611C120.772 33.4611 120.943 33.5881 121.114 33.7818L121.088 33.3209V32.2988H121.725V36.4538H121.206L121.153 36.1532H121.14C120.963 36.3603 120.72 36.5273 120.464 36.5273C119.859 36.5273 119.465 35.9528 119.465 35.0042L119.471 34.9975ZM121.088 35.5921V34.3095C120.943 34.1492 120.785 34.0891 120.634 34.0891C120.358 34.0891 120.128 34.403 120.128 34.9842C120.128 35.5653 120.312 35.8927 120.634 35.8927C120.805 35.8927 120.95 35.8125 121.088 35.5921Z" fill="#B5B5B6"/>
<path d="M122.611 35.3578V33.5342H123.248V35.2576C123.248 35.7119 123.353 35.8655 123.59 35.8655C123.787 35.8655 123.919 35.7586 124.083 35.4981V33.5342H124.72V36.4467H124.201L124.155 36.0325H124.135C123.925 36.3264 123.689 36.5201 123.353 36.5201C122.834 36.5201 122.604 36.0793 122.604 35.3511L122.611 35.3578Z" fill="#B5B5B6"/>
<path d="M125.395 36.1062L125.684 35.6253C125.901 35.8257 126.111 35.9459 126.335 35.9459C126.578 35.9459 126.689 35.819 126.689 35.6386C126.689 35.4182 126.44 35.318 126.177 35.2044C125.868 35.0641 125.513 34.837 125.513 34.3561C125.513 33.8283 125.868 33.4609 126.42 33.4609C126.775 33.4609 127.044 33.6413 127.248 33.8217L126.959 34.2826C126.788 34.1356 126.617 34.0354 126.433 34.0354C126.216 34.0354 126.111 34.149 126.111 34.316C126.111 34.5297 126.348 34.6099 126.604 34.7235C126.926 34.8704 127.281 35.0641 127.281 35.6052C127.281 36.1129 126.946 36.5271 126.308 36.5271C125.98 36.5271 125.618 36.3534 125.382 36.1129L125.395 36.1062Z" fill="#B5B5B6"/>
<path d="M128.002 35.4318V34.1425H127.66V33.5747L128.035 33.5413L128.107 32.7598H128.639V33.5413H129.237V34.1425H128.639V35.4318C128.639 35.7658 128.751 35.9194 128.968 35.9194C129.046 35.9194 129.145 35.886 129.204 35.8593L129.309 36.4137C129.178 36.4672 129.007 36.5206 128.797 36.5206C128.219 36.5206 127.995 36.0797 127.995 35.4251L128.002 35.4318Z" fill="#B5B5B6"/>
<path d="M129.953 33.5344H130.472L130.518 34.0488H130.538C130.715 33.668 130.978 33.4609 131.228 33.4609C131.366 33.4609 131.438 33.4877 131.517 33.5211L131.405 34.1824C131.32 34.149 131.254 34.1356 131.155 34.1356C130.965 34.1356 130.735 34.2893 130.597 34.7101V36.4469H129.96V33.5344H129.953Z" fill="#B5B5B6"/>
<path d="M132.006 37.5622L132.124 36.9744C132.17 36.9877 132.236 37.0078 132.295 37.0078C132.544 37.0078 132.682 36.8207 132.755 36.5669L132.801 36.3932L131.854 33.5342H132.498L132.886 34.8835C132.958 35.1441 133.024 35.4246 133.09 35.7052H133.109C133.169 35.438 133.228 35.1574 133.287 34.8835L133.622 33.5342H134.233L133.366 36.5335C133.155 37.2215 132.893 37.6157 132.347 37.6157C132.203 37.6157 132.111 37.5956 132.012 37.5555L132.006 37.5622Z" fill="#B5B5B6"/>
<path d="M136.107 32.5986H137.165C137.881 32.5986 138.427 32.8926 138.427 33.8077C138.427 34.7229 137.875 35.0836 137.185 35.0836H136.751V36.453H136.107V32.6053V32.5986ZM137.139 34.469C137.586 34.469 137.796 34.2486 137.796 33.801C137.796 33.3535 137.559 33.2065 137.119 33.2065H136.751V34.469H137.139Z" fill="#B5B5B6"/>
<path d="M139.182 33.5344H139.707L139.753 34.0488H139.773C139.95 33.668 140.213 33.4609 140.463 33.4609C140.594 33.4609 140.673 33.4877 140.752 33.5211L140.64 34.1824C140.555 34.149 140.489 34.1356 140.391 34.1356C140.2 34.1356 139.97 34.2893 139.832 34.7101V36.4469H139.195V33.5344H139.182Z" fill="#B5B5B6"/>
<path d="M141.092 34.9973C141.092 34.0221 141.65 33.4609 142.261 33.4609C142.872 33.4609 143.431 34.0221 143.431 34.9973C143.431 35.9726 142.872 36.5204 142.261 36.5204C141.65 36.5204 141.092 35.9593 141.092 34.9973ZM142.78 34.9973C142.78 34.4496 142.59 34.0889 142.261 34.0889C141.933 34.0889 141.742 34.4496 141.742 34.9973C141.742 35.5451 141.933 35.8991 142.261 35.8991C142.59 35.8991 142.78 35.5451 142.78 34.9973Z" fill="#B5B5B6"/>
<path d="M144.194 33.5344H144.72L144.766 33.9219H144.786C144.989 33.668 145.219 33.4609 145.535 33.4609C145.883 33.4609 146.087 33.648 146.205 33.9686C146.428 33.6881 146.665 33.4609 146.98 33.4609C147.499 33.4609 147.736 33.8951 147.736 34.6299V36.4469H147.098V34.7235C147.098 34.2759 146.987 34.1156 146.757 34.1156C146.619 34.1156 146.461 34.2225 146.29 34.4429V36.4469H145.653V34.7235C145.653 34.2759 145.541 34.1156 145.311 34.1156C145.173 34.1156 145.016 34.2225 144.845 34.4429V36.4469H144.207V33.5344H144.194Z" fill="#B5B5B6"/>
<path d="M148.454 34.9973C148.454 34.0221 149.013 33.4609 149.624 33.4609C150.235 33.4609 150.793 34.0221 150.793 34.9973C150.793 35.9726 150.235 36.5204 149.624 36.5204C149.013 36.5204 148.454 35.9593 148.454 34.9973ZM150.143 34.9973C150.143 34.4496 149.952 34.0889 149.624 34.0889C149.295 34.0889 149.105 34.4496 149.105 34.9973C149.105 35.5451 149.295 35.8991 149.624 35.8991C149.952 35.8991 150.143 35.5451 150.143 34.9973Z" fill="#B5B5B6"/>
<path d="M151.523 35.4318V34.1425H151.182V33.5747L151.556 33.5413L151.628 32.7598H152.161V33.5413H152.758V34.1425H152.161V35.4318C152.161 35.7658 152.272 35.9194 152.489 35.9194C152.568 35.9194 152.666 35.886 152.726 35.8593L152.831 36.4137C152.699 36.4672 152.529 36.5206 152.318 36.5206C151.74 36.5206 151.517 36.0797 151.517 35.4251L151.523 35.4318Z" fill="#B5B5B6"/>
<path d="M153.416 32.6456C153.416 32.3984 153.574 32.2314 153.797 32.2314C154.02 32.2314 154.178 32.3984 154.178 32.6456C154.178 32.8928 154.02 33.0598 153.797 33.0598C153.574 33.0598 153.416 32.8794 153.416 32.6456ZM153.482 33.534H154.119V36.4465H153.482V33.534Z" fill="#B5B5B6"/>
<path d="M154.87 34.9973C154.87 34.0221 155.429 33.4609 156.04 33.4609C156.651 33.4609 157.209 34.0221 157.209 34.9973C157.209 35.9726 156.651 36.5204 156.04 36.5204C155.429 36.5204 154.87 35.9593 154.87 34.9973ZM156.559 34.9973C156.559 34.4496 156.375 34.0889 156.04 34.0889C155.705 34.0889 155.521 34.4496 155.521 34.9973C155.521 35.5451 155.711 35.8991 156.04 35.8991C156.368 35.8991 156.559 35.5451 156.559 34.9973Z" fill="#B5B5B6"/>
<path d="M157.973 33.5344H158.492L158.538 33.9219H158.557C158.768 33.6747 159.017 33.4609 159.352 33.4609C159.878 33.4609 160.108 33.8951 160.108 34.6299V36.4469H159.471V34.7235C159.471 34.2759 159.366 34.1156 159.129 34.1156C158.932 34.1156 158.8 34.2291 158.623 34.4429V36.4469H157.986V33.5344H157.973Z" fill="#B5B5B6"/>
<path d="M163.747 35.4577H162.702L162.479 36.4463H161.828L162.86 32.5986H163.615L164.653 36.4463H163.977L163.753 35.4577H163.747ZM163.609 34.8632L163.51 34.4423C163.412 34.0415 163.32 33.6006 163.228 33.1798H163.208C163.122 33.6006 163.03 34.0415 162.932 34.4423L162.833 34.8632H163.602H163.609Z" fill="#B5B5B6"/>
<path d="M165.039 36.9613C165.039 36.7141 165.164 36.507 165.387 36.3601V36.3333C165.262 36.2331 165.164 36.0795 165.164 35.8457C165.164 35.6253 165.289 35.4249 165.433 35.2979V35.2779C165.269 35.1309 165.111 34.8571 165.111 34.5164C165.111 33.8283 165.578 33.4609 166.097 33.4609C166.235 33.4609 166.36 33.4943 166.465 33.5344H167.345V34.0955H166.925C166.99 34.1957 167.036 34.3561 167.036 34.5364C167.036 35.1911 166.616 35.5251 166.097 35.5251C165.998 35.5251 165.887 35.4983 165.781 35.4583C165.709 35.5251 165.676 35.5919 165.676 35.7054C165.676 35.8591 165.775 35.9459 166.057 35.9459H166.471C167.056 35.9459 167.378 36.1663 167.378 36.674C167.378 37.2619 166.866 37.7094 166.057 37.7094C165.486 37.7094 165.039 37.4756 165.039 36.9613ZM166.767 36.8076C166.767 36.6005 166.622 36.5471 166.36 36.5471H166.064C165.913 36.5471 165.814 36.5337 165.722 36.507C165.611 36.6139 165.565 36.7275 165.565 36.8477C165.565 37.0949 165.788 37.2351 166.149 37.2351C166.511 37.2351 166.767 37.0414 166.767 36.8143V36.8076ZM166.471 34.5164C166.471 34.1757 166.307 33.982 166.09 33.982C165.873 33.982 165.709 34.1757 165.709 34.5164C165.709 34.8571 165.88 35.0508 166.09 35.0508C166.301 35.0508 166.471 34.8571 166.471 34.5164Z" fill="#B5B5B6"/>
<path d="M167.78 34.9973C167.78 34.0488 168.332 33.4609 168.917 33.4609C169.587 33.4609 169.935 34.0488 169.935 34.8571C169.935 34.9973 169.922 35.1376 169.902 35.2044H168.404C168.457 35.6854 168.72 35.9325 169.081 35.9325C169.278 35.9325 169.456 35.8591 169.626 35.7321L169.843 36.1997C169.607 36.4001 169.298 36.5204 168.989 36.5204C168.312 36.5204 167.78 35.9526 167.78 34.9973ZM169.39 34.6967C169.39 34.3026 169.245 34.0488 168.93 34.0488C168.674 34.0488 168.45 34.2692 168.398 34.6967H169.39Z" fill="#B5B5B6"/>
<path d="M170.681 33.5344H171.2L171.246 33.9219H171.265C171.476 33.6747 171.725 33.4609 172.06 33.4609C172.586 33.4609 172.809 33.8951 172.809 34.6299V36.4469H172.172V34.7235C172.172 34.2759 172.067 34.1156 171.83 34.1156C171.633 34.1156 171.502 34.2291 171.325 34.4429V36.4469H170.687V33.5344H170.681Z" fill="#B5B5B6"/>
<path d="M173.545 34.9973C173.545 34.0221 174.129 33.4609 174.786 33.4609C175.089 33.4609 175.319 33.6012 175.496 33.7816L175.194 34.2759C175.069 34.149 174.957 34.0822 174.819 34.0822C174.451 34.0822 174.195 34.4429 174.195 34.9907C174.195 35.5384 174.445 35.8925 174.8 35.8925C174.97 35.8925 175.141 35.7923 175.273 35.6587L175.522 36.1663C175.292 36.4135 174.997 36.5204 174.727 36.5204C174.051 36.5204 173.538 35.9593 173.538 34.9973H173.545Z" fill="#B5B5B6"/>
<path d="M176.097 37.5622L176.216 36.9744C176.262 36.9877 176.327 37.0078 176.386 37.0078C176.636 37.0078 176.774 36.8207 176.846 36.5669L176.892 36.3932L175.946 33.5342H176.59L176.978 34.8835C177.05 35.1441 177.116 35.4246 177.181 35.7052H177.201C177.26 35.438 177.319 35.1574 177.379 34.8835L177.714 33.5342H178.325L177.457 36.5335C177.247 37.2215 176.984 37.6157 176.439 37.6157C176.295 37.6157 176.203 37.5956 176.104 37.5555L176.097 37.5622Z" fill="#B5B5B6"/>
<path d="M63.1934 14.4893H75.0459C79.6253 14.4893 83.344 18.2701 83.344 22.9261V25.9521C83.344 30.6014 79.6253 34.389 75.0459 34.389H70.9921V28.3569H75.0459C76.3468 28.3569 77.4111 27.2814 77.4111 25.9521V22.9261C77.4111 21.6035 76.3533 20.5213 75.0459 20.5213H63.1934V14.4893Z" fill="#3E3A39"/>
<path d="M45.5823 20.9221V27.4618C45.5823 28.7844 44.5245 29.8666 43.2171 29.8666H36.2396C34.9321 29.8666 33.8743 28.7844 33.8743 27.4618V20.9221H27.9415V27.4618C27.9415 27.7624 27.9612 28.0563 27.9875 28.3503H19.9719C18.671 28.3503 17.6067 27.2681 17.6067 25.9455V22.9194C17.6067 21.5968 18.6645 20.5146 19.9719 20.5146H24.0257V14.4893H19.9719C15.3925 14.4893 11.6738 18.2701 11.6738 22.9261V25.9521C11.6738 30.6081 15.3925 34.389 19.9719 34.389H31.5091C32.856 35.3442 34.4853 35.9053 36.2396 35.9053H43.2171C47.7899 35.9053 51.5152 32.1244 51.5152 27.4685V20.9288H45.5823V20.9221Z" fill="#3E3A39"/>
<path d="M42.6679 25.1707C42.6679 26.8207 41.3539 28.1567 39.7376 28.1567C38.1148 28.1567 36.8008 26.8207 36.8008 25.1707V13.1735C36.8008 11.5235 38.1148 10.1875 39.7376 10.1875C41.3605 10.1875 42.6679 11.5235 42.6679 13.1735V25.1707Z" fill="#009EA8"/>
<path d="M60.2509 25.1707C60.2509 26.8207 58.9369 28.1567 57.3206 28.1567C55.6978 28.1567 54.3838 26.8207 54.3838 25.1707V13.1735C54.3838 11.5235 55.6978 10.1875 57.3206 10.1875C58.9435 10.1875 60.2509 11.5235 60.2509 13.1735V25.1707Z" fill="#E7B000"/>
<path d="M69.0458 36.8338C69.0458 38.4838 67.7318 39.8131 66.109 39.8131C64.4862 39.8131 63.1787 38.4771 63.1787 36.8338V24.8365C63.1787 23.1866 64.4927 21.8506 66.109 21.8506C67.7318 21.8506 69.0458 23.1866 69.0458 24.8365V36.8338Z" fill="#B21123"/>
</svg>
