<svg width="190" height="50" viewBox="0 0 190 50" fill="none" xmlns="http://www.w3.org/2000/svg">
<rect width="190" height="50" rx="10" fill="white"/>
<path d="M46.3912 37.7165C39.4336 37.7165 33.8278 32.0825 33.8278 25.1607C33.8278 20.5328 36.4121 16.1463 40.5071 14.0537C38.1216 11.7599 36.7699 9.14407 38.4397 9.02334H47.3851C48.9357 9.02334 48.6176 10.2306 49.2935 10.5526H52.7126L52.3946 11.1562H53.2295C51.9175 12.0818 51.3211 13.6513 51.6789 13.772C54.9788 14.8988 57.8016 18.5609 58.6763 22.384H65.435C64.0435 13.6915 56.092 6.72949 46.5105 6.72949C35.8952 6.72949 27.0293 15.1805 27.0293 25.1607C27.0293 35.141 35.6169 43.2701 46.2322 43.2701C56.3306 43.2701 64.2423 35.3422 65.3555 26.69H58.6763C58.716 31.0765 53.2295 37.7165 46.3912 37.7165Z" fill="#004887"/>
<path d="M40.7351 13.7318H46.0626C46.2216 13.7318 46.3806 13.611 46.3806 13.4098C46.3806 13.2489 46.2613 13.0879 46.0626 13.0879H40.7351C40.576 13.0879 40.417 13.2086 40.417 13.4098C40.4567 13.611 40.576 13.7318 40.7351 13.7318Z" fill="#004887"/>
<path d="M39.6101 12.5267H46.1303C46.2893 12.5267 46.4483 12.406 46.4483 12.2048C46.4483 12.0438 46.3291 11.8828 46.1303 11.8828H39.6101C39.451 11.8828 39.292 12.0035 39.292 12.2048C39.292 12.406 39.451 12.5267 39.6101 12.5267Z" fill="#004887"/>
<path d="M38.9558 10.6309C38.7967 10.6309 38.6377 10.7918 38.6377 10.9528C38.6377 11.1138 38.757 11.2747 38.9558 11.2747H46.1121C46.2711 11.2747 46.4302 11.154 46.4302 10.9528C46.4302 10.7918 46.3109 10.6309 46.1121 10.6309H38.9558Z" fill="#004887"/>
<path d="M36.4318 19.6072L43.3099 14.8988H46.2122C46.3712 14.8988 46.5302 14.778 46.5302 14.5768C46.5302 14.3756 46.411 14.2549 46.2122 14.2549H42.9123L35.9945 19.0035C35.7162 19.406 35.8752 19.7279 36.4318 19.6072Z" fill="#004887"/>
<path d="M50.5576 12.2856C50.5576 12.1246 50.4383 12.0039 50.2793 12.0039C50.1202 12.0039 50.001 12.1246 50.001 12.2856C50.001 12.4466 50.1202 12.5673 50.2793 12.5673C50.4383 12.5271 50.5576 12.4063 50.5576 12.2856Z" fill="#004887"/>
<path d="M53.5034 27.6978V29.7905C53.5034 29.7905 53.5034 30.4343 54.0998 30.5953C54.6961 30.7563 55.0142 30.2331 55.0142 30.2331L57.7177 25.1223C57.7972 24.9613 57.7574 24.8003 57.5984 24.7198C57.4394 24.6394 57.2804 24.7198 57.1611 24.8808L54.5768 29.9514C54.5768 29.9514 54.4178 30.1124 54.2985 30.0722C54.1395 30.0319 54.1395 29.8307 54.1395 29.8307L53.8215 23.7943L54.9347 25.3637C54.9347 25.3637 55.4515 25.9674 56.0081 25.7662C56.525 25.5649 56.4454 24.9211 56.4454 24.9211L56.0479 19.2066C56.0081 19.0053 55.9286 18.9249 55.7298 18.9249C55.531 18.9249 55.4515 19.1261 55.4515 19.287L55.8888 25.0015C55.8888 25.0015 55.8888 25.1625 55.7696 25.2028C55.6105 25.243 55.4515 25.1223 55.4515 25.1223L53.2251 21.8224C53.2251 21.8224 52.5095 20.6955 52.1119 20.2126C51.9528 20.0114 51.7938 19.77 51.5155 19.9309C51.2372 20.0919 51.3565 20.4138 51.5553 20.6553C52.5492 21.9028 53.1853 23.4723 53.1853 25.2028C53.1853 29.1466 50.0445 32.366 46.1085 32.366C42.2123 32.366 39.0317 29.1868 39.0317 25.2028C39.0317 24.2369 39.3895 22.5065 39.8666 21.5809L42.2918 17.2749C42.3713 17.0737 42.6894 17.1139 42.7291 17.2749C42.8881 17.8785 43.405 18.281 44.1206 18.281H49.3289C50.5613 18.281 50.9589 17.6371 50.9589 16.5908V13.4518C50.9987 12.8079 51.5553 12.164 52.1914 11.5202C51.9131 11.4799 51.6745 11.3994 51.3962 11.3592C51.5155 11.3592 51.6348 11.2385 51.6348 11.1177C51.6348 10.9568 51.5155 10.836 51.3565 10.836C51.1975 10.836 51.0782 10.9568 51.0782 11.1177C51.0782 11.1982 51.1179 11.2787 51.1975 11.3592C50.9987 11.3189 50.7999 11.2787 50.6011 11.2385C50.7204 11.1982 50.7999 11.1177 50.7999 10.997C50.7999 10.836 50.6806 10.7153 50.5216 10.7153C50.3625 10.7153 50.2433 10.836 50.2433 10.997C50.2433 11.1177 50.283 11.1982 50.4023 11.2385C50.2035 11.2385 50.0445 11.2385 49.8457 11.2787C49.8855 11.2385 49.9252 11.158 49.9252 11.0775C49.9252 10.9165 49.8059 10.7958 49.6469 10.7958C49.4879 10.7958 49.3686 10.9165 49.3686 11.0775C49.3686 11.1982 49.4481 11.3189 49.5674 11.3189C49.5276 11.3189 49.4879 11.3189 49.4879 11.3592C48.6927 11.8823 48.3747 12.8482 48.1759 13.6933L48.2156 10.5141C48.2156 9.95069 47.7386 9.46777 47.1819 9.46777H47.1422H38.2365C38.0775 9.46777 37.9185 9.5885 37.9185 9.78972C37.9185 9.95069 38.0377 10.1117 38.2365 10.1117H47.1422C47.3807 10.1117 47.6193 10.2726 47.6193 10.5141V14.1762C47.6193 14.4981 47.8578 14.7396 48.1759 14.7396C48.4542 14.7396 48.653 14.5384 48.7325 14.1762C48.7325 14.1762 49.3686 12.0433 49.8059 11.8421C50.3625 11.6006 51.3167 12.0836 51.3167 12.0836C51.3167 12.0836 50.4023 12.7275 50.283 13.5726V16.6713C50.283 17.4359 49.9252 17.7578 49.2891 17.7578H44.2399C43.405 17.7176 43.2857 16.792 43.2857 16.792C43.1664 16.3091 42.4508 16.1481 42.0532 16.5908L39.469 21.259C39.1509 21.7821 38.9521 22.7882 38.9521 22.7882L38.7931 20.5748C38.7931 20.5748 38.7534 19.9309 38.157 19.77C37.6004 19.6492 37.2028 20.1724 37.2028 20.1724L34.5788 25.2832C34.4993 25.4442 34.5391 25.6052 34.6981 25.6857C34.8571 25.7662 35.0559 25.7259 35.1752 25.5649L37.7197 20.4943C37.7197 20.4943 37.7992 20.2931 37.9582 20.2931C38.1172 20.2931 38.157 20.5346 38.157 20.5346L38.7534 26.6515L37.5606 24.8406C37.5606 24.8406 37.2823 24.3577 36.7655 24.4381C36.1691 24.5589 36.2089 25.2028 36.2089 25.2028L36.2884 31.1185C36.3281 31.3197 36.4077 31.4002 36.6065 31.4002C36.8052 31.4002 36.8848 31.2392 36.8848 31.038L36.7655 25.2832C36.7655 25.2832 36.7257 25.0418 36.845 25.0015C36.9643 24.9613 37.0835 25.1625 37.0835 25.1625L40.5424 30.5551L38.3955 29.5892C38.3955 29.5892 37.7992 29.2673 37.4414 29.6295C37.004 30.0319 37.3618 30.5551 37.3618 30.5551L40.5027 35.4245C40.622 35.5854 40.7412 35.6257 40.9003 35.5049C41.0593 35.3842 41.0593 35.2232 40.9798 35.022L37.8389 30.2734C37.8389 30.2734 37.7594 30.1526 37.8389 30.0319C37.9582 29.9112 38.1172 30.0319 38.1172 30.0319L44.0809 32.7684L41.6954 32.9696C41.6954 32.9696 41.0593 32.9294 40.9003 33.533C40.7412 34.0964 41.2581 34.3781 41.2581 34.3781L46.347 37.0342C46.5061 37.1147 46.6651 37.0744 46.7446 36.9134C46.8241 36.7525 46.7446 36.5915 46.5856 36.4708L41.5364 33.9355C41.5364 33.9355 41.3774 33.855 41.4171 33.7343C41.4569 33.5733 41.6557 33.5733 41.6557 33.5733L47.6193 32.8892L45.7904 34.016C45.7904 34.016 45.1941 34.2977 45.3531 34.9013C45.4724 35.4647 46.0687 35.4647 46.0687 35.4647L51.7938 35.344C51.9926 35.344 52.1119 35.2232 52.0721 35.022C52.0721 34.8208 51.9131 34.7403 51.7143 34.7001L46.1085 34.9415C46.1085 34.9415 45.9495 34.9415 45.9097 34.8208C45.87 34.6598 46.0687 34.5794 46.0687 34.5794L51.4758 30.9575L50.4818 33.1306C50.4818 33.1306 50.1638 33.694 50.6011 34.0964C51.0384 34.4989 51.5155 34.1769 51.5155 34.1769L56.2069 30.8368C56.3659 30.716 56.4057 30.5551 56.2864 30.4343C56.1671 30.2734 55.9684 30.2734 55.8093 30.3941L51.2372 33.694C51.2372 33.694 51.1179 33.7745 50.9987 33.694C50.8794 33.5733 50.9987 33.4123 50.9987 33.4123L53.5034 27.6978Z" fill="#004887"/>
<path d="M46.8926 22.1426V22.9877H50.0732C49.9937 22.706 49.9141 22.4243 49.8346 22.1426H46.8926Z" fill="#004887"/>
<path d="M46.3799 18.8027V21.8612H49.7195C49.0039 20.0905 47.7714 18.8832 46.3799 18.8027Z" fill="#004887"/>
<path d="M50.0323 27.2938C50.1516 26.6901 50.2709 26.0462 50.2709 25.4023H47.5674C48.1637 26.2072 49.0384 26.8913 50.0323 27.2938Z" fill="#004887"/>
<path d="M47.1885 18.7627C48.3812 19.1651 49.3751 20.2919 49.9715 21.9016H51.8799C50.8462 20.2114 49.1764 19.0042 47.1885 18.7627Z" fill="#004887"/>
<path d="M44.8249 25.4023H42.1611C42.1611 26.0462 42.2406 26.6901 42.3997 27.2938C43.3539 26.8511 44.2285 26.2072 44.8249 25.4023Z" fill="#004887"/>
<path d="M52.0194 22.1426H50.0713C50.3496 23.0279 50.5484 24.034 50.5484 25.1206H52.7748C52.735 24.034 52.4965 23.0279 52.0194 22.1426Z" fill="#004887"/>
<path d="M45.5405 23.9531H42.2804C42.2009 24.3556 42.1611 24.7177 42.1611 25.1202H45.0237C45.302 24.6775 45.461 24.4763 45.5405 23.9531Z" fill="#004887"/>
<path d="M50.1878 23.9531H46.9277C47.0072 24.4763 47.1265 24.6775 47.4446 25.1202H50.3469C50.3071 24.597 50.2674 24.3556 50.1878 23.9531Z" fill="#004887"/>
<path d="M45.5732 22.1426H42.6311C42.5516 22.4243 42.4721 22.706 42.3926 22.9877H45.5732V22.1426Z" fill="#004887"/>
<path d="M46.3799 28.3803H49.7593C48.3678 27.9376 47.175 26.8108 46.3799 25.6035V28.3803Z" fill="#004887"/>
<path d="M46.0838 18.8027C44.6923 18.8832 43.42 20.0905 42.7441 21.8612H46.0838V18.8027Z" fill="#004887"/>
<path d="M46.3799 31.5184C47.7316 31.4379 48.9641 30.3513 49.64 28.6611H46.3799V31.5184Z" fill="#004887"/>
<path d="M45.2978 18.7627C43.31 19.0444 41.6004 20.2114 40.6064 21.9016H42.5546C43.1509 20.2919 44.1449 19.1249 45.2978 18.7627Z" fill="#004887"/>
<path d="M51.7314 28.6611H49.8628C49.2267 30.1904 48.2328 31.2769 47.04 31.6391C49.0279 31.3977 50.7375 30.2708 51.7314 28.6611Z" fill="#004887"/>
<path d="M52.7442 25.4023H50.5178C50.5178 26.0865 50.3986 26.7706 50.2793 27.3742C50.319 27.4145 50.4383 27.4145 50.4781 27.4547L50.001 28.4206H51.9093C52.4262 27.495 52.7045 26.4889 52.7442 25.4023Z" fill="#004887"/>
<path d="M46.0884 25.6035C45.333 26.851 44.1005 27.8974 42.709 28.3803H46.0884V25.6035Z" fill="#004887"/>
<path d="M42.4991 28.3795L41.9425 27.4137C42.022 27.3735 42.1413 27.3735 42.2208 27.3332C42.0618 26.7296 41.9823 26.0455 41.9823 25.3613H39.7559C39.7956 26.4479 40.0739 27.454 40.5908 28.3795H42.4991Z" fill="#004887"/>
<path d="M46.0814 28.6611H42.8213C43.4972 30.3513 44.7296 31.4379 46.0814 31.5184V28.6611Z" fill="#004887"/>
<path d="M39.7139 25.1206H41.9403C41.9403 24.034 42.0993 23.0279 42.4174 22.1426H40.4693C39.9922 23.0279 39.7536 24.034 39.7139 25.1206Z" fill="#004887"/>
<path d="M45.4033 31.6391C44.2106 31.3172 43.2166 30.1904 42.5805 28.6611H40.7119C41.7456 30.2708 43.4552 31.3977 45.4033 31.6391Z" fill="#004887"/>
<path d="M75.9476 38.156H76.3849H76.5837L76.4644 38.3572C76.2657 38.6389 76.0271 38.9206 75.6693 39.0816C75.3115 39.2425 74.9537 39.3633 74.5561 39.3633C73.9597 39.3633 73.4429 39.2023 73.0453 38.8401C72.608 38.4779 72.4092 38.0353 72.4092 37.5121C72.4092 36.9889 72.608 36.5463 73.0453 36.2243C73.4429 35.8621 73.9597 35.7012 74.5561 35.7012C75.0332 35.7012 75.5103 35.8219 75.9078 36.1036C76.1861 36.2646 76.3452 36.4658 76.4644 36.667L76.544 36.8682H76.3452H75.9078H75.8681L75.8283 36.828C75.6693 36.667 75.5103 36.5463 75.2717 36.4255C75.0332 36.3451 74.7946 36.2646 74.5561 36.2646C74.1188 36.2646 73.7609 36.3853 73.4429 36.667C73.1646 36.9085 73.0055 37.1902 73.0055 37.5523C73.0055 37.8743 73.1646 38.1962 73.4429 38.4377C73.7609 38.6791 74.1188 38.8401 74.5561 38.8401C74.8344 38.8401 75.0729 38.7999 75.2717 38.6791C75.4705 38.5987 75.6693 38.4377 75.8283 38.2767L75.8681 38.2365H75.9476V38.156Z" fill="#004887"/>
<path d="M75.9406 38.2781H76.378C76.2189 38.5598 75.9406 38.8012 75.6226 38.9622C75.3045 39.1232 74.9467 39.2036 74.5491 39.2036C73.9925 39.2036 73.5154 39.0427 73.1178 38.7207C72.7203 38.3988 72.5215 37.9964 72.5215 37.5134C72.5215 37.0305 72.7203 36.6281 73.1178 36.3062C73.5154 35.9842 73.9925 35.8232 74.5491 35.8232C75.0262 35.8232 75.4635 35.944 75.8611 36.1854C76.0997 36.3464 76.2587 36.5074 76.378 36.7086H75.9406C75.7816 36.5074 75.5828 36.3866 75.3443 36.2659C75.1057 36.1452 74.8672 36.1049 74.5889 36.1049C74.1515 36.1049 73.754 36.2257 73.4359 36.5074C73.1178 36.7891 72.9588 37.111 72.9588 37.4732C72.9588 37.8354 73.1178 38.1976 73.4359 38.439C73.754 38.7207 74.1515 38.8415 74.5889 38.8415C74.8672 38.8415 75.1057 38.8012 75.3443 38.6805C75.5828 38.6402 75.7816 38.4793 75.9406 38.2781Z" fill="#004887"/>
<path d="M79.7244 35.8668V39.1667V39.2875H79.6051H79.2076H79.0883V39.1667V37.5973L79.2076 37.718H77.1799L77.2992 37.5973V39.1667V39.2875H77.1799H76.7824H76.6631V39.1667V35.8668V35.7461H76.7824H77.1799H77.2992V35.8668V37.3156L77.1799 37.1948H79.2076L79.0883 37.3156V35.8668V35.7461H79.2076H79.6051H79.7244V35.8668Z" fill="#004887"/>
<path d="M79.5982 35.8682V39.1681H79.2006V37.5986H77.173V39.1681H76.7754V35.8682H77.173V37.3169H79.2006V35.8682H79.5982Z" fill="#004887"/>
<path d="M82.1539 35.7817L83.8237 39.0816L83.9032 39.2828H83.7044H83.2671H83.1875L83.1478 39.2023L82.5912 38.0755L82.6707 38.156H80.8419L80.9214 38.0755L80.3648 39.2023L80.325 39.2828H80.2455H79.8082H79.6094L79.6889 39.0816L81.3587 35.7817L81.3985 35.7012H81.478H81.9153H81.9948L82.1539 35.7817ZM81.0804 37.6328H82.5912L82.5117 37.834L81.7563 36.3451H81.9551L81.1997 37.834L81.0804 37.6328Z" fill="#004887"/>
<path d="M81.8227 36.2304L82.5781 37.7193H81.0673L81.8227 36.2304ZM81.6239 35.8682L79.9541 39.1681H80.3914L80.948 38.0413H82.7769L83.3335 39.1681H83.7708L82.101 35.8682H81.6239Z" fill="#004887"/>
<path d="M87.2869 35.8668V39.1667V39.2875H87.2074H86.8098H86.7303V39.2472L84.3846 36.3497L84.5834 36.2693V39.1667V39.2875H84.4641H84.0665H83.9473V39.1667V35.8668V35.7461H84.0665H84.6231H84.6629L84.7027 35.7863L86.8893 38.5229L86.6905 38.6033V35.8668V35.7461H86.8098H87.2074H87.2869V35.8668Z" fill="#004887"/>
<path d="M87.1968 35.8682V39.1681H86.7992L84.4933 36.2706V39.1681H84.0957V35.8682H84.6125L86.7992 38.6047V35.8682H87.1968Z" fill="#004887"/>
<path d="M89.1008 37.5143H91.7645H91.8838V37.635C91.8838 38.1179 91.6452 38.5203 91.2079 38.8423C90.7706 39.1642 90.2537 39.3252 89.6971 39.3252C89.1008 39.3252 88.5839 39.1642 88.1466 38.802C87.7092 38.4398 87.4707 37.9972 87.4707 37.474C87.4707 36.9509 87.7092 36.5082 88.1068 36.1862C88.5442 35.8241 89.061 35.6631 89.6574 35.6631C90.2537 35.6631 90.8103 35.8643 91.2477 36.2265C91.3669 36.307 91.4464 36.3875 91.4862 36.4277C91.526 36.4679 91.5657 36.5484 91.6055 36.6692L91.685 36.8301H91.526H91.0886H91.0091L90.9694 36.7899C90.8501 36.6289 90.6911 36.4679 90.4525 36.3875C90.214 36.2667 89.9357 36.2265 89.6574 36.2265C89.22 36.2265 88.8225 36.3472 88.5442 36.6289C88.2261 36.8704 88.1068 37.1521 88.1068 37.5143C88.1068 37.8764 88.2659 38.1581 88.5442 38.3996C88.8622 38.6411 89.22 38.802 89.6971 38.802C90.0549 38.802 90.373 38.7215 90.6513 38.5606C90.9296 38.3996 91.0886 38.1984 91.1681 37.9569L91.2874 38.1179H89.1008H88.9815V37.9972V37.6752V37.5545H89.1008V37.5143Z" fill="#004887"/>
<path d="M89.0916 37.6342H91.7553C91.7553 38.0768 91.5565 38.439 91.1192 38.761C90.7216 39.0829 90.2048 39.2036 89.6482 39.2036C89.0916 39.2036 88.5747 39.0427 88.1771 38.7207C87.7796 38.3988 87.541 37.9964 87.541 37.5134C87.541 37.0305 87.7398 36.6281 88.1374 36.3062C88.535 35.9842 89.0518 35.8232 89.6084 35.8232C90.2048 35.8232 90.6819 35.9842 91.1192 36.3464C91.2385 36.4269 91.2782 36.5074 91.318 36.5476C91.3577 36.5879 91.3975 36.6683 91.4373 36.7488H90.9999C90.8806 36.5476 90.6819 36.4269 90.4433 36.3062C90.2048 36.1854 89.9265 36.1452 89.6084 36.1452C89.1313 36.1452 88.7337 36.2659 88.4157 36.5476C88.0976 36.8293 87.9386 37.1513 87.9386 37.5537C87.9386 37.9159 88.0976 38.2781 88.4554 38.5195C88.7735 38.8012 89.1711 38.9219 89.6482 38.9219C90.006 38.9219 90.3638 38.8415 90.6819 38.6402C90.9999 38.439 91.1589 38.2378 91.2385 37.9561H89.0518V37.6342H89.0916Z" fill="#004887"/>
<path d="M96.3786 35.7461H96.7762H96.9352L96.8954 35.9071L95.7822 39.207L95.7425 39.2875H95.663H95.1461H95.0666L95.0268 39.207L94.1919 36.5107H94.3907L93.5558 39.207L93.5161 39.2875H93.4365H92.9197H92.8402L92.8004 39.207L91.6872 35.9071L91.6475 35.7461H91.8065H92.2438H92.2836L92.3233 35.8266L93.2775 38.6838H93.0787L93.9932 35.8266L94.0329 35.7461H94.1124H94.4702H94.5498L94.5895 35.8266L95.5437 38.6838H95.3051L96.2593 35.8266L96.2991 35.7461H96.3786Z" fill="#004887"/>
<path d="M96.3739 35.8682H96.7714L95.6582 39.1681H95.1414L94.3065 36.4718L93.4318 39.1681H92.915L91.8018 35.8682H92.2391L93.1933 38.7254L94.1077 35.8682H94.4655L95.3799 38.7254L96.3739 35.8682Z" fill="#004887"/>
<path d="M101.116 37.5121C101.116 38.0353 100.878 38.4779 100.48 38.8401C100.043 39.2023 99.5258 39.3633 98.9692 39.3633C98.3728 39.3633 97.856 39.2023 97.4584 38.8401C97.021 38.4779 96.8223 38.0353 96.8223 37.5523C96.8223 37.0292 97.021 36.5865 97.4584 36.2243C97.8957 35.8621 98.3728 35.7012 98.9692 35.7012C99.5655 35.7012 100.082 35.8621 100.52 36.2243C100.878 36.5463 101.116 36.9889 101.116 37.5121ZM100.48 37.5121C100.48 37.1902 100.321 36.9085 100.043 36.6268C99.7246 36.3853 99.3667 36.2243 98.9294 36.2243C98.4921 36.2243 98.1343 36.3451 97.8162 36.6268C97.4981 36.8682 97.3789 37.1499 97.3789 37.5121C97.3789 37.8743 97.5379 38.156 97.8162 38.3974C98.1343 38.6389 98.4921 38.7596 98.9294 38.7596C99.3667 38.7596 99.7246 38.6389 100.043 38.3572C100.321 38.156 100.48 37.834 100.48 37.5121Z" fill="#004887"/>
<path d="M100.118 38.4793C99.7995 38.761 99.4019 38.8817 98.9248 38.8817C98.4477 38.8817 98.0501 38.761 97.7321 38.4793C97.414 38.1976 97.255 37.8756 97.255 37.5134C97.255 37.1513 97.414 36.7891 97.7321 36.5476C98.0501 36.2659 98.4477 36.1452 98.9248 36.1452C99.3621 36.1452 99.7597 36.2659 100.118 36.5476C100.436 36.8293 100.595 37.1513 100.595 37.5134C100.595 37.8756 100.436 38.2378 100.118 38.4793ZM100.396 36.3062C99.9983 35.9842 99.4814 35.8232 98.9248 35.8232C98.3682 35.8232 97.8514 35.9842 97.4538 36.3464C97.0562 36.6683 96.8574 37.0708 96.8574 37.5537C96.8574 38.0366 97.0562 38.3988 97.4538 38.761C97.8514 39.0829 98.3284 39.2439 98.9248 39.2439C99.5212 39.2439 99.9983 39.0829 100.396 38.761C100.793 38.439 100.992 38.0366 100.992 37.5537C100.992 37.0305 100.793 36.6281 100.396 36.3062Z" fill="#004887"/>
<path d="M104.598 35.8668V39.1667V39.2875H104.519H104.121H104.042V39.2472L101.696 36.3497L101.895 36.2693V39.1667V39.2875H101.776H101.378H101.259V39.1667V35.8668V35.7461H101.378H101.935H101.974L102.014 35.7863L104.201 38.5229L104.002 38.6033V35.8668V35.7461H104.121H104.519H104.598V35.8668Z" fill="#004887"/>
<path d="M104.507 35.8682V39.1681H104.11L101.804 36.2706V39.1681H101.406V35.8682H101.923L104.11 38.6047V35.8682H104.507Z" fill="#004887"/>
<path d="M111.236 36.026V39.3662V39.4869H111.117H110.759H110.68L110.64 39.4467L108.334 36.5492L108.533 36.4687V39.3662V39.4869H108.413H108.016H107.896V39.3662V36.026V35.9053H108.016H108.572H108.612L108.652 35.9455L110.839 38.682L110.64 38.7625V36.026V35.9053H110.719H111.117H111.236V36.026Z" fill="#004887"/>
<path d="M111.131 36.0273V39.3273H110.734L108.428 36.4298V39.3273H108.03V36.0273H108.547L110.734 38.7639V36.0273H111.131Z" fill="#004887"/>
<path d="M113.791 35.9858L115.461 39.2857L115.54 39.4869H115.341H114.904H114.864L114.825 39.4064L114.268 38.2796L114.347 38.3601H112.519L112.598 38.2796L112.042 39.4064L112.002 39.4869H111.922H111.485H111.286L111.366 39.2857L113.035 35.9858L113.075 35.9053H113.155H113.592H113.672L113.791 35.9858ZM112.717 37.7967H114.228L114.149 37.9979L113.393 36.5089H113.592L112.837 37.9979L112.717 37.7967Z" fill="#004887"/>
<path d="M113.483 36.4298L114.238 37.9188H112.727L113.483 36.4298ZM113.244 36.0273L111.574 39.3273H112.012L112.568 38.2005H114.397L114.954 39.3273H115.391L113.721 36.0273H113.244Z" fill="#004887"/>
<path d="M117.452 36.026V36.3479V36.4687H117.332H116.458L116.577 36.3479V39.3662V39.4869H116.458H116.06H115.941V39.3662V36.3479L116.06 36.4687H115.146H115.026V36.3479V36.026V35.9053H115.146H117.332H117.452V36.026Z" fill="#004887"/>
<path d="M117.318 36.0273V36.3493H116.444V39.3675H116.046V36.3493H115.132V36.0273H117.318Z" fill="#004887"/>
<path d="M118.461 36.026V39.3662V39.4869H118.342H117.944H117.825V39.3662V36.026V35.9053H117.944H118.342H118.461V36.026Z" fill="#004887"/>
<path d="M118.335 36.0273V39.3273H117.938V36.0273H118.335Z" fill="#004887"/>
<path d="M123.068 37.6791C123.068 38.2023 122.83 38.6449 122.432 39.0071C121.995 39.3693 121.478 39.5303 120.921 39.5303C120.325 39.5303 119.808 39.3693 119.411 39.0071C118.973 38.6449 118.774 38.2023 118.774 37.7193C118.774 37.1962 118.973 36.7535 119.411 36.3913C119.848 36.0291 120.325 35.8682 120.921 35.8682C121.518 35.8682 122.035 36.0291 122.472 36.3913C122.869 36.7535 123.068 37.1962 123.068 37.6791ZM122.472 37.6791C122.472 37.3572 122.313 37.0754 122.035 36.7937C121.716 36.5523 121.359 36.3913 120.921 36.3913C120.484 36.3913 120.126 36.512 119.808 36.7937C119.49 37.0352 119.371 37.3169 119.371 37.6791C119.371 38.0413 119.53 38.323 119.808 38.5644C120.126 38.8059 120.484 38.9266 120.921 38.9266C121.359 38.9266 121.716 38.8059 122.035 38.5242C122.313 38.323 122.472 38.0413 122.472 37.6791Z" fill="#004887"/>
<path d="M122.077 38.6787C121.758 38.9604 121.361 39.0811 120.884 39.0811C120.407 39.0811 120.009 38.9604 119.691 38.6787C119.373 38.397 119.254 38.0751 119.254 37.7129C119.254 37.3507 119.413 36.9885 119.731 36.747C120.049 36.4653 120.446 36.3446 120.924 36.3446C121.361 36.3446 121.758 36.4653 122.116 36.747C122.434 37.0287 122.593 37.3507 122.593 37.7129C122.593 38.0751 122.395 38.397 122.077 38.6787ZM122.355 36.4653C121.957 36.1434 121.44 35.9824 120.884 35.9824C120.327 35.9824 119.81 36.1434 119.413 36.5056C119.015 36.8275 118.816 37.23 118.816 37.7129C118.816 38.1958 119.015 38.558 119.413 38.9202C119.81 39.2421 120.287 39.4031 120.884 39.4031C121.44 39.4031 121.957 39.2421 122.355 38.8799C122.752 38.558 122.951 38.1555 122.951 37.6726C122.991 37.23 122.752 36.8275 122.355 36.4653Z" fill="#004887"/>
<path d="M126.684 36.026V39.3662V39.4869H126.605H126.207H126.128V39.4467L123.782 36.5492L123.981 36.4687V39.3662V39.4869H123.862H123.464H123.345V39.3662V36.026V35.9053H123.464H124.021H124.06L124.1 35.9455L126.287 38.682L126.088 38.7625V36.026V35.9053H126.207H126.605H126.684V36.026Z" fill="#004887"/>
<path d="M126.6 36.0273V39.3273H126.203L123.897 36.4298V39.3273H123.499V36.0273H124.016L126.203 38.7639V36.0273H126.6Z" fill="#004887"/>
<path d="M129.215 35.9858L130.885 39.2857L130.965 39.4869H130.766H130.368H130.289L130.249 39.4064L129.692 38.2796L129.772 38.3601H127.983L128.062 38.2796L127.506 39.4064L127.466 39.4869H127.386H126.949H126.79L126.87 39.2857L128.539 35.9858L128.579 35.9053H128.659H129.096H129.175L129.215 35.9858ZM128.142 37.7967H129.653L129.573 37.9979L128.818 36.5089H129.016L128.261 37.9979L128.142 37.7967Z" fill="#004887"/>
<path d="M128.905 36.4298L129.66 37.9188H128.149L128.905 36.4298ZM128.706 36.0273L127.036 39.3273H127.473L128.03 38.2005H129.859L130.416 39.3273H130.853L129.183 36.0273H128.706Z" fill="#004887"/>
<path d="M133.341 39.0442V39.3662V39.4869H133.221H131.234H131.114V39.3662V36.026V35.9053H131.234H131.631H131.711V36.026V39.0442L131.631 38.9235H133.221H133.341V39.0442Z" fill="#004887"/>
<path d="M133.227 39.0434V39.3653H131.199V36.0654H131.597V39.0836H133.227V39.0434Z" fill="#004887"/>
<path d="M138.393 38.1589V38.1991C138.393 38.6015 138.274 38.9235 137.995 39.1649C137.717 39.4064 137.399 39.5271 136.962 39.5271C136.564 39.5271 136.206 39.4064 135.928 39.1649C135.65 38.9235 135.53 38.6015 135.53 38.1991V38.1186V36.026V35.9053H135.65H136.047H136.166V36.026V38.0784V38.1186C136.166 38.3601 136.246 38.5613 136.365 38.7223C136.524 38.8832 136.723 38.9637 136.962 38.9637C137.2 38.9637 137.399 38.8832 137.558 38.7625C137.717 38.6015 137.796 38.4406 137.796 38.1991V38.1589V36.0662V35.9455H137.916H138.313H138.433V36.0662V38.1589H138.393Z" fill="#004887"/>
<path d="M138.288 38.1602V38.2005C138.288 38.5626 138.169 38.8443 137.93 39.0456C137.692 39.287 137.374 39.3675 136.976 39.3675C136.578 39.3675 136.26 39.2468 136.022 39.0456C135.783 38.8041 135.664 38.5224 135.664 38.1602V38.12V36.0273H136.062V38.0797V38.12C136.062 38.4017 136.141 38.6431 136.3 38.8041C136.459 38.9651 136.698 39.0456 136.976 39.0456C137.254 39.0456 137.493 38.9651 137.652 38.8041C137.811 38.6431 137.89 38.4017 137.89 38.1602V38.12V36.0273H138.288V38.1602Z" fill="#004887"/>
<path d="M142.104 36.026V39.3662V39.4869H141.985H141.587H141.548L141.508 39.4467L139.202 36.5492L139.401 36.4687V39.3662V39.4869H139.281H138.884H138.765V39.3662V36.026V35.9053H138.884H139.401H139.48L139.52 35.9455L141.667 38.682L141.468 38.7625V36.026V35.9053H141.587H141.985H142.104V36.026Z" fill="#004887"/>
<path d="M141.985 36.0273V39.3273H141.587L139.281 36.4298V39.3273H138.884V36.0273H139.401L141.587 38.7639V36.0273H141.985Z" fill="#004887"/>
<path d="M143.176 36.026V39.3662V39.4869H143.057H142.659H142.54V39.3662V36.026V35.9053H142.659H143.057H143.176V36.026Z" fill="#004887"/>
<path d="M143.051 36.0273V39.3273H142.653V36.0273H143.051Z" fill="#004887"/>
<path d="M146.52 35.9053H146.958H147.156L147.077 36.1065L145.447 39.4064L145.407 39.4869H145.328H144.97H144.89L144.85 39.4064L143.26 36.1065L143.181 35.9053H143.34H143.777H143.857L143.896 35.9858L145.248 38.8832H145.049L146.441 35.9858L146.481 35.9053H146.52Z" fill="#004887"/>
<path d="M146.522 36.0273H146.96L145.33 39.3273H144.972L143.342 36.0273H143.779L145.131 38.9248L146.522 36.0273Z" fill="#004887"/>
<path d="M149.419 39.0442V39.3662V39.4869H149.299H147.152H147.033V39.3662V36.026V35.9053H147.152H149.299H149.419V36.026V36.3479V36.4687H149.299H147.55L147.669 36.3479V37.515L147.55 37.3943H149.22H149.339V37.515V37.8369V37.9577H149.22H147.55L147.669 37.8369V39.0442L147.55 38.9235H149.299H149.419V39.0442Z" fill="#004887"/>
<path d="M149.3 39.0434V39.3653H147.153V36.0654H149.3V36.3874H147.551V37.5544H149.221V37.8361H147.551V39.0434H149.3Z" fill="#004887"/>
<path d="M152.769 37.1114C152.769 37.4333 152.65 37.715 152.412 37.9162C152.173 38.1175 151.855 38.2382 151.497 38.2382L151.577 38.037L152.69 39.2845L152.889 39.4857H152.61H152.094H152.054L152.014 39.4455L150.702 37.9565L150.503 37.7553H150.782H150.901H151.02C151.259 37.7553 151.418 37.7553 151.497 37.715C151.577 37.715 151.696 37.6748 151.776 37.6345C151.895 37.5943 151.974 37.5138 152.054 37.3931C152.133 37.3126 152.133 37.1919 152.133 37.1114C152.133 36.9907 152.094 36.8699 152.014 36.7492C151.935 36.6285 151.776 36.548 151.656 36.5077C151.577 36.4675 151.457 36.4675 151.338 36.4675C151.219 36.4675 151.06 36.4675 150.782 36.4675H150.384L150.503 36.3468V39.365V39.4857H150.384H149.986H149.867V39.365V36.0651V35.9443H149.986H151.259C151.378 35.9443 151.537 35.9443 151.696 35.9846C151.855 36.0248 152.014 36.0651 152.094 36.1053C152.292 36.1858 152.451 36.3468 152.571 36.5077C152.69 36.6687 152.769 36.8699 152.769 37.1114Z" fill="#004887"/>
<path d="M152.639 37.1117C152.639 37.3934 152.519 37.6349 152.321 37.8361C152.082 38.0373 151.843 38.1178 151.486 38.1178L152.599 39.3653H152.082L150.77 37.8764H150.889H151.009C151.247 37.8764 151.406 37.8764 151.525 37.8361C151.645 37.8361 151.724 37.7959 151.843 37.7556C151.963 37.6751 152.082 37.5947 152.162 37.4739C152.241 37.3532 152.281 37.2325 152.281 37.1117C152.281 36.9508 152.241 36.83 152.122 36.6691C152.003 36.5483 151.883 36.4679 151.684 36.3874C151.565 36.3471 151.486 36.3471 151.366 36.3471C151.247 36.3471 151.048 36.3471 150.81 36.3471H150.412V39.3653H150.015V36.0654H151.287C151.406 36.0654 151.525 36.0654 151.724 36.1057C151.883 36.1459 152.003 36.1862 152.082 36.2264C152.281 36.3069 152.44 36.4276 152.519 36.5886C152.599 36.7496 152.639 36.9105 152.639 37.1117Z" fill="#004887"/>
<path d="M155.585 38.4406C155.585 38.7625 155.466 39.004 155.187 39.2052C154.949 39.4064 154.631 39.5271 154.273 39.5271C153.915 39.5271 153.637 39.4064 153.359 39.2454C153.08 39.0442 152.961 38.8028 152.961 38.4808V38.4406V38.3198H153.08H153.518H153.637V38.4406C153.637 38.6016 153.716 38.7223 153.836 38.8028C153.955 38.9235 154.114 38.9637 154.313 38.9637C154.511 38.9637 154.671 38.9235 154.79 38.8028C154.909 38.682 154.989 38.6016 154.989 38.4406C154.989 38.3601 154.949 38.2394 154.869 38.1589C154.79 38.0784 154.671 37.9979 154.551 37.9577L153.875 37.7967C153.637 37.7564 153.478 37.6357 153.319 37.4747C153.16 37.3138 153.08 37.1126 153.08 36.9113C153.08 36.6296 153.199 36.3882 153.438 36.187C153.677 35.9858 153.955 35.9053 154.273 35.9053C154.591 35.9053 154.909 35.9858 155.108 36.187C155.346 36.3882 155.466 36.6296 155.466 36.9113V37.0321H155.346H154.949H154.83V36.9113C154.83 36.7906 154.79 36.6699 154.671 36.5894C154.551 36.5089 154.392 36.4687 154.233 36.4687C154.074 36.4687 153.955 36.5089 153.836 36.5894C153.716 36.6699 153.677 36.7906 153.677 36.9113C153.677 36.9918 153.716 37.0723 153.756 37.1126C153.836 37.193 153.915 37.2333 154.034 37.2735L154.71 37.4345C154.949 37.515 155.148 37.6357 155.307 37.7967C155.505 37.9979 155.585 38.1991 155.585 38.4406Z" fill="#004887"/>
<path d="M155.506 38.4398C155.506 38.7215 155.387 38.9227 155.148 39.1239C154.91 39.3251 154.632 39.4056 154.274 39.4056C153.956 39.4056 153.677 39.3251 153.439 39.1239C153.2 38.9227 153.081 38.7215 153.081 38.48V38.4398H153.518C153.518 38.641 153.598 38.8019 153.757 38.9227C153.916 39.0434 154.115 39.1239 154.314 39.1239C154.512 39.1239 154.711 39.0434 154.87 38.9227C155.029 38.8019 155.109 38.641 155.109 38.48C155.109 38.3593 155.069 38.2385 154.95 38.1178C154.87 37.9971 154.751 37.9166 154.592 37.8764L153.916 37.7154C153.717 37.6751 153.558 37.5544 153.399 37.4337C153.28 37.2727 153.2 37.1117 153.2 36.9508C153.2 36.7093 153.32 36.4679 153.518 36.3069C153.717 36.1459 153.995 36.0654 154.314 36.0654C154.632 36.0654 154.87 36.1459 155.109 36.3069C155.307 36.4679 155.427 36.7093 155.427 36.9508H155.029C155.029 36.7898 154.95 36.6288 154.83 36.5483C154.671 36.4276 154.512 36.3874 154.314 36.3874C154.115 36.3874 153.956 36.4276 153.836 36.5483C153.717 36.6691 153.638 36.7898 153.638 36.9508C153.638 37.0715 153.677 37.152 153.757 37.2727C153.836 37.3532 153.956 37.4337 154.075 37.4739L154.751 37.6349C154.989 37.6751 155.148 37.7959 155.307 37.9568C155.427 38.0373 155.506 38.2385 155.506 38.4398Z" fill="#004887"/>
<path d="M156.572 36.026V39.3662V39.4869H156.452H156.055H155.936V39.3662V36.026V35.9053H156.055H156.452H156.572V36.026Z" fill="#004887"/>
<path d="M156.452 36.0273V39.3273H156.055V36.0273H156.452Z" fill="#004887"/>
<path d="M159.354 36.026V36.3479V36.4687H159.275H158.36L158.48 36.3479V39.3662V39.4869H158.36H157.963H157.843V39.3662V36.3479L157.963 36.4687H157.088H156.969V36.3479V36.026V35.9053H157.088H159.275H159.354V36.026Z" fill="#004887"/>
<path d="M159.276 36.0273V36.3493H158.401V39.3675H158.003V36.3493H157.089V36.0273H159.276Z" fill="#004887"/>
<path d="M162.191 35.9053H162.589H162.827L162.708 36.1065L161.356 38.3198V38.2394V39.3662V39.4869H161.237H160.84H160.72V39.3662V38.2394L160.76 38.3198L159.408 36.1065L159.289 35.9053H159.488H159.925H159.965L160.005 35.9858L161.158 37.8369H160.959L162.072 35.9858L162.112 35.9053H162.191Z" fill="#004887"/>
<path d="M162.185 36.0273H162.623L161.271 38.2407V39.3273H160.873V38.2407L159.521 36.0273H159.959L161.072 37.8785L162.185 36.0273Z" fill="#004887"/>
<path d="M96.9245 31.1963V27.333H93.9824V33.2085H108.335V31.1963H96.9245Z" fill="#004887"/>
<path d="M144.675 25.6035H131.157V27.6961H141.733V33.2094H144.675V25.6035Z" fill="#004887"/>
<path d="M136.161 15.2194V13.9316H133.18V15.2194H128.767V17.2718H140.376V15.2194H136.161Z" fill="#004887"/>
<path d="M104.558 21.6992H91.915V23.7516H96.5269V26.5284H99.5882L99.5485 23.7516H104.558V21.6992Z" fill="#004887"/>
<path d="M81.2599 20.2095C80.2262 19.3644 79.9479 18.5596 79.8684 17.2316H84.1622V15.2194H79.8684V13.9316H76.9263V15.2194H72.6325V17.2316H76.9263C76.8468 18.5998 76.5288 19.4852 75.6541 20.29C74.7794 21.0949 73.9843 21.3766 72.5928 21.3766V23.6302C74.024 23.5899 74.859 23.3887 75.9722 22.9058C77.0059 22.4631 77.8805 21.6583 78.3576 20.9339C78.8745 21.618 79.7094 22.4229 80.7828 22.8656C81.9755 23.3485 82.89 23.5899 84.3212 23.6302V21.3766C82.6912 21.2961 82.1346 20.8937 81.2599 20.2095Z" fill="#004887"/>
<path d="M114.097 25.8843V17.2321H117.953V15.1797H111.075V27.8964C111.075 27.8964 118.947 28.0574 120.06 27.0111V25.1197C118.788 25.8038 116.482 25.8843 114.097 25.8843Z" fill="#004887"/>
<path d="M161.609 15.1797H148.131V17.2723H158.627V31.1159H161.609V15.1797Z" fill="#004887"/>
<path d="M88.6491 29.1459C88.6491 31.7617 85.6673 33.8543 82.0096 33.8543C78.3519 33.8543 75.3701 31.7215 75.3701 29.1459C75.3701 26.5704 78.3519 24.4375 82.0096 24.4375C85.6673 24.4375 88.6491 26.5301 88.6491 29.1459ZM81.9699 26.6509C80.0217 26.6509 78.2724 27.6167 78.2724 29.1057C78.2724 30.5947 80.0217 31.641 81.9699 31.641C83.918 31.641 85.6673 30.5947 85.6673 29.1057C85.6673 27.6167 83.918 26.6509 81.9699 26.6509Z" fill="#004887"/>
<path d="M103.839 18.2376C103.839 20.612 101.294 22.5436 98.1934 22.5436C95.0526 22.5436 92.5479 20.612 92.5479 18.2376C92.5479 15.8633 95.0923 13.9316 98.1934 13.9316C101.334 13.9316 103.839 15.8633 103.839 18.2376ZM98.1934 16.1048C96.6429 16.1048 95.3706 17.0706 95.3706 18.2376C95.3706 19.4047 96.6429 20.3705 98.1934 20.3705C99.744 20.3705 101.016 19.4047 101.016 18.2376C100.976 17.0706 99.744 16.1048 98.1934 16.1048Z" fill="#004887"/>
<path d="M139.94 20.2109C139.94 22.5449 137.554 24.4364 134.652 24.4364C131.71 24.4364 129.364 22.5449 129.364 20.2109C129.364 17.8768 131.75 15.9854 134.652 15.9854C137.554 15.9854 139.94 17.8768 139.94 20.2109ZM134.652 18.239C133.3 18.239 132.187 19.1243 132.187 20.2109C132.187 21.2974 133.3 22.1828 134.652 22.1828C136.004 22.1828 137.117 21.2974 137.117 20.2109C137.077 19.1243 136.004 18.239 134.652 18.239Z" fill="#004887"/>
<path d="M90.7581 18.6415H88.6112V14.416H86.3848H84.5957V15.2209C84.5957 15.2209 85.4704 15.0599 85.6294 16.1867V29.1852H88.6112L88.5715 20.7342H90.7184V18.6415H90.7581Z" fill="#004887"/>
<path d="M105.479 14.416H104.446V15.2209C104.446 15.2209 105.32 15.0599 105.479 16.1867V24.6377H101.464V26.6901H105.479V33.2095H108.421V14.416H105.479Z" fill="#004887"/>
<path d="M124.002 14.416V20.4122H122.73V14.416H119.788H118.754V15.2209C118.754 15.2209 119.629 15.0599 119.788 16.1867V33.2095H122.73V22.4646H124.002V33.2095H126.944V14.416H124.002Z" fill="#004887"/>
<path d="M144.717 18.6415V14.416H141.775H140.741V15.2209C140.741 15.2209 141.616 15.0599 141.775 16.1465V26.7303H144.717V20.6939H146.427V18.6415H144.717Z" fill="#004887"/>
<path d="M156.967 30.1096V21.5781H153.985V30.1096H152.833V21.5781H149.851V30.1096H147.386V32.162H162.971V30.1096H156.967Z" fill="#004887"/>
</svg>
