<svg width="190" height="50" viewBox="0 0 190 50" fill="none" xmlns="http://www.w3.org/2000/svg">
<rect width="190" height="50" rx="10" fill="white"/>
<path d="M43.9465 17.1715C43.8454 16.8354 42.9726 15.114 42.9726 15.114L52.0322 15.1178C55.0666 15.1178 58.7842 15.3827 60.6242 17.4498C62.1053 19.1133 62.2371 21.732 61.0226 25.4541C57.8872 35.0812 51.0497 35.8778 43.9224 35.8778H37.9375L43.9465 17.1715ZM45.6739 33.3369C48.2001 33.3245 50.3712 32.921 51.6887 32.0684C53.369 30.9755 54.5305 29.0765 55.694 25.512C56.7257 22.3407 57.1655 20.041 56.0588 18.8019C55.3235 17.971 53.5547 17.5703 51.2806 17.5703C51.1777 17.5703 51.0756 17.5703 50.9804 17.5711C50.9804 17.5711 50.0122 17.5531 49.046 17.6698L44.2737 32.3901C44.2737 32.3901 44.0196 33.3367 45.1648 33.3367M70.218 33.3379L79.7983 33.3474L78.9735 35.8787H63.0224L69.0304 17.1725C68.9303 16.8354 68.0748 15.1111 68.0748 15.1111H85.0316L84.2059 17.6425H74.1309L72.135 23.7925H79.167L78.3412 26.3305H71.3141L69.372 32.338C69.372 32.338 69.1074 33.3132 70.218 33.3379ZM86.631 35.8778L91.4525 20.5964L97.2757 35.8778H101.792L108.556 15.1102H104.91L100.294 29.649L100.222 29.48L94.7995 15.1102H87.8908C87.8908 15.1102 88.7473 16.8345 88.8473 17.1715L82.8384 35.8778M126.377 18.5825C125.544 18.2065 123.57 17.3595 120.751 17.3273C119.94 17.3212 117.986 17.5476 117.328 19.5719C116.772 21.2763 118.634 22.1935 120.794 23.2522C123.56 24.6119 126.692 26.1548 125.478 29.8826C124.17 33.8981 119.92 36.2889 113.823 36.1987C109.379 36.1342 107.21 35.3166 107.21 35.3166L108.451 31.493L109.349 32C110.237 32.4994 112.586 33.6654 115.215 33.6654C116.095 33.6654 117.337 33.5078 118.337 32.8963C119.052 32.4596 119.561 31.7436 119.855 30.8416C120.456 28.9929 118.542 28.0358 116.323 26.9249C113.621 25.5747 110.557 24.0441 111.744 20.4179C112.227 18.9215 113.259 17.6321 114.719 16.6854C116.625 15.4491 118.784 14.8177 122.247 14.7959C124.679 14.7836 127.042 15.1007 128.033 15.357L128.401 15.4596L128.264 15.903L127.56 18.0584L127.26 18.9842M130.058 25.5747C131.441 21.3285 133.326 18.5455 135.997 16.8155C138.202 15.3874 140.894 14.6924 144.228 14.6924C147.41 14.6924 149.567 15.377 150.821 16.7803C152.383 18.5388 152.47 21.3304 151.087 25.5747C149.587 30.1788 146.512 36.307 137.183 36.307C133.873 36.307 131.642 35.6072 130.36 34.1658C128.809 32.4273 128.715 29.6927 130.058 25.5747ZM138.017 33.7461C139.336 33.7461 140.458 33.4594 141.414 32.8099C143.604 31.341 144.834 28.2998 145.724 25.5747C146.692 22.5951 147.41 19.6374 146.11 18.1733C145.555 17.5542 144.666 17.2494 143.391 17.2494C138.77 17.2494 136.83 21.2497 135.424 25.5747C134.664 27.9057 133.813 31.1929 135.223 32.7757C135.804 33.4281 136.717 33.7461 138.017 33.7461Z" fill="#E6232A"/>
</svg>
