<svg width="190" height="50" viewBox="0 0 190 50" fill="none" xmlns="http://www.w3.org/2000/svg">
<rect width="190" height="50" rx="10" fill="white"/>
<path d="M92.8519 40.751C91.7019 41.101 90.8519 41.101 90.2019 41.101C88.4018 41.101 86.3018 40.001 86.3018 37.0009C86.3018 33.9508 88.1018 32.8008 90.6019 32.8008C91.0519 32.8008 92.0019 32.8508 92.6519 33.1508L92.5019 34.9008C91.9519 34.5008 91.2519 34.4008 90.8519 34.4008C89.3518 34.4008 88.1518 35.1008 88.1518 37.0009C88.1518 38.601 89.1018 39.551 90.4519 39.551C90.7019 39.551 90.9519 39.501 91.1019 39.401V37.8009H90.0519V36.3009H92.9019V40.751H92.8519Z" fill="black"/>
<path d="M96.052 37.9513L93.502 32.9512H95.602L96.9521 36.1513L98.2521 32.9512H100.352L97.8521 37.9513V41.0014H96.052V37.9513Z" fill="black"/>
<path d="M100.952 32.9512H105.752V34.4512H102.752V36.1013H105.602V37.6013H102.752V39.4014H105.852V40.9014H100.952V32.9512Z" fill="black"/>
<path d="M108.502 36.9509C108.502 35.5509 108.952 34.4008 110.052 34.4008C111.152 34.4008 111.602 35.5509 111.602 36.9509C111.602 38.2509 111.152 39.501 110.052 39.501C108.952 39.501 108.502 38.2509 108.502 36.9509ZM106.652 36.9509C106.652 39.501 107.852 41.101 110.052 41.101C112.253 41.101 113.453 39.501 113.453 36.9509C113.453 34.3508 112.303 32.8008 110.052 32.8008C107.802 32.8008 106.652 34.3508 106.652 36.9509Z" fill="black"/>
<path d="M114.402 32.9512H116.702L119.002 38.4013L118.952 32.9512H120.603V41.0014H118.352L115.952 35.5012L116.002 41.0014H114.402V32.9512Z" fill="black"/>
<path d="M128.203 40.751C127.053 41.101 126.202 41.101 125.552 41.101C123.752 41.101 121.652 40.001 121.652 37.0009C121.652 33.9508 123.452 32.8008 125.952 32.8008C126.402 32.8008 127.353 32.8508 128.003 33.1508L127.853 34.9008C127.303 34.5008 126.602 34.4008 126.202 34.4008C124.702 34.4008 123.502 35.1008 123.502 37.0009C123.502 38.601 124.452 39.551 125.802 39.551C126.052 39.551 126.302 39.501 126.452 39.401V37.8009H125.402V36.3009H128.253V40.751H128.203Z" fill="black"/>
<path d="M129.452 32.9512H131.752L134.052 38.4013L134.002 32.9512H135.653V41.0014H133.402L131.002 35.5012L131.052 41.0014H129.402V32.9512H129.452Z" fill="black"/>
<path d="M140.903 37.7515H139.203L140.103 34.6014L140.903 37.7515ZM136.353 40.9516H138.203L138.753 39.2516H141.303L141.803 40.9516H143.803L141.153 32.9014H138.903L136.353 40.9516Z" fill="black"/>
<path d="M144.403 32.9512H147.253L148.703 38.3013L150.203 32.9512H152.954V41.0014H151.154L151.204 34.8512L149.453 41.0014H147.803L146.153 34.8512L146.203 41.0014H144.403V32.9512Z" fill="black"/>
<path d="M131.154 16.9509H125.103V11.3008H122.653V18.901H131.154V16.9509Z" fill="black"/>
<path d="M97.5024 20.051H99.9525V11.0508H97.5024V12.7508H94.9023V14.7009H97.5024V15.9509H94.9023V17.901H97.5024V20.051Z" fill="black"/>
<path d="M147.754 25.251V20.6008H151.904V18.6508H143.104V13.5506H151.904V11.6006H140.654V20.6008H145.354V25.251H139.454V27.151H153.104V25.251H147.754Z" fill="black"/>
<path d="M135.054 11.0508H132.604V19.801H135.054V15.7009H137.154V13.8009H135.054V11.0508Z" fill="black"/>
<path d="M125.403 20.8516V27.9018H135.054V20.8516H125.403ZM127.803 26.0017V22.8016H132.554V26.0017H127.803Z" fill="black"/>
<path d="M94.8025 19.8516C92.1024 19.8516 89.9023 21.8516 89.9023 24.3017C89.9023 26.7518 92.1024 28.7518 94.8025 28.7518C97.5026 28.7518 99.7026 26.7518 99.7026 24.3017C99.7026 21.8516 97.5026 19.8516 94.8025 19.8516ZM94.8025 26.6518C93.5024 26.6518 92.4024 25.6017 92.4024 24.2517C92.4024 22.9517 93.4524 21.8516 94.8025 21.8516C96.1025 21.8516 97.2026 22.9017 97.2026 24.2517C97.2026 25.6017 96.1025 26.6518 94.8025 26.6518Z" fill="black"/>
<path d="M111.903 19.8516C109.203 19.8516 107.003 21.8516 107.003 24.3017C107.003 26.7518 109.203 28.7518 111.903 28.7518C114.603 28.7518 116.803 26.7518 116.803 24.3017C116.803 21.8516 114.603 19.8516 111.903 19.8516ZM111.903 26.6518C110.603 26.6518 109.503 25.6017 109.503 24.2517C109.503 22.9517 110.553 21.8516 111.903 21.8516C113.203 21.8516 114.303 22.9017 114.303 24.2517C114.253 25.6017 113.203 26.6518 111.903 26.6518Z" fill="black"/>
<path d="M93.7524 15.3011C93.7524 15.3011 94.4024 13.601 94.3524 11.501H86.3022V13.451H91.4023C91.4023 13.451 91.6023 17.3511 85.9521 18.2012L86.9522 19.9012C88.7022 19.7512 92.3023 18.8512 93.7524 15.3011Z" fill="black"/>
<path d="M112.252 19.4008L113.252 17.7508C109.452 16.5007 109.452 12.6506 109.452 12.2506C109.452 11.8506 109.452 11.3506 109.452 11.3506H106.452C106.452 11.3506 106.452 11.9006 106.452 12.2506C106.452 12.6006 106.602 16.7507 102.702 18.2008L103.752 19.8008C103.752 19.8008 106.452 19.0008 108.052 16.3507C109.402 18.7008 112.252 19.4008 112.252 19.4008Z" fill="black"/>
<path d="M117.152 11.0508H114.702V20.051H117.152V15.7009H119.302V13.8009H117.152V11.0508Z" fill="black"/>
<path d="M57.6999 4.60022C50.5497 4.45021 44.1495 8.05032 40.3994 13.5505C40.4494 13.6505 40.5494 13.7005 40.5994 13.8005C40.6494 13.8505 40.6994 13.9005 40.6994 13.9505H40.7494C40.9994 14.0005 41.3994 14.0505 41.7495 14.4005C41.9495 14.6005 42.0995 14.8005 42.1995 15.0005C42.2495 15.0505 42.2995 15.2005 42.3495 15.2005C42.3995 15.2505 42.4995 15.3005 42.5995 15.4005C42.7495 15.5005 42.9495 15.6505 43.0995 15.8005C43.2495 15.9505 43.3495 16.1006 43.4995 16.2506C43.5995 16.3506 43.6495 16.4506 43.7495 16.5506C43.7995 16.6006 43.8995 16.7006 43.9995 16.8006C44.1495 16.9506 44.2995 17.0506 44.4495 17.2506C44.6495 17.4506 44.7495 17.7006 44.8495 17.9006C44.8995 17.9506 44.9495 18.0506 44.9495 18.1006C45.0996 18.2506 45.1996 18.4506 45.3496 18.6006L45.5496 18.8506C45.5996 18.9006 45.6496 18.9506 45.7496 19.0506C45.8996 19.2006 46.0996 19.3506 46.2496 19.5507C46.3996 19.7007 46.4996 19.8507 46.5996 20.0507C46.6996 20.1507 46.7496 20.2507 46.7996 20.3507C46.9496 20.5507 47.0496 20.8007 47.1496 20.9507C47.1996 21.0507 47.2496 21.1507 47.2496 21.2007C47.2996 21.2507 47.3496 21.3507 47.4496 21.4007C47.5996 21.5507 47.7496 21.7007 47.8996 21.9007C48.0496 22.1007 48.1496 22.3507 48.1996 22.5507C48.2496 22.6007 48.2496 22.7007 48.2996 22.7507C48.3496 22.7507 48.3496 22.8007 48.3996 22.8007C48.5997 22.9008 48.8497 23.1008 49.0497 23.4508C49.1497 23.6508 49.2497 23.8008 49.2997 23.9508L49.6997 24.2008C50.3497 24.6508 50.5997 24.4008 50.2997 23.7008L46.6996 15.5005C46.3996 14.8005 46.4996 14.7005 46.9996 15.3505L52.3498 22.4507C52.7998 23.0508 53.1498 22.9508 53.0498 22.1507L52.2998 13.2505C52.2498 12.5004 52.3998 12.4504 52.5998 13.2005L55.1998 21.6007C55.4499 22.3507 55.7499 22.3007 55.8999 21.5507L57.3999 12.8505C57.5499 12.1004 57.6999 12.1004 57.7499 12.8505L58.0999 21.7007C58.1499 22.4507 58.4499 22.5507 58.85 21.9007L63.2501 14.2505C63.6501 13.6005 63.7501 13.6505 63.5501 14.4005L61.05 22.8507C60.85 23.6008 61.15 23.7508 61.7 23.2508L68.3502 17.5006C68.9502 17.0006 69.0502 17.1006 68.6002 17.7006L64.7501 23.1008C64.9501 23.1008 65.1501 23.1008 65.3001 23.0008C65.6001 22.8507 65.8002 22.4007 66.1002 22.2507C66.4002 22.1007 66.8502 22.1507 67.1502 22.0007C67.4502 21.8507 67.7002 21.4507 68.0002 21.3507C68.3502 21.2007 68.6502 21.1007 69.0002 21.0007C69.3503 20.8507 69.7003 20.6507 70.0503 20.5507C70.4003 20.4507 70.8003 20.4007 71.1503 20.2507C71.5003 20.1507 71.9003 20.3007 72.2503 20.2007C72.6003 20.1007 72.9004 19.7007 73.2504 19.6007C73.6004 19.5007 74.0004 19.5507 74.3504 19.5007C74.7004 19.4006 75.1004 19.4006 75.4504 19.3506C75.8504 19.2506 76.1505 19.0506 76.5005 19.0006C76.5505 19.0006 76.6505 19.0006 76.7005 19.0006C74.2504 10.8004 66.7002 4.80022 57.6999 4.60022Z" fill="#EA5529"/>
<path d="M54.5998 44.1018V44.0518C54.5998 44.0018 54.5498 44.0018 54.5498 43.9518C54.4498 43.8018 54.2998 43.5518 54.2498 43.2518C54.2498 43.1518 54.1998 43.0018 54.1498 42.8518C54.0998 42.7018 54.0498 42.5018 53.9998 42.3518C53.9498 42.1018 53.9498 41.9018 53.9498 41.7017C53.9498 41.6017 53.9498 41.4517 53.9498 41.4017C53.8998 41.2017 53.8998 41.0517 53.8498 40.8517C53.8498 40.7017 53.7998 40.6017 53.7998 40.5017C53.7998 40.4017 53.7498 40.3017 53.6998 40.2017C53.6498 40.0517 53.5498 39.8517 53.4998 39.6517L53.3998 39.4517L53.1998 38.8017C53.1498 38.7017 53.0998 38.5517 53.0998 38.4517C53.0498 38.3016 52.9998 38.1516 52.9498 37.9516C52.8498 37.6516 52.8498 37.3516 52.8998 37.1516C52.8998 37.1016 52.8998 37.0016 52.8998 37.0016C52.8498 36.9016 52.7998 36.7516 52.7498 36.6016C52.6998 36.4516 52.6498 36.3016 52.5997 36.1516C52.5997 36.1016 52.5497 36.0516 52.4997 36.0016C52.3997 35.8516 52.1997 35.6016 52.0997 35.3516C52.0497 35.2516 51.9997 35.1516 51.9497 35.0516C51.8497 34.9015 51.7997 34.7515 51.6997 34.5515C51.6497 34.4015 51.5997 34.2515 51.4997 34.1015L51.3997 33.6515C51.2497 33.3015 51.2997 32.9515 51.2997 32.7515C51.2997 32.7015 51.2997 32.7015 51.2997 32.6515C51.2497 32.6015 51.1997 32.5015 51.1497 32.4015C51.0497 32.2515 50.9497 32.1015 50.8997 31.9015C50.8997 31.8515 50.7997 31.7515 50.7497 31.6515C50.6497 31.5014 50.4997 31.3014 50.4497 31.1014C50.3497 30.9014 50.2997 30.7514 50.2497 30.5514C50.1997 30.4014 50.1997 30.3014 50.1497 30.2014C50.0997 30.0514 50.0497 29.9014 49.9497 29.7514C49.8997 29.6014 49.8497 29.4514 49.7997 29.3514L49.6497 29.0014C49.5997 28.8514 49.4997 28.6514 49.4497 28.5014C49.3997 28.4514 49.3497 28.3514 49.2997 28.2514C49.1997 28.1014 49.0496 27.9513 48.9496 27.7013C48.8496 27.4513 48.7496 27.2513 48.6996 27.0513C48.6996 27.0013 48.6496 26.9013 48.6496 26.8513C48.5996 26.8513 48.5996 26.8013 48.5496 26.7513C48.3996 26.6013 48.1496 26.4513 47.9996 26.1013C47.8496 25.8013 47.7996 25.5013 47.7496 25.3013C47.7496 25.2513 47.7496 25.1513 47.6996 25.1513C47.5996 24.9513 47.4996 24.7513 47.4496 24.6012C47.3996 24.5012 47.3996 24.4512 47.3496 24.4012C47.2996 24.4012 47.2996 24.3512 47.2496 24.3512C47.0496 24.2012 46.7996 24.0512 46.5996 23.7512C46.4496 23.5512 46.3996 23.3012 46.2996 23.1512C46.2496 23.0512 46.1996 22.9512 46.1996 22.9012C46.1496 22.8512 46.0996 22.7512 45.9996 22.6512C45.8496 22.5012 45.7495 22.3512 45.5995 22.2012C45.4495 22.0012 45.3495 21.7512 45.2995 21.6012C45.2495 21.5012 45.1995 21.4012 45.1995 21.3512C45.0995 21.2011 44.9995 21.0511 44.8995 20.9511C44.7995 20.8011 44.7495 20.7011 44.6495 20.6011C44.5995 20.5511 44.4995 20.5011 44.4495 20.4011C44.2995 20.3011 44.1495 20.1511 43.9995 19.9511L43.7995 19.7011C43.6995 19.5511 43.5495 19.4011 43.4495 19.2511C43.2495 19.0511 43.1495 18.8011 43.0495 18.6511C42.9995 18.6011 42.9495 18.5011 42.9495 18.4511C42.8495 18.3511 42.7495 18.2511 42.6495 18.1511C42.5495 18.0511 42.3995 17.9511 42.2494 17.8011C42.1494 17.701 42.0494 17.551 41.9494 17.451C41.8494 17.301 41.7494 17.201 41.6494 17.101C41.5994 17.051 41.4494 16.951 41.3494 16.851C41.1994 16.751 41.0994 16.651 40.9494 16.501C40.7494 16.301 40.5994 16.101 40.4994 15.901C40.4994 15.851 40.4494 15.851 40.4494 15.801H40.3994C40.1494 15.751 39.7994 15.701 39.4494 15.401C39.3994 15.351 39.3494 15.301 39.2994 15.251C37.8493 18.1511 36.9493 21.2512 36.8993 24.6012C36.6993 35.1016 44.4495 43.8518 54.5998 45.2018C54.5998 45.1518 54.5498 45.0518 54.5498 45.0018C54.4498 44.6518 54.5498 44.3018 54.5998 44.1018Z" fill="#00A161"/>
<path d="M52.799 31.1012C52.849 31.2012 52.899 31.3012 52.949 31.4012C53.049 31.5512 53.149 31.7512 53.249 31.9512C53.399 32.3012 53.349 32.6512 53.349 32.8512C53.349 32.9012 53.349 32.9512 53.349 32.9512L53.449 33.2012C53.499 33.3512 53.599 33.5512 53.649 33.7513C53.6991 33.8513 53.7491 33.9513 53.7991 34.0513C53.8991 34.2013 53.9991 34.4013 54.0491 34.6013C54.0491 34.6513 54.0991 34.7013 54.1491 34.7513C54.2491 34.9013 54.4491 35.1513 54.5491 35.4513C54.5991 35.5513 54.6491 35.7013 54.6991 35.8013C54.7491 35.9513 54.8491 36.1513 54.8991 36.3513C54.9991 36.6513 54.9991 36.9513 54.9991 37.2014C54.9991 37.2514 54.9991 37.3514 54.9991 37.4014C55.0491 37.5014 55.0491 37.6014 55.0991 37.7014C55.1491 37.8514 55.2491 38.0514 55.2991 38.2514L55.4991 38.9514L55.5491 39.1514C55.5491 39.2514 55.5991 39.3514 55.6491 39.4514C55.6991 39.6014 55.7991 39.8014 55.8491 40.0514C55.8991 40.2514 55.9491 40.4514 55.9491 40.6015C55.9491 40.7515 55.9991 40.8515 55.9991 40.9515C56.0491 41.2015 56.0491 41.4515 56.0491 41.6015C56.0491 41.7015 56.0491 41.8015 56.0491 41.9015C56.0991 42.0015 56.0991 42.1515 56.1491 42.2515C56.1991 42.4015 56.2491 42.6015 56.2991 42.8015C56.2991 42.8515 56.3491 42.9015 56.3991 42.9515C56.4991 43.1515 56.6491 43.3515 56.6991 43.7015C56.7491 44.0516 56.6991 44.4016 56.6491 44.6016C56.6491 44.6516 56.6491 44.6516 56.6491 44.7016C56.6491 44.7516 56.6991 44.8516 56.6991 44.9516C56.7491 45.1016 56.7991 45.2516 56.8491 45.4016C56.8991 45.4016 56.9491 45.4016 56.9991 45.4016C63.0493 45.5016 68.4995 43.0015 72.2996 38.9014C65.1494 33.4512 56.4491 31.5512 52.749 30.9512C52.749 31.0012 52.799 31.0512 52.799 31.1012Z" fill="#004EA2"/>
<path d="M77.6009 25.4005C77.6509 23.8505 77.5009 22.3504 77.2009 20.9004C77.0509 20.9004 76.9509 20.9504 76.8009 20.9504C76.4509 21.0004 76.1509 21.2504 75.8009 21.3004C75.4508 21.3504 75.1508 21.4504 74.8008 21.5504C74.4508 21.6504 74.0508 21.6504 73.7508 21.7504C73.4008 21.8504 73.0008 21.8004 72.7008 21.9004C72.3508 22.0004 72.1007 22.2504 71.7507 22.3504C71.4007 22.4504 71.0007 22.5004 70.7007 22.6004C70.3507 22.7004 69.9507 22.7004 69.6507 22.8504C69.3007 23.0005 69.0507 23.2505 68.7506 23.4005C68.4006 23.5505 68.0506 23.6005 67.7006 23.7505C67.3506 23.9005 67.1006 24.2505 66.8006 24.4005C66.5006 24.5505 66.1506 24.7005 65.8506 24.9005C65.5506 25.1005 65.2005 25.2005 64.9005 25.4005C64.6005 25.6005 64.3505 25.9005 64.1005 26.1005C63.8005 26.3505 63.5505 26.6006 63.3005 26.8006C63.0005 27.0506 62.6005 27.1506 62.4005 27.4006C62.1505 27.6006 61.9004 27.7506 61.7004 27.9506L61.1504 28.6006C61.0504 28.9506 61.0504 29.2006 60.9004 29.0006L59.9004 30.6007C64.0505 31.8507 69.0007 33.9508 73.4008 37.3509C75.9509 34.0008 77.5009 29.9007 77.6009 25.4005Z" fill="#F6AB00"/>
</svg>
