<svg width="190" height="50" viewBox="0 0 190 50" fill="none" xmlns="http://www.w3.org/2000/svg">
<rect width="190" height="50" rx="10" fill="white"/>
<path d="M39.9394 25.2355C39.1269 24.625 36.9827 23.9442 34.1324 24.0452C26.8747 24.3043 22.2886 27.0188 21.0762 27.8973C21.6377 31.0202 23.6287 33.6292 26.3216 34.9689C26.7853 34.5165 27.3639 34.0421 28.0914 33.5721C31.2055 31.5605 34.5791 25.868 34.5791 25.868C34.5791 25.868 38.1143 27.0847 36.0128 31.802C35.2895 33.4272 33.8346 34.7844 32.1159 35.7947C36.5956 34.9821 39.999 30.9499 39.999 26.0964C39.999 25.8153 39.9777 25.5298 39.9394 25.2443V25.2355Z" fill="url(#paint0_radial_273_21887)"/>
<path d="M20.9203 26.0135C20.9203 26.0135 20.9288 25.9959 20.9373 25.9871C24.1705 24.0106 31.4835 22.4689 35.8101 22.4689C37.1544 22.4689 38.3158 22.6577 39.3028 22.9257C38.5455 21.0326 37.4054 19.4821 37.1672 19.1219C36.7928 20.0926 35.6824 21.138 34.1382 20.7603C32.5428 20.3693 32.1174 19.5392 29.684 18.3006C28.161 17.5275 26.3061 17.5099 24.9448 18.0502C22.5071 19.8335 20.916 22.7676 20.916 26.0882C20.916 26.0662 20.916 26.0398 20.916 26.0179C20.916 26.0179 20.916 26.0179 20.9203 26.0179V26.0135Z" fill="url(#paint1_radial_273_21887)"/>
<path d="M48.5832 25.3505C48.2641 22.5834 41.4489 20.844 33.0468 21.8718C25.6614 22.7722 19.5907 26.1016 18.3271 28.0562C19.5566 26.8878 23.0664 24.7312 30.1964 24.0021C39.5728 23.0446 46.4093 24.8981 40.7895 29.6243C39.4026 30.7926 38.2625 31.3724 37.4541 31.6579C44.0992 30.3139 48.8597 27.7224 48.5875 25.3549L48.5832 25.3505Z" fill="url(#paint2_linear_273_21887)"/>
<path d="M37.3366 17.3605C37.1026 15.362 35.4137 14.1365 34.7373 13.7412C30.8191 11.4528 24.6845 12.8759 20.0006 17.4834C16.9291 20.5054 15.1508 24.2388 14.8658 27.6209C14.8232 28.1261 15.0742 22.7806 21.2769 18.7836C23.689 17.2287 25.3482 16.9608 27.4796 16.8422C31.5636 16.9915 31.6572 19.0515 34.1161 20.0925C35.7157 20.7689 37.5748 19.3985 37.3366 17.3649V17.3605Z" fill="url(#paint3_linear_273_21887)"/>
<path d="M35.986 26.1669C34.0971 24.4671 31.7445 25.7365 30.1917 28.1918C27.9157 31.7891 24.3422 34.6792 19.5136 34.1785C14.9574 33.7085 14.834 29.303 14.834 29.303C14.9361 31.3586 15.6168 33.221 16.9271 34.6441C20.7388 38.7729 28.7368 38.136 34.5864 32.8125C36.6752 30.9106 37.5005 27.5329 35.986 26.1713V26.1669Z" fill="url(#paint4_linear_273_21887)"/>
<path d="M79.2147 17.7734V18.8583C79.2147 20.9711 78.3468 22.5479 76.6111 23.5889C75.305 24.3839 73.6331 24.8099 71.5996 24.8758V22.8027C73.3949 22.7499 74.769 22.3898 75.722 21.7265C76.509 21.1687 76.9046 20.5055 76.9046 19.7324H71.8038V17.7734H79.2189H79.2147ZM82.0225 24.9373C82.9541 25.7499 83.4178 26.7733 83.4178 28.0032C83.4178 29.233 82.9499 30.2389 82.0225 31.0514C81.1546 31.8201 80.1421 32.2066 78.9807 32.2066C77.8193 32.2066 76.8153 31.8201 75.9559 31.0514C75.0455 30.2389 74.5903 29.2198 74.5903 28.0032C74.5903 26.7865 75.0455 25.7499 75.9559 24.9373C76.8153 24.1775 77.8235 23.7953 78.9807 23.7953C80.1378 23.7953 81.1503 24.1775 82.0225 24.9373ZM77.496 26.4702C77.0408 26.8875 76.8153 27.4014 76.8153 28.0076C76.8153 28.6137 77.0408 29.1188 77.496 29.5493C77.9299 29.9578 78.4361 30.1598 79.0147 30.1598C79.5933 30.1598 80.0996 29.9578 80.5335 29.5493C80.9759 29.132 81.1971 28.6181 81.1971 28.0076C81.1971 27.397 80.9759 26.8743 80.5335 26.4702C80.1081 26.0749 79.6018 25.8773 79.0147 25.8773C78.4276 25.8773 77.9299 26.0749 77.496 26.4702ZM81.7289 18.6607V17.7734H83.9198V24.3092H81.7289V23.2507H79.755V21.4454H81.7289V20.4659H79.755V18.6607H81.7289Z" fill="#231815"/>
<path d="M86.7354 17.7822H88.9305V21.9154H96.8689V17.7734H99.0598V20.1277H100.834V22.1965H99.0598V24.8056H96.8689V23.9798H87.7947C87.433 23.9798 87.1693 23.8963 87.0034 23.7294C86.8247 23.5318 86.7396 23.2024 86.7396 22.7368V17.7778L86.7354 17.7822ZM87.4756 25.5522H99.0598V30.5288C99.0598 30.9899 98.962 31.315 98.7663 31.5126C98.6004 31.6752 98.3409 31.7586 97.9878 31.7586H88.5477C88.186 31.7586 87.9223 31.6752 87.7521 31.5126C87.5649 31.315 87.4713 30.9856 87.4713 30.5288V25.5522H87.4756ZM96.8647 27.5903H89.6367V29.7206H96.8647V27.5903Z" fill="#231815"/>
<path d="M104.062 24.0715V26.6586H108.389V28.7142H102.913C102.56 28.7142 102.301 28.6308 102.135 28.4683C101.956 28.2706 101.871 27.9456 101.871 27.4844V17.7729H107.674V19.8329H104.062V22.1082H107.453V24.0715H104.062ZM108.159 22.0115H109.218V17.7686H111.264V31.7581H109.218V24.1286H108.159V22.0072V22.0115ZM112.09 17.7729H114.191V31.7537H112.09V17.7729Z" fill="#231815"/>
<path d="M126.566 19.789H117.232V17.7686H128.761V28.7494H129.773V30.7698H116.534V28.7494H126.57V24.4054H117.313V22.3849H126.57V19.7846L126.566 19.789Z" fill="#231815"/>
<path d="M144.122 25.0608H139.409V28.7635H144.931V30.784H131.691V28.7635H137.213V25.0608H133.546C133.172 25.0608 132.908 24.9818 132.755 24.8192C132.568 24.626 132.474 24.3009 132.474 23.8485V17.8047H134.695V23.0403H144.118V25.0608H144.122Z" fill="#231815"/>
<path d="M154.176 26.6591H157.405V17.7734H159.595V22.5743H161.369V24.6299H159.595V31.7762H157.405V28.7147H147.182V26.6591H148.194V19.829H147.182V17.7734H155.248V19.829H154.176V26.6591ZM150.236 19.7895V26.4878H152.134V19.7895H150.236Z" fill="#231815"/>
<path d="M171.964 19.789H162.631V17.7686H174.155V28.7494H175.168V30.7698H161.929V28.7494H171.96V24.4054H162.703V22.3849H171.96V19.7846L171.964 19.789Z" fill="#231815"/>
<path d="M56.2654 18.7261C56.2739 19.8769 56.3973 20.707 56.6313 21.2121C56.8057 21.5943 57.061 21.8183 57.3971 21.8842V22.9779C57.0822 22.9515 56.7844 22.8285 56.5122 22.6045C56.1591 22.3234 55.9038 21.9237 55.7464 21.3966C55.5805 21.9149 55.3167 22.319 54.9594 22.6045C54.6829 22.8285 54.3893 22.9559 54.083 22.9779V21.8842C54.4148 21.8139 54.6701 21.5899 54.8488 21.2121C55.0827 20.7026 55.2019 19.8769 55.2104 18.7261H54.1468V17.7686H57.3247V18.7261H56.2612H56.2654ZM59.1881 20.7641H58.7541V24.3043H57.7799V17.7729H58.7541V19.7934H59.1881V17.7729H60.1921V24.3043H59.1881V20.7641Z" fill="#231815"/>
<path d="M62.6221 20.2815H66.4041V17.7734H67.4464V19.1219H68.293V20.0882H67.4464V22.258H66.4041V21.239H62.0775C61.9031 21.239 61.7797 21.1995 61.6989 21.1248C61.6138 21.0325 61.5713 20.8788 61.5713 20.6636V17.7734H65.2597V18.731H62.6221V20.2815ZM61.9244 21.9066H62.9667V23.3209H67.5059V24.2785H62.4349C62.2605 24.2785 62.1371 24.2389 62.0563 24.1643C61.9669 24.072 61.9244 23.9183 61.9244 23.7031V21.9066Z" fill="#231815"/>
<path d="M58.0435 26.3252H59.141V25.293H60.1918V28.5169H59.141V27.2783H58.0435V27.7395C58.0435 27.9547 58.0009 28.1085 57.9116 28.2007C57.8307 28.2754 57.7074 28.3149 57.5329 28.3149H54.8102C54.6358 28.3149 54.5124 28.2754 54.4401 28.2007C54.355 28.1128 54.3125 27.9591 54.3125 27.7439V25.3018H55.3548V25.8903H57.0054V25.3018H58.0477V26.3296L58.0435 26.3252ZM54.6613 28.9474H55.6951V29.4437H59.1538V28.9474H60.1961V31.2138C60.1961 31.429 60.1493 31.5784 60.0557 31.6706C59.9749 31.7453 59.8515 31.7848 59.6856 31.7848H55.1761C55.0017 31.7848 54.8783 31.7497 54.7975 31.6706C54.7081 31.5784 54.6656 31.4247 54.6656 31.2138V28.9474H54.6613ZM55.3505 27.3881H57.0012V26.7864H55.3505V27.3881ZM59.1496 30.3441H55.6909V30.8405H59.1496V30.3441Z" fill="#231815"/>
<path d="M64.6845 25.5305C65.1057 25.8995 65.3141 26.3606 65.3141 26.9229C65.3141 27.4851 65.1014 27.9331 64.6845 28.3021C64.2931 28.6491 63.8337 28.8247 63.3146 28.8247C62.7956 28.8247 62.3234 28.6491 61.932 28.3021C61.5151 27.9331 61.3066 27.4763 61.3066 26.9229C61.3066 26.3694 61.5151 25.8951 61.932 25.5305C62.3234 25.1835 62.7829 25.0078 63.3146 25.0078C63.8464 25.0078 64.2931 25.1835 64.6845 25.5305ZM61.9235 29.4133H62.9658V30.8452H67.505V31.8027H62.4255C62.2511 31.8027 62.132 31.7632 62.0554 31.6885C61.966 31.5963 61.9235 31.4426 61.9235 31.2317V29.4221V29.4133ZM62.6595 26.2684C62.468 26.4485 62.3702 26.6681 62.3702 26.9273C62.3702 27.1864 62.468 27.3972 62.6595 27.5685C62.8424 27.7354 63.0594 27.8233 63.3146 27.8233C63.5529 27.8233 63.7613 27.7398 63.9485 27.5685C64.14 27.3885 64.2378 27.1776 64.2378 26.9273C64.2378 26.6769 64.14 26.4485 63.9485 26.2684C63.7656 26.1015 63.5529 26.018 63.3146 26.018C63.0636 26.018 62.8424 26.1015 62.6595 26.2684ZM66.4032 25.2977H67.4455V29.7691H66.4032V25.2977Z" fill="#231815"/>
<defs>
<radialGradient id="paint0_radial_273_21887" cx="0" cy="0" r="1" gradientUnits="userSpaceOnUse" gradientTransform="translate(30.8694 21.7831) scale(12.4642 12.8689)">
<stop stop-color="white"/>
<stop offset="0.17" stop-color="#FBFBFB"/>
<stop offset="0.34" stop-color="#EFEFEF"/>
<stop offset="0.51" stop-color="#DBDBDB"/>
<stop offset="0.68" stop-color="#C0C0C0"/>
<stop offset="0.84" stop-color="#9D9D9D"/>
<stop offset="1" stop-color="#737373"/>
</radialGradient>
<radialGradient id="paint1_radial_273_21887" cx="0" cy="0" r="1" gradientUnits="userSpaceOnUse" gradientTransform="translate(30.8652 21.7837) scale(12.4657 12.8704)">
<stop stop-color="white"/>
<stop offset="0.17" stop-color="#FBFBFB"/>
<stop offset="0.34" stop-color="#EFEFEF"/>
<stop offset="0.51" stop-color="#DBDBDB"/>
<stop offset="0.68" stop-color="#C0C0C0"/>
<stop offset="0.84" stop-color="#9D9D9D"/>
<stop offset="1" stop-color="#737373"/>
</radialGradient>
<linearGradient id="paint2_linear_273_21887" x1="26.9973" y1="25.4779" x2="46.2074" y2="27.2631" gradientUnits="userSpaceOnUse">
<stop stop-color="#6FBA2C"/>
<stop offset="1" stop-color="#008842"/>
</linearGradient>
<linearGradient id="paint3_linear_273_21887" x1="21.3492" y1="24.5814" x2="32.9873" y2="15.0435" gradientUnits="userSpaceOnUse">
<stop stop-color="#F39800"/>
<stop offset="0.26" stop-color="#E97A06"/>
<stop offset="0.81" stop-color="#D03116"/>
<stop offset="1" stop-color="#C8161D"/>
</linearGradient>
<linearGradient id="paint4_linear_273_21887" x1="21.428" y1="34.1258" x2="31.7562" y2="25.0634" gradientUnits="userSpaceOnUse">
<stop stop-color="#00AFEC"/>
<stop offset="1" stop-color="#0055A2"/>
</linearGradient>
</defs>
</svg>
