<svg width="190" height="50" viewBox="0 0 190 50" fill="none" xmlns="http://www.w3.org/2000/svg">
<rect width="190" height="50" rx="10" fill="white"/>
<path d="M55.9221 44.5981C62.7285 44.5981 68.7134 41.1363 72.2339 35.8555H39.6104C43.1309 41.1363 49.1158 44.5981 55.9221 44.5981Z" fill="#004EA2"/>
<path d="M55.9218 15.3185C60.8505 15.3185 64.8991 19.0151 65.5445 23.7678H75.5194C74.8739 13.4996 66.3073 5.40234 55.9218 5.40234C45.5362 5.40234 37.0282 13.4996 36.3828 23.7678H46.3576C46.9444 19.0151 50.993 15.3185 55.9218 15.3185Z" fill="#004EA2"/>
<path d="M55.9221 28.4622C55.9221 28.4622 55.4527 25.2351 53.047 25.2938H31.9238L32.804 26.5259H53.3991C53.4577 26.4673 54.9833 26.5846 55.9221 28.4622Z" fill="#004EA2"/>
<path d="M55.9216 31.6301C55.9216 31.6301 55.5109 28.6964 52.8705 28.6377H34.3877L35.6786 30.4566H53.5159C53.5746 30.398 55.2762 30.398 55.9216 31.6301Z" fill="#004EA2"/>
<path d="M53.6924 31.9824H36.8525L38.5541 34.3294H55.9808C55.1006 32.2171 53.6924 31.9824 53.6924 31.9824Z" fill="#004EA2"/>
<path d="M58.797 25.2344C56.45 25.2344 55.9219 28.4029 55.9219 28.4029C56.9194 26.5252 58.3862 26.4666 58.3862 26.4666H78.9813L79.8615 25.2344H58.797Z" fill="#004EA2"/>
<path d="M55.9219 31.6301C56.5673 30.4566 58.2689 30.4566 58.2689 30.4566H76.1062L77.3971 28.6377H58.973C56.3326 28.6964 55.9219 31.6301 55.9219 31.6301Z" fill="#004EA2"/>
<path d="M55.9219 34.3294H73.3485L75.0501 31.9824H58.1515C58.1515 31.9824 56.802 32.2171 55.9219 34.3294Z" fill="#004EA2"/>
<path d="M105.972 30.0459H102.862V42.8958H105.972V30.0459Z" fill="black"/>
<path d="M117.884 30.0459L114.833 38.9059L111.84 30.0459H108.085V42.8372H111.195V35.1507L113.953 42.7198H115.713L118.471 35.1507V42.8372H121.639V30.0459H117.884Z" fill="black"/>
<path d="M95.5284 35.5025V37.8495H97.1126V40.3725C94.6482 40.5486 93.7094 40.1378 93.7094 40.1378C92.0665 39.5511 91.3624 38.2602 91.1864 37.5561C91.0104 36.852 90.8343 35.6198 91.3624 34.0943C91.8318 32.6861 93.064 32.0406 94.7656 32.0406H95.059C96.9366 32.0406 96.9366 33.6835 96.9366 33.6835H100.34C100.34 33.6835 100.398 29.5176 95.4697 29.5176H94.7069C90.1889 29.5176 88.37 31.982 87.9592 34.2703C87.4312 36.9694 88.1353 39.7858 89.8368 41.194C91.4798 42.6609 93.7094 42.6022 97.6994 42.6022H99.929C100.222 42.6022 100.398 42.3675 100.398 42.1328V35.5025H95.5284Z" fill="black"/>
<path d="M132.2 30.0459V35.268H126.919V30.0459H123.81V42.8372H126.919V37.615H132.2V42.8372H135.31V30.0459H132.2Z" fill="black"/>
<path d="M158.077 32.3342V30.0459H150.038V42.8372H158.077V40.6075H153.207V37.5564H157.607V35.268H153.207V32.3342H158.077Z" fill="black"/>
<path d="M145.813 42.8372H149.041L144.288 30.0459H140.826L136.073 42.8958H139.3L140.239 40.3141H144.816L145.813 42.8372ZM141.119 38.0258L142.586 34.0358L144.053 38.0258H141.119Z" fill="black"/>
<path d="M158.075 8.86426H154.379V26.7603H158.075V8.86426Z" fill="black"/>
<path d="M147.983 11.4456V9.15723H144.052V11.4456C144.052 17.9586 141.294 19.7188 139.123 20.1882V22.7699C139.123 22.7699 143.465 23.0046 145.988 18.604C148.57 23.0046 152.853 22.7699 152.853 22.7699V20.1882C150.741 19.7188 147.983 17.9586 147.983 11.4456Z" fill="black"/>
<path d="M129.207 8.86426V15.0839H128.033V8.86426H124.571V26.7016H128.033V17.5482H129.207V26.7016H132.669V8.86426H129.207Z" fill="black"/>
<path d="M118.586 12.6191C115.828 12.6191 113.657 14.8488 113.657 17.5479C113.657 20.3056 115.887 22.4766 118.586 22.4766C121.344 22.4766 123.515 20.247 123.515 17.5479C123.573 14.8488 121.344 12.6191 118.586 12.6191ZM118.586 20.0709C117.588 20.0709 116.826 18.9561 116.826 17.5479C116.826 16.1397 117.647 15.0248 118.586 15.0248C119.583 15.0248 120.405 16.1397 120.405 17.5479C120.405 18.9561 119.583 20.0709 118.586 20.0709Z" fill="black"/>
<path d="M120.464 9.62696V8.21875H116.768V9.62696H113.247V12.15H123.809V9.62696H120.464Z" fill="black"/>
<path d="M99.6925 8.86426H87.7227V11.3286H95.1158C95.1158 11.3286 94.9397 15.2599 88.016 16.1987V18.0763C88.016 18.0763 99.6925 17.8416 99.6925 8.86426Z" fill="black"/>
<path d="M105.911 8.86426H102.156V18.135H105.911V8.86426Z" fill="black"/>
<path d="M94.3529 24.2376V21.5972H102.157V24.2376H94.3529ZM90.5977 19.1328V25.2351C90.5977 26.0565 91.3018 26.702 92.1232 26.702H105.912V19.1328H90.5977Z" fill="black"/>
</svg>
