<svg width="190" height="50" viewBox="0 0 190 50" fill="none" xmlns="http://www.w3.org/2000/svg">
<rect width="190" height="50" rx="10" fill="white"/>
<path d="M49.1879 10.9215L55.5295 19.3752V10.9215C55.5295 10.7839 55.6384 10.6748 55.7756 10.6748H58.6625C58.7997 10.6748 58.9086 10.7839 58.9086 10.9215V24.5082C58.9086 24.6457 58.7997 24.7548 58.6625 24.7548H55.8371C55.6431 24.7548 55.4585 24.6647 55.345 24.5082L48.3503 15.1816V24.5082C48.3503 24.6457 48.2414 24.7548 48.1042 24.7548H45.2788C45.0848 24.7548 44.905 24.6647 44.7867 24.5082L37.7872 15.1816V24.5082C37.7872 24.6457 37.6784 24.7548 37.5411 24.7548H34.6543C34.5171 24.7548 34.4082 24.6457 34.4082 24.5082V10.9215C34.4082 10.7839 34.5171 10.6748 34.6543 10.6748H38.1327C38.3267 10.6748 38.5113 10.7649 38.6249 10.9215L44.9665 19.3752V10.9215C44.9665 10.7839 45.0753 10.6748 45.2126 10.6748H48.691C48.8898 10.6748 49.0696 10.7649 49.1879 10.9215Z" fill="#1A325A"/>
<path d="M68.0504 10.4521C64.0514 10.4521 60.8096 13.7018 60.8096 17.7104C60.8096 21.719 64.0514 24.9686 68.0504 24.9686C72.0494 24.9686 75.2911 21.719 75.2911 17.7104C75.2911 13.7065 72.0494 10.4521 68.0504 10.4521ZM68.0504 21.5814C65.9207 21.5814 64.1886 19.8499 64.1886 17.7104C64.1886 15.5756 65.916 13.8393 68.0504 13.8393C70.18 13.8393 71.9121 15.5709 71.9121 17.7104C71.9121 19.8499 70.1847 21.5814 68.0504 21.5814Z" fill="#1A325A"/>
<path d="M96.5474 10.4521C92.5484 10.4521 89.3066 13.7018 89.3066 17.7104C89.3066 21.719 92.5484 24.9686 96.5474 24.9686C100.546 24.9686 103.788 21.719 103.788 17.7104C103.788 13.7065 100.546 10.4521 96.5474 10.4521ZM96.5474 21.5814C94.4178 21.5814 92.6857 19.8499 92.6857 17.7104C92.6857 15.5756 94.4131 13.8393 96.5474 13.8393C98.6771 13.8393 100.409 15.5709 100.409 17.7104C100.409 19.8499 98.6771 21.5814 96.5474 21.5814Z" fill="#1A325A"/>
<path d="M31.9026 24.7557H28.6608C28.623 24.7557 28.5898 24.7225 28.5898 24.6845V10.7421C28.5898 10.7041 28.623 10.6709 28.6608 10.6709H31.9026C31.9405 10.6709 31.9736 10.7041 31.9736 10.7421V24.6798C31.9736 24.7225 31.9405 24.7557 31.9026 24.7557Z" fill="#1A325A"/>
<path d="M120.545 24.7557H117.303C117.266 24.7557 117.232 24.7225 117.232 24.6845V10.7421C117.232 10.7041 117.266 10.6709 117.303 10.6709H120.545C120.583 10.6709 120.616 10.7041 120.616 10.7421V24.6798C120.616 24.7225 120.583 24.7557 120.545 24.7557Z" fill="#1A325A"/>
<path d="M87.9411 15.1863C87.9411 12.6957 85.925 10.6748 83.4405 10.6748H77.4443C77.3071 10.6748 77.1982 10.7839 77.1982 10.9215V24.5082C77.1982 24.6457 77.3071 24.7548 77.4443 24.7548H80.3312C80.4684 24.7548 80.5773 24.6457 80.5773 24.5082V19.7025H83.4357C85.925 19.7025 87.9411 17.6816 87.9411 15.1863ZM82.759 16.9937H80.582V13.3836H82.759C83.7528 13.3836 84.5621 14.1901 84.5621 15.191C84.5621 16.1825 83.7528 16.9937 82.759 16.9937Z" fill="#1A325A"/>
<path d="M114.808 24.5082V22.2927C114.808 22.1552 114.699 22.046 114.562 22.046H109.039V10.9215C109.039 10.7839 108.93 10.6748 108.793 10.6748H105.906C105.769 10.6748 105.66 10.7839 105.66 10.9215V24.5082C105.66 24.6457 105.769 24.7548 105.906 24.7548H114.562C114.695 24.7548 114.808 24.641 114.808 24.5082Z" fill="#1A325A"/>
<path d="M122.432 22.0373C122.333 22.1274 122.323 22.2745 122.404 22.3741C122.91 23.0003 124.756 25.0023 127.747 25.0023C131.291 25.0023 133.203 22.6777 133.203 20.7374C133.203 18.8921 132.541 17.4973 129.611 16.4726C126.682 15.4527 126.303 15.0874 126.303 14.4422C126.303 13.4745 128.253 12.3264 130.525 14.4944C130.624 14.5893 130.775 14.5893 130.875 14.4944L132.574 12.7629C132.659 12.6727 132.668 12.5352 132.593 12.4403C132.19 11.9232 130.771 10.4336 127.728 10.4336C124.041 10.4336 122.938 12.7486 122.938 14.2525C122.938 15.7516 123.653 17.2696 126.27 18.3465C128.887 19.4234 129.668 19.5657 129.696 20.5097C129.725 21.4728 127.955 23.4747 124.524 20.4481C124.429 20.3627 124.287 20.3627 124.192 20.4481L122.432 22.0373Z" fill="#1A325A"/>
<path d="M50.4301 39.0614V35.7739C50.4301 35.7264 50.3922 35.6885 50.3449 35.6885H42.4084C42.3611 35.6885 42.3232 35.7264 42.3232 35.7739V37.7616C42.3232 38.5254 42.9432 39.1468 43.7051 39.1468H50.3449C50.3922 39.1468 50.4301 39.1089 50.4301 39.0614ZM48.9299 37.8707H44.2825C44.0317 37.8707 43.8282 37.6667 43.8282 37.4153V36.9741H48.9299V37.8707Z" fill="#1F95D4"/>
<path d="M43.5165 34.702H47.8231C47.8705 34.702 47.9083 34.6641 47.9083 34.6166V33.5113C47.9083 33.4639 47.8705 33.4259 47.8231 33.4259H44.0892C43.8383 33.4259 43.6348 33.2219 43.6348 32.9705V29.5121C43.6348 29.4647 43.597 29.4268 43.5496 29.4268H42.2151C42.1677 29.4268 42.1299 29.4647 42.1299 29.5121V33.312C42.1346 34.0806 42.7546 34.702 43.5165 34.702Z" fill="#1F95D4"/>
<path d="M48.9065 35.1379H50.2411C50.2884 35.1379 50.3262 35.1 50.3262 35.0525V32.7897H51.1876C51.2349 32.7897 51.2727 32.7517 51.2727 32.7043V31.6227C51.2727 31.5752 51.2349 31.5373 51.1876 31.5373H50.3262V29.4594C50.3262 29.412 50.2884 29.374 50.2411 29.374H48.9065C48.8591 29.374 48.8213 29.412 48.8213 29.4594V35.0573C48.8213 35.1047 48.8591 35.1379 48.9065 35.1379Z" fill="#1F95D4"/>
<path d="M132.139 34.5296H130.966C131.325 33.6377 131.51 32.6083 131.51 31.4745V29.52C131.51 29.4725 131.472 29.4346 131.425 29.4346H123.962C123.914 29.4346 123.876 29.4725 123.876 29.52V30.6395C123.876 30.687 123.914 30.7249 123.962 30.7249H130.01V31.5029C130.01 32.5751 129.792 33.5903 129.357 34.5296H123.45C123.403 34.5296 123.365 34.5675 123.365 34.615V35.7203C123.365 35.7677 123.403 35.8057 123.45 35.8057H127.042V39.1407C127.042 39.1881 127.08 39.2261 127.128 39.2261H128.462C128.51 39.2261 128.547 39.1881 128.547 39.1407V35.8057H132.139C132.187 35.8057 132.225 35.7677 132.225 35.7203V34.615C132.225 34.5675 132.187 34.5296 132.139 34.5296Z" fill="#1A325A"/>
<path d="M118.601 34.5283H109.917C109.87 34.5283 109.832 34.5663 109.832 34.6137V35.7191C109.832 35.7665 109.87 35.8044 109.917 35.8044H118.601C118.649 35.8044 118.687 35.7665 118.687 35.7191V34.6137C118.687 34.5663 118.649 34.5283 118.601 34.5283Z" fill="#1A325A"/>
<path d="M118.198 36.3467H110.319C110.271 36.3467 110.233 36.3846 110.233 36.4321V37.5516C110.233 37.5991 110.271 37.637 110.319 37.637H116.779V39.1171C116.779 39.1646 116.816 39.2025 116.864 39.2025H118.198C118.246 39.2025 118.283 39.1646 118.283 39.1171V36.4321C118.283 36.3846 118.246 36.3467 118.198 36.3467Z" fill="#1A325A"/>
<path d="M118.211 30.5967C118.258 30.5967 118.296 30.5587 118.296 30.5113V29.5151C118.296 29.4676 118.258 29.4297 118.211 29.4297H110.383C110.336 29.4297 110.298 29.4676 110.298 29.5151V33.8843C110.298 33.9317 110.336 33.9696 110.383 33.9696H118.201C118.249 33.9696 118.286 33.9317 118.286 33.8843V32.9023C118.286 32.8548 118.249 32.8169 118.201 32.8169H111.798V32.2761H118.159C118.206 32.2761 118.244 32.2381 118.244 32.1907V31.1992C118.244 31.1517 118.206 31.1138 118.159 31.1138H111.798V30.5872H118.211V30.5967Z" fill="#1A325A"/>
<path d="M105.058 37.9448H101.466V35.3452C101.466 35.2977 101.428 35.2598 101.381 35.2598H100.047C99.9992 35.2598 99.9614 35.2977 99.9614 35.3452V37.9448H96.3694C96.322 37.9448 96.2842 37.9828 96.2842 38.0302V39.1356C96.2842 39.183 96.322 39.221 96.3694 39.221H105.054C105.101 39.221 105.139 39.183 105.139 39.1356V38.0302C105.143 37.9828 105.106 37.9448 105.058 37.9448Z" fill="#1A325A"/>
<path d="M101.352 29.4297H100.065C100.018 29.4297 99.9846 29.4676 99.9846 29.5103V30.0891C99.9846 32.1954 98.7968 33.5664 96.6103 34.0977C96.5725 34.1072 96.5488 34.1404 96.5488 34.1784V35.3454C96.5488 35.3976 96.5961 35.4355 96.6482 35.426C98.6548 35.0465 100.032 33.9839 100.723 32.9876C101.414 33.9839 102.791 35.0465 104.798 35.426C104.85 35.4355 104.897 35.3976 104.897 35.3454V34.1784C104.897 34.1404 104.869 34.1072 104.836 34.0977C102.649 33.5664 101.452 32.1954 101.452 30.0891V29.5103C101.433 29.4676 101.395 29.4297 101.352 29.4297Z" fill="#1A325A"/>
<path d="M91.8165 31.6737H90.9551V29.4536C90.9551 29.4061 90.9173 29.3682 90.87 29.3682H89.5354C89.4881 29.3682 89.4502 29.4061 89.4502 29.4536V35.3266C89.4502 35.374 89.4881 35.412 89.5354 35.412H90.87C90.9173 35.412 90.9551 35.374 90.9551 35.3266V32.9214H91.8165C91.8638 32.9214 91.9016 32.8834 91.9016 32.836V31.7496C91.8969 31.7117 91.8591 31.6737 91.8165 31.6737Z" fill="#1A325A"/>
<path d="M86.9998 35.8633C86.4887 35.8633 86.0391 35.8775 85.67 35.9012C85.3008 35.925 84.9222 35.9771 84.5484 36.053C84.1745 36.1289 83.8669 36.2333 83.6397 36.3614C83.4126 36.4895 83.228 36.665 83.086 36.8832C82.944 37.1015 82.873 37.3719 82.873 37.6802C82.873 37.9791 82.944 38.2447 83.086 38.463C83.228 38.6812 83.4126 38.8567 83.6397 38.9801C83.8669 39.1034 84.1745 39.203 84.5484 39.2742C84.927 39.3453 85.3008 39.3928 85.67 39.4165C86.0344 39.4402 86.484 39.4544 87.0046 39.4544C87.4399 39.4544 87.8185 39.4497 88.1214 39.4355C88.429 39.426 88.7603 39.3975 89.1011 39.3596C89.4418 39.3216 89.7258 39.2552 89.9482 39.1746C90.1706 39.0939 90.3789 38.9848 90.5682 38.8567C90.7527 38.7286 90.89 38.5673 90.9799 38.3728C91.0698 38.1783 91.1171 37.9411 91.1171 37.6802C91.1171 37.3624 91.0461 37.092 90.9042 36.8643C90.7622 36.6413 90.5776 36.461 90.3552 36.3329C90.128 36.2048 89.8251 36.1005 89.4465 36.0341C89.0679 35.9629 88.6941 35.9155 88.3344 35.8965C87.9747 35.8728 87.5251 35.8633 86.9998 35.8633ZM89.5743 37.6612C89.5743 37.9648 89.191 38.074 88.9591 38.1072C88.7509 38.1404 88.1167 38.24 86.9998 38.24C86.2237 38.24 85.5753 38.1973 85.0216 38.1072C84.7945 38.0692 84.4159 37.9648 84.4159 37.6612C84.4159 37.3576 84.8039 37.2485 85.0358 37.2058C85.5895 37.1157 86.2473 37.0682 86.9998 37.0682C87.7428 37.0682 88.4007 37.1157 88.9544 37.2058C89.1863 37.2485 89.5743 37.3576 89.5743 37.6612Z" fill="#1A325A"/>
<path d="M82.8341 35.4345C83.0849 35.4251 83.8563 35.3871 84.8123 35.1641C86.0001 34.889 87.0224 34.2913 87.6423 33.5085C88.1156 32.9108 88.3853 32.1707 88.3853 31.3785V29.5094C88.3853 29.4619 88.3475 29.4287 88.3001 29.4287H82.9429C82.8956 29.4287 82.8577 29.4667 82.8577 29.5094V30.6289C82.8577 30.6764 82.8956 30.7096 82.9429 30.7096H86.8709V31.5398C86.8709 31.981 86.7005 32.555 86.0853 33.1005C85.366 33.741 84.4289 34.092 82.8246 34.1821C82.782 34.1869 82.7441 34.2201 82.7441 34.2628V35.3492C82.7489 35.4013 82.7867 35.4393 82.8341 35.4345Z" fill="#1A325A"/>
<path d="M29.4833 38.9763C29.7105 39.0996 30.0181 39.1993 30.392 39.2704C30.7706 39.3416 31.1444 39.389 31.5136 39.4127C31.878 39.4412 32.3228 39.4507 32.8434 39.4507C33.2788 39.4507 33.6574 39.4459 33.9603 39.4317C34.2679 39.4222 34.5992 39.3938 34.9399 39.3558C35.2807 39.3179 35.5646 39.2514 35.7871 39.1708C36.0095 39.0901 36.2177 38.981 36.407 38.8529C36.5916 38.7249 36.7288 38.5636 36.8188 38.3691C36.9087 38.1746 36.956 37.9374 36.956 37.6764C36.956 37.3586 36.885 37.0882 36.743 36.8605C36.6011 36.6375 36.4165 36.4572 36.1941 36.3292C35.9669 36.2011 35.664 36.0967 35.2854 36.0303C34.9068 35.9591 34.5329 35.9117 34.1733 35.8927C33.8089 35.8737 33.364 35.8643 32.8387 35.8643C32.3276 35.8643 31.878 35.8785 31.5088 35.9022C31.1397 35.9259 30.7611 35.9781 30.3872 36.054C30.0134 36.1299 29.7057 36.2343 29.4786 36.3624C29.2514 36.4905 29.0669 36.666 28.9249 36.8842C28.7829 37.1024 28.7119 37.3728 28.7119 37.6812C28.7119 37.9801 28.7829 38.2457 28.9249 38.4639C29.0716 38.6774 29.2562 38.8529 29.4833 38.9763ZM30.8794 37.2115C31.4331 37.1214 32.0909 37.074 32.8434 37.074C33.5864 37.074 34.2443 37.1214 34.798 37.2115C35.0299 37.2495 35.4179 37.3586 35.4179 37.667C35.4179 37.9706 35.0346 38.0797 34.8027 38.1129C34.5945 38.1461 33.9603 38.2457 32.8434 38.2457C32.0673 38.2457 31.4189 38.203 30.8652 38.1129C30.6381 38.0749 30.2595 37.9706 30.2595 37.667C30.2595 37.3586 30.6475 37.2495 30.8794 37.2115Z" fill="#1F95D4"/>
<path d="M28.6798 35.4368C28.9306 35.4273 29.7067 35.3893 30.658 35.1664C31.8127 34.896 32.8065 34.3267 33.4312 33.5819V34.1939C33.4312 34.2413 33.4691 34.2793 33.5117 34.2793H35.2864V35.3419C35.2864 35.3893 35.3242 35.4273 35.3716 35.4273H36.7062C36.7535 35.4273 36.7913 35.3893 36.7913 35.3419V29.4594C36.7913 29.412 36.7535 29.374 36.7062 29.374H35.3716C35.3242 29.374 35.2864 29.412 35.2864 29.4594V30.4936H34.2263V29.5163C34.2263 29.4689 34.1884 29.4357 34.1411 29.4357H28.7839C28.7366 29.4357 28.7034 29.4736 28.7034 29.5163V30.6359C28.7034 30.6834 28.7413 30.7166 28.7839 30.7166H32.7119V31.5467C32.7119 31.9879 32.5415 32.562 31.9263 33.1075C31.2069 33.7479 30.2699 34.099 28.6703 34.1891C28.6277 34.1939 28.5898 34.2271 28.5898 34.2698V35.3561C28.5946 35.4036 28.6324 35.4415 28.6798 35.4368ZM35.258 33.0031H33.8193C34.0228 32.6236 34.1553 32.2062 34.2074 31.7602H35.258V33.0031Z" fill="#1F95D4"/>
<path d="M63.9135 39.0624V35.7748C63.9135 35.7274 63.8756 35.6895 63.8283 35.6895H55.8918C55.8445 35.6895 55.8066 35.7274 55.8066 35.7748V37.7626C55.8066 38.5263 56.4266 39.1478 57.1885 39.1478H63.8283C63.8756 39.1478 63.9135 39.1098 63.9135 39.0624ZM62.4133 37.8717H57.7659C57.5151 37.8717 57.3116 37.6677 57.3116 37.4162V36.9751H62.4133V37.8717Z" fill="#1F95D4"/>
<path d="M62.4905 35.1806H63.825C63.8724 35.1806 63.9102 35.1427 63.9102 35.0952V29.4594C63.9102 29.412 63.8724 29.374 63.825 29.374H62.4905C62.4431 29.374 62.4053 29.412 62.4053 29.4594V35.1C62.41 35.1427 62.4479 35.1806 62.4905 35.1806Z" fill="#1F95D4"/>
<path d="M60.5712 33.2354C61.0444 32.6377 61.3142 31.8977 61.3142 31.1054V29.5162C61.3142 29.4688 61.2763 29.4355 61.229 29.4355H55.8718C55.8244 29.4355 55.7866 29.4735 55.7866 29.5162V30.6358C55.7866 30.6832 55.8244 30.7164 55.8718 30.7164H59.7998V31.2667C59.7998 31.7079 59.6294 32.2819 59.0142 32.8275C58.2948 33.4679 57.3578 33.819 55.7582 33.9091C55.7156 33.9091 55.6777 33.947 55.6777 33.9897V35.0761C55.6777 35.1235 55.7156 35.1615 55.7629 35.1567C56.0137 35.1473 56.7851 35.1093 57.7411 34.8863C58.929 34.6159 59.9512 34.0182 60.5712 33.2354Z" fill="#1F95D4"/>
<path d="M70.2051 38.2505C70.5363 38.5209 70.9623 38.6774 71.5018 38.6774C72.046 38.6774 72.472 38.5256 72.8032 38.2505C73.4658 37.6812 73.7261 36.7656 73.7261 35.2523C73.7261 33.739 73.4658 32.8234 72.8032 32.2541C72.472 31.9837 72.046 31.8271 71.5018 31.8271C70.9575 31.8271 70.5316 31.979 70.2051 32.2541C69.5425 32.8234 69.2822 33.739 69.2822 35.2523C69.2822 36.7656 69.5425 37.6812 70.2051 38.2505ZM71.1421 33.3452C71.2368 33.2503 71.3693 33.1934 71.5018 33.1934C71.6296 33.1934 71.7668 33.2503 71.8615 33.3452C72.0981 33.6298 72.2306 34.0948 72.2306 35.257C72.2306 36.4288 72.0981 36.8842 71.8615 37.1688C71.7668 37.2637 71.6343 37.3206 71.5018 37.3206C71.374 37.3206 71.2368 37.2637 71.1421 37.1688C70.9055 36.8842 70.773 36.4335 70.773 35.257C70.773 34.09 70.9102 33.6251 71.1421 33.3452Z" fill="#1F95D4"/>
<path d="M73.7137 30.2517H72.2561V29.4594C72.2561 29.412 72.2182 29.374 72.1756 29.374H70.841C70.7937 29.374 70.7558 29.412 70.7558 29.4594V30.2517H69.2982C69.2509 30.2517 69.2178 30.2896 69.2178 30.337V31.4376C69.2178 31.4851 69.2556 31.5183 69.2982 31.5183H73.7137C73.761 31.5183 73.7941 31.4803 73.7941 31.4376V30.337C73.7941 30.2896 73.7563 30.2517 73.7137 30.2517Z" fill="#1F95D4"/>
<path d="M74.5276 39.1418H75.8148C75.8621 39.1418 75.9 39.1039 75.9 39.0564V34.4358H76.8087V39.0564C76.8087 39.1039 76.8465 39.1418 76.8938 39.1418H78.1811C78.2284 39.1418 78.2663 39.1039 78.2663 39.0564V29.4594C78.2663 29.412 78.2284 29.374 78.1811 29.374H76.8938C76.8465 29.374 76.8087 29.412 76.8087 29.4594V33.1028H75.9V29.4594C75.9 29.412 75.8621 29.374 75.8148 29.374H74.5276C74.4802 29.374 74.4424 29.412 74.4424 29.4594V39.0612C74.4424 39.1039 74.4802 39.1418 74.5276 39.1418Z" fill="#1F95D4"/>
<path d="M150.525 45.2418C150.17 45.2228 149.796 45.0947 149.422 44.8575C148.192 44.0795 147.103 42.2056 147.274 41.1477C147.387 40.4551 147.742 39.9096 148.093 39.383C148.315 39.0462 148.518 38.7283 148.656 38.3868C149.195 37.0015 149.796 35.2083 149.659 33.6144C149.65 33.5242 149.645 33.3961 149.64 33.2348C149.612 32.4236 149.55 31.9777 149.474 31.731C149.342 32.1437 149.247 32.5944 149.148 33.0641C148.892 34.2927 148.623 35.5546 147.596 36.475C146.067 37.8507 144.335 37.6894 142.669 37.5329C142.101 37.4807 141.514 37.4285 140.956 37.438C140.819 37.4427 140.748 37.4475 140.705 37.457C140.696 37.4712 140.691 37.4902 140.681 37.5044C140.629 37.6088 140.558 37.7558 140.431 37.9313C140.364 38.0262 140.293 38.1448 140.218 38.2682C139.924 38.7426 139.564 39.3403 138.982 39.4589C138.779 39.5016 138.462 39.4968 138.112 39.2502C136.734 38.2824 137.473 35.7634 137.875 34.881C138.145 34.2833 138.519 33.6903 139.422 33.344C140.236 33.0308 140.875 33.3392 141.391 33.5859C141.656 33.714 141.907 33.8326 142.163 33.8705C142.849 33.9749 143.762 33.8942 144.278 33.344C144.695 32.898 144.652 32.4616 144.538 31.7215C144.501 31.4701 144.458 31.2139 144.444 30.9388C144.43 30.6731 144.633 30.4501 144.898 30.4312C145.173 30.4169 145.39 30.6257 145.404 30.8866C145.419 31.119 145.452 31.3468 145.49 31.5697C145.603 32.3287 145.74 33.1921 144.983 33.9986C144.325 34.7007 143.223 35.0043 142.021 34.8193C141.623 34.7576 141.282 34.5916 140.984 34.4493C140.483 34.2073 140.184 34.0793 139.773 34.2358C139.219 34.4493 138.987 34.7671 138.755 35.2747C138.301 36.2805 138.012 37.993 138.67 38.4579C138.689 38.4722 138.76 38.5149 138.793 38.5101C138.968 38.4722 139.252 38.012 139.404 37.7606C139.493 37.6135 139.579 37.4759 139.659 37.3621C139.744 37.2435 139.792 37.1486 139.829 37.0679C140.057 36.6173 140.307 36.4797 140.946 36.4702C141.557 36.456 142.172 36.5129 142.764 36.5698C144.302 36.7122 145.745 36.845 146.961 35.7539C147.752 35.0423 147.974 33.9796 148.211 32.8601C148.362 32.1485 148.518 31.4084 148.831 30.7538C148.902 30.6067 149.044 30.5023 149.205 30.4834C149.484 30.4501 149.744 30.5213 149.962 30.7063C150.501 31.1712 150.577 32.1912 150.61 33.2016C150.615 33.3345 150.62 33.4483 150.624 33.5242C150.781 35.3222 150.142 37.253 149.56 38.7331C149.394 39.1695 149.143 39.5443 148.907 39.9096C148.604 40.3697 148.315 40.8109 148.234 41.2995C148.145 41.8688 148.94 43.4059 149.948 44.0368C150.596 44.4495 150.918 44.2171 151.027 44.1459C151.088 44.0985 151.088 43.8897 150.719 43.1307C150.658 43.0074 150.601 42.8935 150.563 42.7986C149.995 41.4371 150.629 40.0566 151.088 39.0509C151.306 38.5718 153.246 34.2073 153.488 29.6579C153.502 29.4776 153.762 25.4358 150.336 23.5762C150.213 23.5098 150.123 23.3959 150.094 23.2583C150.066 23.1207 150.099 22.9784 150.18 22.8693L151.571 21.0049L149.29 21.4509C149.101 21.4841 148.911 21.4082 148.802 21.2516L147.487 19.3588L147.184 21.6644C147.16 21.8494 147.028 22.0059 146.853 22.0628L144.671 22.746L146.748 23.7375C146.919 23.8181 147.023 23.9889 147.023 24.1739L147.018 26.4652L148.362 24.9851C148.376 24.9661 148.395 24.9519 148.41 24.9377C148.935 24.4965 149.418 24.4538 149.73 24.4965C150.421 24.5866 150.828 25.1559 150.875 25.2176C151.628 26.0857 150.946 27.2859 150.416 27.8505C147.397 31.0479 143.715 29.3211 143.327 29.1266C141.505 28.4008 140.279 26.8637 139.957 24.9092C139.612 22.7934 140.421 20.5543 142.011 19.2117C142.508 18.7895 143.038 18.41 143.559 18.0447C144.269 17.5371 144.936 17.0532 145.532 16.4792L145.58 16.4318C145.892 16.1329 146.408 15.6348 146.474 15.26C146.526 14.9706 146.394 14.6243 146.256 14.2496C146.181 14.0503 146.11 13.8606 146.062 13.6708C145.792 12.6461 145.428 11.2466 146.635 10.1982C147.35 9.57678 148.324 9.44395 149.247 9.85193C150.241 10.2931 150.923 11.2561 150.942 12.2524C150.956 12.8027 150.795 13.3055 150.639 13.7941C150.577 13.9839 150.516 14.1784 150.464 14.3682C150.449 14.4156 150.217 15.1225 150.535 15.687C150.738 16.0428 151.14 16.2942 151.732 16.4176C151.732 16.4176 152.513 16.5551 153.109 16.0523C153.639 15.6016 153.904 14.7714 153.885 13.5854C153.89 13.4526 154.041 11.2609 154.936 10.0796C154.978 10.0037 155.665 8.9743 158.069 7.89742C158.116 7.87845 160.638 6.88222 160.435 5.30248C160.402 5.03682 160.586 4.79488 160.851 4.76167C161.116 4.72372 161.353 4.91348 161.391 5.1744C161.689 7.50368 158.57 8.73236 158.438 8.7798C156.332 9.72859 155.731 10.611 155.726 10.6204C154.983 11.5977 154.846 13.5807 154.846 13.5949C154.865 15.056 154.486 16.1424 153.72 16.7876C152.764 17.5846 151.585 17.3616 151.543 17.3474C150.658 17.1576 150.042 16.7544 149.692 16.1377C149.162 15.1936 149.526 14.1215 149.545 14.0788C149.583 13.9127 149.654 13.6993 149.721 13.481C149.858 13.0493 149.99 12.6461 149.981 12.2571C149.967 11.6262 149.512 11.0047 148.859 10.7153C148.585 10.592 147.88 10.369 147.264 10.9051C146.564 11.5171 146.701 12.2903 146.995 13.4004C147.037 13.557 147.099 13.7182 147.16 13.8795C147.331 14.335 147.525 14.8473 147.43 15.3976C147.312 16.0807 146.696 16.669 146.252 17.0959L146.204 17.1434C145.556 17.7648 144.827 18.2914 144.122 18.7943C143.62 19.1548 143.104 19.5248 142.636 19.9186C141.297 21.0476 140.62 22.9357 140.913 24.7242C141.178 26.3466 142.196 27.618 143.705 28.211C143.724 28.2205 143.743 28.23 143.762 28.2347C143.895 28.3059 147.066 29.9757 149.721 27.1626C149.725 27.1578 150.525 26.2612 150.113 25.7774C150.028 25.6635 149.834 25.45 149.597 25.4216C149.432 25.4026 149.247 25.4737 149.053 25.6303L146.89 28.007C146.758 28.1541 146.55 28.2063 146.36 28.1351C146.176 28.0592 146.053 27.8837 146.053 27.6797L146.067 24.4443L143.156 23.0543C142.977 22.9689 142.868 22.7839 142.882 22.5847C142.896 22.3854 143.029 22.2194 143.218 22.1577L146.285 21.2042L146.706 17.9688C146.73 17.7696 146.876 17.6083 147.066 17.5656C147.255 17.5181 147.463 17.5893 147.577 17.7553L149.422 20.412L152.622 19.781C152.816 19.7478 153.014 19.8284 153.123 19.9992C153.227 20.17 153.218 20.3882 153.1 20.5448L151.278 22.9784C154.756 25.2318 154.472 29.4966 154.458 29.6864C154.202 34.4066 152.196 38.9181 151.968 39.4162C151.561 40.3128 151.055 41.4229 151.457 42.3954C151.49 42.476 151.538 42.5709 151.59 42.6753C151.874 43.2541 152.404 44.3357 151.58 44.9097C151.249 45.1611 150.894 45.2607 150.525 45.2418Z" fill="#1F95D4"/>
</svg>
