<svg width="190" height="50" viewBox="0 0 190 50" fill="none" xmlns="http://www.w3.org/2000/svg">
<rect width="190" height="50" rx="10" fill="white"/>
<path d="M64.3184 12.7246H67.3158V16.8947L70.4308 12.7246H73.7221L69.9018 17.4821L74.0159 22.9444H71.3711C70.8422 22.9444 70.372 22.7094 70.0194 22.2396L67.3158 18.3044V22.9444H65.4938C64.8473 22.9444 64.3184 22.4158 64.3184 21.7697V12.7246Z" fill="#58595B"/>
<path d="M73.6621 19.1269C73.6621 16.5426 75.4841 15.0742 77.8938 15.0742C80.3035 15.0742 82.1254 16.5426 82.1254 19.1269C82.1254 21.7112 80.3035 23.1796 77.8938 23.1796C75.4841 23.1796 73.6621 21.6525 73.6621 19.1269ZM79.2456 19.1269C79.2456 17.9522 78.8341 16.9537 77.835 16.9537C76.8359 16.9537 76.4244 17.9522 76.4244 19.1269C76.4244 20.3016 76.8359 21.3001 77.835 21.3001C78.8929 21.3001 79.2456 20.2428 79.2456 19.1269Z" fill="#58595B"/>
<path d="M83.0684 12.7246H90.2975V14.6041H86.0658V16.836H90.0624V18.7155H86.0658V21.1823H90.4738V23.0618H84.2438C83.5973 23.0618 83.0684 22.5332 83.0684 21.8872V12.7246Z" fill="#58595B"/>
<path d="M92 12.7246H94.9974V21.0061H98.994V22.9444H93.1755C92.529 22.9444 92 22.4158 92 21.7697V12.7246Z" fill="#58595B"/>
<path d="M99.6998 20.536C100.405 20.9471 101.58 21.2408 102.697 21.1821C103.344 21.1233 104.225 20.8297 104.225 20.0074C104.225 18.0692 99.5234 18.8327 99.5234 15.5436C99.5234 13.0767 101.992 12.4307 104.049 12.4307C105.048 12.4307 105.988 12.6069 106.694 12.8418V14.8388C105.988 14.4864 104.989 14.3689 104.225 14.3689C103.755 14.3689 102.638 14.4864 102.638 15.4261C102.638 16.8945 107.223 16.7183 107.34 19.7725C107.399 22.298 105.224 23.179 102.756 23.179C101.816 23.179 100.581 23.0028 99.641 22.7092V20.536H99.6998Z" fill="#58595B"/>
<path d="M111.16 12.7246H114.686L118.566 23.0031H116.215C115.686 23.0031 115.274 22.7094 115.098 22.1808L114.569 20.7712H110.631L109.808 23.0031H107.34L111.16 12.7246ZM112.629 14.839L111.219 18.8917H113.981L112.629 14.839Z" fill="#58595B"/>
<path d="M69.2015 29.1115C69.4366 29.3464 69.6129 29.6401 69.7305 29.9338C69.848 30.2275 69.9656 30.5799 69.9656 30.9323C69.9656 31.6958 69.6717 32.3419 69.1427 32.8705C68.6138 33.3991 67.9085 33.6928 67.1445 33.6928C66.3804 33.6928 65.6751 33.3991 65.1462 32.8705C64.6172 32.3419 64.3233 31.6958 64.3233 30.9323C64.3233 30.5799 64.3821 30.2275 64.4997 29.9338C64.6172 29.6401 64.7935 29.3464 65.0286 29.1115H63.9707V27.9368H66.2629V26.5859H68.0848V27.9368H70.377V29.1115H69.2015ZM65.2049 36.6882V34.2214H66.9094V36.6882H73.1981V37.8629H66.3804C65.7339 37.8629 65.2049 37.3343 65.2049 36.6882ZM66.2629 32.0482C66.4979 32.4006 66.733 32.5181 67.0857 32.5181C67.3795 32.5181 67.6734 32.3419 67.9085 32.0482C68.1436 31.6958 68.2024 31.3434 68.2024 30.8735C68.2024 30.4037 68.0848 30.0513 67.9085 29.6989C67.6734 29.3464 67.4383 29.229 67.0857 29.229C66.7918 29.229 66.4979 29.4052 66.2629 29.6989C66.0865 30.0513 65.969 30.4037 65.969 30.8735C65.969 31.3434 66.0865 31.6958 66.2629 32.0482ZM72.963 31.5784V34.9849H71.2586V26.9971H72.963V30.2275H74.4323V31.5784H72.963Z" fill="#58595B"/>
<path d="M82.6005 37.8632V34.809H76.1355V33.5756H79.368V31.7548H75.2539V30.5214H82.6593V28.1133H76.1943V26.8799H83.2471C83.8936 26.8799 84.3637 27.4085 84.3637 27.9958V30.5214H85.3629V31.7548H81.19V33.5756H83.2471C83.8936 33.5756 84.3637 34.1042 84.3637 34.6915V37.8045H82.6005V37.8632Z" fill="#58595B"/>
<path d="M103.17 27.7606C103.111 29.2877 102.523 30.2275 101.466 31.1672C100.525 31.9895 99.3497 32.4594 97.8803 32.6356L97.4102 31.4021C98.4681 31.3434 99.3497 31.0497 99.9962 30.5211C100.701 29.9925 101.113 29.2877 101.172 28.1718H97.704V26.9971H103.17V27.7606ZM105.051 37.6867C104.404 38.2153 103.699 38.509 102.817 38.509C101.936 38.509 101.172 38.2153 100.584 37.6867C99.9962 37.1581 99.6435 36.4533 99.6435 35.631C99.6435 34.8087 99.9374 34.1039 100.584 33.5753C101.172 33.0467 101.936 32.753 102.817 32.753C103.111 32.753 103.464 32.8118 103.758 32.8705C104.052 32.9292 104.345 33.0467 104.58 33.2229V26.9971H106.285V29.4639H107.754V30.8148H106.285V33.4578H104.874C105.227 33.6928 105.462 34.0452 105.697 34.3976C105.873 34.8087 105.991 35.2199 105.991 35.631C105.991 36.4533 105.697 37.1581 105.051 37.6867ZM103.816 34.3976C103.523 34.1039 103.17 33.9277 102.817 33.9277C102.406 33.9277 102.112 34.1039 101.818 34.3976C101.524 34.75 101.407 35.1611 101.407 35.631C101.407 36.1009 101.524 36.512 101.818 36.8644C102.112 37.1581 102.406 37.3343 102.817 37.3343C103.229 37.3343 103.523 37.1581 103.816 36.8644C104.11 36.5708 104.228 36.1596 104.228 35.631C104.228 35.1611 104.11 34.75 103.816 34.3976Z" fill="#58595B"/>
<path d="M114.162 28.4067C114.162 30.0513 113.692 31.2259 112.693 32.4594C111.753 33.634 110.518 34.4563 109.049 34.9262L108.344 33.7515C109.578 33.3991 110.577 32.8118 111.282 31.872C112.046 30.9323 112.399 29.8163 112.399 28.2305H108.696V27.0558H114.221V28.4067H114.162ZM115.69 37.8629V26.9971H117.395V37.8629H115.69Z" fill="#58595B"/>
<path d="M124.155 32.1075C123.567 32.6949 122.803 32.9885 121.922 32.9885C121.04 32.9885 120.276 32.6949 119.688 32.1075C119.101 31.5202 118.748 30.7566 118.748 29.8756C118.748 28.9946 119.042 28.2311 119.688 27.6437C120.276 27.0564 121.04 26.7627 121.922 26.7627C122.803 26.7627 123.509 27.0564 124.155 27.6437C124.743 28.2311 125.096 28.9946 125.096 29.8756C125.096 30.7566 124.743 31.5202 124.155 32.1075ZM120.217 36.6888V33.9283H121.922V36.6888H128.093V37.9222H121.393C120.746 37.8635 120.217 37.3349 120.217 36.6888ZM122.921 28.466C122.627 28.1136 122.333 27.9374 121.922 27.9374C121.51 27.9374 121.158 28.1136 120.923 28.466C120.629 28.8771 120.511 29.347 120.511 29.9343C120.511 30.5217 120.629 30.9916 120.923 31.344C121.217 31.6964 121.51 31.8726 121.922 31.8726C122.333 31.8726 122.627 31.6964 122.921 31.344C123.215 30.9916 123.332 30.5217 123.332 29.9343C123.332 29.347 123.215 28.8771 122.921 28.466ZM127.858 31.1678V34.9855H126.153V26.9976H127.858V29.8169H129.327V31.1678H127.858Z" fill="#58595B"/>
<path d="M130.619 33.223L129.914 32.1071C130.619 31.8134 131.207 31.3435 131.618 30.7562C132.089 30.1101 132.324 29.3466 132.324 28.1719H130.325V26.9385H135.968V28.1719H133.969C133.969 29.3466 134.204 30.1101 134.675 30.7562C135.086 31.3435 135.674 31.8134 136.379 32.1071L135.674 33.223C135.027 32.9881 133.44 31.696 133.147 31.1673C132.853 31.7547 131.266 33.0468 130.619 33.223ZM131.325 36.6884V33.9279H133.029V36.6884H139.318V37.9218H132.5C131.854 37.8631 131.325 37.3344 131.325 36.6884ZM135.498 30.6387V29.3466H137.496V26.9972H139.2V34.9851H137.496V30.6387H135.498Z" fill="#58595B"/>
<path d="M153.191 31.7537V28.1709H157.011V26.9375H151.428V31.7537C151.428 32.3998 151.957 32.9284 152.603 32.9284H157.658V31.7537H153.191Z" fill="#58595B"/>
<path d="M154.076 33.9854H152.371V36.6871C152.371 37.3332 152.9 37.8618 153.547 37.8618H160.247V36.6284H154.076V33.9854Z" fill="#58595B"/>
<path d="M160.185 29.7566V26.9961H158.48V31.7536V32.987V34.984H160.185V31.1075H161.654V29.7566H160.185Z" fill="#58595B"/>
<path d="M140.371 32.6935V31.46H143.897V29.5218H145.602V31.46H147.777V28.1709H141.311V26.9375H148.364C149.011 26.9375 149.481 27.4661 149.481 28.0535V31.4013H150.48V32.6347H140.371V32.6935Z" fill="#58595B"/>
<path d="M148.013 34.1032C147.308 33.6334 146.426 33.3984 145.427 33.3984C144.428 33.3984 143.546 33.6334 142.841 34.1032C142.136 34.5731 141.783 35.2192 141.783 35.924C141.783 36.6288 142.136 37.2749 142.841 37.7448C143.546 38.2147 144.428 38.4496 145.427 38.4496C146.426 38.4496 147.308 38.2147 148.013 37.686C148.718 37.1574 149.071 36.5701 149.071 35.8653C149.071 35.2192 148.718 34.5731 148.013 34.1032ZM146.661 37.04C146.309 37.3336 145.897 37.4511 145.427 37.4511C144.898 37.4511 144.487 37.3336 144.134 37.04C143.781 36.7463 143.605 36.3939 143.605 35.9827C143.605 35.5716 143.781 35.2192 144.134 34.9255C144.487 34.6319 144.898 34.5144 145.427 34.5144C145.897 34.5144 146.309 34.6319 146.661 34.9255C147.014 35.2192 147.19 35.5716 147.19 35.9827C147.19 36.3939 147.073 36.7463 146.661 37.04Z" fill="#58595B"/>
<path d="M88.9454 32.7536H86.3594V31.5789H96.4684V32.7536H93.8823H88.9454ZM87.3585 30.8741L86.8883 29.6407C87.9463 29.5232 88.7691 29.1708 89.4744 28.6422C90.1209 28.1136 90.4735 27.4675 90.4735 26.7627H92.2955C92.2955 27.4675 92.6481 28.1136 93.2946 28.6422C93.9411 29.1708 94.8227 29.5232 95.8806 29.6407L95.3517 30.8741C93.5885 30.5804 91.8253 29.4645 91.3551 28.8771C90.9437 29.4645 89.2393 30.5804 87.3585 30.8741Z" fill="#58595B"/>
<path d="M93.9448 34.1042C93.2395 33.6344 92.3579 33.3994 91.3588 33.3994C90.3596 33.3994 89.478 33.6344 88.7728 34.1042C88.0675 34.5741 87.7148 35.2202 87.7148 35.925C87.7148 36.6298 88.0675 37.2759 88.7728 37.7458C89.478 38.2156 90.3596 38.4506 91.3588 38.4506C92.3579 38.4506 93.2395 38.2156 93.9448 37.687C94.6501 37.1584 95.0027 36.5711 95.0027 35.8663C95.0615 35.2202 94.7088 34.5741 93.9448 34.1042ZM92.6518 37.0409C92.2991 37.3346 91.8877 37.4521 91.4176 37.4521C90.8886 37.4521 90.4772 37.3346 90.1245 37.0409C89.7719 36.7473 89.5956 36.3949 89.5956 35.9837C89.5956 35.5726 89.7719 35.2202 90.1245 34.9265C90.4772 34.6328 90.8886 34.5154 91.4176 34.5154C91.8877 34.5154 92.2991 34.6328 92.6518 34.9265C93.0044 35.2202 93.1807 35.5726 93.1807 35.9837C93.1807 36.3949 93.0044 36.7473 92.6518 37.0409Z" fill="#58595B"/>
<path d="M39.5685 39.2139C37.6878 39.2139 35.9246 38.8615 34.3965 38.1566C37.2764 39.4488 40.4501 39.9774 43.33 39.9774C51.5582 39.9774 58.3172 33.223 58.3172 25.0002C58.3172 22.2984 57.6119 19.7141 56.3189 17.5409C56.025 17.071 55.4373 16.8948 54.9671 17.1885L46.2687 22.1809C45.8572 22.4158 45.916 23.0619 46.3274 23.2381C48.3257 24.0017 49.8538 25.47 50.3828 27.2908C50.6179 28.1131 50.7942 28.9354 50.7942 29.7576C50.7942 34.985 45.7985 39.2139 39.5685 39.2139Z" fill="url(#paint0_linear_273_22693)"/>
<path d="M39.5681 39.2132C45.7393 39.2132 50.7938 34.9844 50.7938 29.757C50.7938 28.876 50.6762 28.0537 50.3824 27.2314C50.5587 27.7013 50.6174 28.2299 50.6174 28.7585C50.6174 32.1064 47.3262 34.8082 43.3296 34.8082C41.0962 34.8082 39.0979 33.9859 37.7461 32.635C37.511 32.4001 37.0996 32.4001 36.9233 32.6937L33.3969 36.8639C33.1618 37.1575 33.2206 37.5687 33.5732 37.7449C35.2777 38.6846 37.3347 39.2132 39.5681 39.2132Z" fill="url(#paint1_linear_273_22693)"/>
<path d="M47.0924 10.786C48.9731 10.786 50.7363 11.1384 52.2644 11.8432C49.3258 10.4923 46.2108 10.0225 43.3309 10.0225C35.1027 10.0225 28.3438 16.7182 28.3438 24.9997C28.3438 27.7015 29.049 30.2858 30.342 32.459C30.6359 32.9288 31.2236 33.105 31.6938 32.8114L40.3922 27.819C40.8037 27.584 40.7449 26.9379 40.3335 26.7617C38.3352 25.9982 36.8071 24.5298 36.2781 22.7091C36.043 21.8868 35.8667 21.0645 35.8667 20.2422C35.8667 15.0149 40.8624 10.786 47.0924 10.786Z" fill="url(#paint2_linear_273_22693)"/>
<path d="M47.0909 10.7861C40.861 10.7861 35.8652 15.015 35.8652 20.2424C35.8652 21.1234 35.9828 21.9457 36.2766 22.7679C36.1003 22.2981 35.9828 21.7694 35.9828 21.2408C35.9828 17.893 39.2741 15.1912 43.2706 15.1912C45.504 15.1912 47.5023 16.0135 48.8541 17.3644C49.0892 17.5993 49.5006 17.5993 49.6769 17.3056L53.2033 13.1355C53.4384 12.8418 53.3796 12.4307 53.027 12.2545C51.3813 11.3147 49.2655 10.7861 47.0909 10.7861Z" fill="url(#paint3_linear_273_22693)"/>
<defs>
<linearGradient id="paint0_linear_273_22693" x1="51.0966" y1="37.773" x2="43.1183" y2="23.9451" gradientUnits="userSpaceOnUse">
<stop stop-color="#00C0F3"/>
<stop offset="0.6" stop-color="#0095DA"/>
<stop offset="0.6601" stop-color="#008ED2"/>
<stop offset="0.7673" stop-color="#007DC2"/>
<stop offset="0.9083" stop-color="#0063AB"/>
<stop offset="1" stop-color="#00529C"/>
</linearGradient>
<linearGradient id="paint1_linear_273_22693" x1="49.2902" y1="33.1941" x2="35.2057" y2="33.1941" gradientUnits="userSpaceOnUse">
<stop stop-color="#58595B"/>
<stop offset="0.5" stop-color="#A7A9AC"/>
<stop offset="1" stop-color="#C6C8CA"/>
</linearGradient>
<linearGradient id="paint2_linear_273_22693" x1="36.7474" y1="14.2937" x2="43.417" y2="25.8534" gradientUnits="userSpaceOnUse">
<stop stop-color="#FCAF16"/>
<stop offset="0.6" stop-color="#F36F20"/>
<stop offset="1" stop-color="#EF4122"/>
</linearGradient>
<linearGradient id="paint3_linear_273_22693" x1="37.3436" y1="16.78" x2="51.4281" y2="16.78" gradientUnits="userSpaceOnUse">
<stop stop-color="#58595B"/>
<stop offset="0.5" stop-color="#A7A9AC"/>
<stop offset="1" stop-color="#C6C8CA"/>
</linearGradient>
</defs>
</svg>
