<svg width="190" height="50" viewBox="0 0 190 50" fill="none" xmlns="http://www.w3.org/2000/svg">
<rect width="190" height="50" rx="10" fill="white"/>
<path d="M72.3449 31.2328H70.833V29.8611H73.8955V29.1372C73.8955 28.9848 73.8568 28.9086 73.7792 28.7943C73.7017 28.7181 73.6242 28.68 73.5466 28.68H73.3528V27.9941H75.64C75.64 28.9848 75.64 29.5944 75.64 29.8611H78.7025V31.2328H77.1906C77.3845 31.4995 77.5395 31.8043 77.6558 32.1472C77.7721 32.4902 77.8109 32.8331 77.8109 33.2141C77.8109 34.0904 77.5008 34.8906 76.9193 35.5383C76.3378 36.186 75.6012 36.4908 74.7871 36.4908C73.9731 36.4908 73.2365 36.186 72.655 35.5383C72.0735 34.8906 71.7634 34.1285 71.7634 33.2141C71.7634 32.8331 71.8022 32.4902 71.9185 32.1472C71.996 31.8043 72.1511 31.4995 72.3449 31.2328ZM75.4462 37.5958V40.6058C75.4462 40.682 75.4462 40.7201 75.4849 40.7963C75.5237 40.8344 75.5625 40.8725 75.64 40.8725H81.7263V42.2823H74.9034C74.5545 42.2823 74.2832 42.168 74.0894 41.9775C73.8955 41.787 73.818 41.4441 73.818 41.0249V39.0437C73.818 38.8531 73.7792 38.7007 73.7017 38.5864C73.6242 38.4721 73.4691 38.3959 73.314 38.3959H73.0427V37.6339H75.4462V37.5958ZM73.4303 33.2141C73.4303 33.7094 73.5466 34.1285 73.818 34.5095C74.0894 34.8906 74.3995 35.0811 74.7484 35.0811C75.136 35.0811 75.4462 34.8906 75.6788 34.5095C75.9501 34.1285 76.0664 33.7094 76.0664 33.2141C76.0664 32.7188 75.9501 32.2996 75.6788 31.9186C75.4074 31.5376 75.0973 31.3471 74.7484 31.3471C74.3995 31.3471 74.0894 31.5376 73.818 31.9186C73.5466 32.2996 73.4303 32.7188 73.4303 33.2141ZM81.5712 31.9567H83.3157V33.3665H81.5712V38.3578H79.943V29.5182C79.943 29.3658 79.9043 29.2134 79.8267 29.061C79.7492 28.9086 79.5941 28.8324 79.4391 28.8324H79.1677V28.0703H81.61V31.9567H81.5712Z" fill="#006CB2"/>
<path d="M88.8589 34.9275H83.8193V33.5177H92.3866C92.5417 33.2129 92.658 32.87 92.7355 32.5271C92.7743 32.146 92.8131 31.6507 92.8131 31.0411V30.2409C92.8131 30.1266 92.8131 30.0504 92.7743 30.0123C92.7355 29.9742 92.658 29.9361 92.5417 29.9361H85.0986V28.5264H94.3249C94.3637 28.5264 94.4025 28.5264 94.4025 28.5645C94.4412 28.6026 94.4412 28.6407 94.4412 28.6788V31.1935C94.4412 31.8412 94.4025 32.3365 94.3249 32.6414C94.2474 32.9462 94.1311 33.251 93.976 33.4796H95.6817V34.8894H90.6422V37.2136H94.2086C94.2474 37.2136 94.2862 37.2136 94.2862 37.2517C94.3249 37.2898 94.3249 37.3279 94.3249 37.366V42.3573H92.658V38.7757C92.658 38.7376 92.658 38.6995 92.6192 38.6614C92.5805 38.6233 92.5805 38.6233 92.5417 38.6233H85.3312V37.2136H88.8977V34.9275H88.8589Z" fill="#006CB2"/>
<path d="M103.586 34.4703H108.626V35.842H96.7637V34.4703H101.803V33.5177H98.0042V32.108H99.6324V29.8219H98.0042V28.4121H107.347V29.8219H105.68V32.108H107.347V33.5177H103.586V34.4703ZM98.6244 40.338C98.6244 40.1475 98.5857 39.995 98.5081 39.8807C98.4306 39.7664 98.2755 39.6902 98.1205 39.6902H97.9654V38.9282H105.486V38.09H98.1205V36.7564H106.998C107.037 36.7564 107.075 36.7564 107.075 36.7945C107.114 36.8326 107.114 36.8707 107.114 36.9469V39.9951C107.114 40.0713 107.114 40.1475 107.075 40.2237C107.037 40.2618 106.959 40.2999 106.843 40.2999H100.291V40.9476C100.291 40.9857 100.291 41.0238 100.33 41.0238C100.369 41.0238 100.408 41.0619 100.446 41.0619H107.269V42.4336H99.7487C99.361 42.4336 99.0509 42.3193 98.8958 42.1287C98.7407 41.9382 98.6632 41.5953 98.6632 41.1381V40.338H98.6244ZM104.09 29.86H101.261V32.1461H104.09V29.86Z" fill="#006CB2"/>
<path d="M119.054 36.4517V29.4791C119.054 29.3267 119.016 29.1743 118.938 29.0219C118.861 28.8695 118.705 28.7933 118.55 28.7933H118.279V28.0312H120.683V42.3956H119.093V37.8615C118.822 37.9758 118.55 38.0901 118.202 38.1282C117.853 38.1663 117.426 38.2044 116.883 38.2044H112.077C111.689 38.2044 111.379 38.0901 111.224 37.8996C111.069 37.7091 110.991 37.3662 110.991 36.909V34.3561C110.991 34.1656 110.952 34.0132 110.875 33.8989C110.797 33.7846 110.642 33.7084 110.487 33.7084H110.332V32.9083H115.449V30.3936H110.526V29.0219H116.922C116.961 29.0219 117 29.0219 117.039 29.06C117.077 29.0981 117.077 29.1362 117.077 29.1743V34.0132C117.077 34.0894 117.039 34.1656 117.039 34.2418C117.039 34.318 116.922 34.318 116.806 34.318H112.658V36.8328H117.426C117.814 36.8328 118.163 36.7947 118.434 36.7566C118.628 36.6423 118.861 36.566 119.054 36.4517Z" fill="#006CB2"/>
<path d="M125.178 33.2131V34.2418C125.178 34.3561 125.217 34.4323 125.256 34.4704C125.295 34.5085 125.372 34.5466 125.45 34.5466H129.055V35.9945H125.178C124.635 35.9945 124.248 35.8421 123.976 35.5373C123.705 35.2325 123.589 34.7371 123.589 34.0894V30.3935C123.589 30.203 123.55 30.0506 123.472 29.9363C123.395 29.822 123.24 29.7458 123.085 29.7458H122.813V28.9838H128.59V30.3935H125.256V31.8795H128.047V33.2512H125.178V33.2131ZM133.629 37.4043C133.707 37.4043 133.784 37.4424 133.823 37.4805C133.862 37.5567 133.901 37.5948 133.901 37.7091V42.3956H132.234V38.9664C132.234 38.9283 132.234 38.8902 132.195 38.8521C132.156 38.814 132.156 38.814 132.079 38.814H125.217V37.4043H133.629ZM130.101 31.8414V29.4791C130.101 29.2886 130.063 29.1362 129.985 29.0219C129.908 28.9076 129.753 28.8314 129.559 28.8314H129.404V28.0693H131.652V36.7946H130.101V33.2512H128.667V31.8414H130.101ZM133.901 36.7946H132.35V29.4791C132.35 29.2886 132.311 29.1362 132.234 29.0219C132.156 28.9076 132.001 28.8314 131.807 28.8314H131.652V28.0693H133.862V36.7946H133.901Z" fill="#006CB2"/>
<path d="M144.291 32.5653H145.338V29.4791C145.338 29.2886 145.299 29.1362 145.222 29.0219C145.144 28.9076 144.989 28.8314 144.795 28.8314H144.64V28.0693H146.888V42.4337H145.338V33.9751H144.291V42.3956H142.74V37.8234C142.469 37.9377 142.198 38.0139 141.849 38.052C141.5 38.0901 141.074 38.1282 140.531 38.1282H138.244C137.701 38.1282 137.313 37.9758 137.042 37.671C136.771 37.3662 136.654 36.8708 136.654 36.2231V30.5841C136.654 30.3935 136.615 30.2411 136.538 30.1268C136.46 30.0125 136.305 29.9363 136.15 29.9363H135.879V29.1743H141.422V30.5841H138.244V36.3755C138.244 36.4898 138.282 36.566 138.321 36.6041C138.36 36.6422 138.437 36.6803 138.515 36.6803H141.074C141.461 36.6803 141.81 36.6422 142.043 36.6041C142.314 36.566 142.547 36.4898 142.702 36.3755V29.4791C142.702 29.2886 142.663 29.1362 142.585 29.0219C142.508 28.9076 142.353 28.8314 142.159 28.8314H142.004V28.0693H144.214V32.5653H144.291Z" fill="#006CB2"/>
<path d="M149.986 31.0033C149.986 31.0033 149.482 31.0033 148.513 31.0033V29.6316H151.536V28.9839C151.536 28.8315 151.498 28.7553 151.42 28.641C151.343 28.5648 151.265 28.5267 151.188 28.5267H150.994V27.8408H153.281V29.6316H156.343V31.0033H154.832C154.987 31.27 155.142 31.5367 155.219 31.8796C155.297 32.1844 155.374 32.5273 155.374 32.8703C155.374 33.7466 155.064 34.5086 154.521 35.1564C153.94 35.8041 153.242 36.1089 152.428 36.1089C151.614 36.1089 150.916 35.8041 150.335 35.1564C149.753 34.5086 149.482 33.7847 149.482 32.8703C149.482 32.5273 149.521 32.1844 149.637 31.8796C149.676 31.5367 149.792 31.2319 149.986 31.0033ZM159.018 37.0996C159.096 37.0996 159.173 37.1377 159.212 37.1758C159.251 37.252 159.29 37.2901 159.29 37.4044V42.3957H157.623V38.6617C157.623 38.6236 157.623 38.5855 157.584 38.5474C157.545 38.5093 157.545 38.5093 157.468 38.5093H150.645V37.0996H159.018ZM151.11 32.8322C151.11 33.3275 151.226 33.7466 151.459 34.0895C151.692 34.4705 152.002 34.661 152.389 34.661C152.777 34.661 153.048 34.4705 153.32 34.1276C153.552 33.7847 153.669 33.3656 153.669 32.8703C153.669 32.3749 153.552 31.9558 153.32 31.5748C153.087 31.1938 152.777 31.0414 152.428 31.0414C152.079 31.0414 151.769 31.2319 151.498 31.5748C151.226 31.9177 151.11 32.3368 151.11 32.8322ZM159.251 31.0033H160.995V32.5654H159.251V36.4518H157.623V29.4792C157.623 29.3268 157.584 29.1744 157.506 29.022C157.429 28.8696 157.274 28.7934 157.119 28.7934H156.847V28.0313H159.29V31.0033H159.251Z" fill="#006CB2"/>
<path d="M49.8608 31.0411C50.0546 31.1173 50.2872 31.1554 50.481 31.2316C50.5586 31.2697 50.6749 31.2697 50.7524 31.2697C51.2176 31.3459 51.9154 31.3459 52.7295 31.2697C53.8537 31.1935 55.1717 30.9268 56.2572 30.4315C56.7611 30.241 57.7303 29.8219 58.2343 29.2884C58.273 28.9455 58.1955 28.5645 58.118 28.2216C57.9629 27.6882 57.7303 27.269 57.614 27.0404C57.2651 27.4596 56.5285 28.0692 55.792 28.4121C54.7065 29.0217 53.7762 29.2122 52.7295 29.3646C51.9154 29.5171 51.1013 29.5171 50.3647 29.3265C50.326 29.3265 50.2484 29.2884 50.1709 29.2884C49.0855 28.9074 47.8837 27.9168 47.3798 26.9642C47.2635 26.6975 47.1472 26.3927 47.1084 26.0879C47.3022 27.5739 47.9225 29.5933 49.8608 31.0411Z" fill="#F9B70E"/>
<path d="M62.6146 43.6145C62.6146 43.2716 60.6763 43.0049 58.2341 43.0049C55.8306 43.0049 53.8535 43.2716 53.8535 43.6145C53.8535 43.9574 55.7918 44.2241 58.2341 44.2241C60.6376 44.2241 62.6146 43.9574 62.6146 43.6145Z" fill="#CCD2E2"/>
<path d="M57.2619 37.5563C55.7112 37.2134 53.928 38.3945 53.269 40.1853C52.5324 41.9761 53.2302 43.7669 54.7809 44.1098C56.2927 44.4908 58.076 43.3097 58.7738 41.557C59.4328 39.69 58.735 37.9373 57.2619 37.5563ZM57.5332 41.7094C56.7192 42.9287 55.3624 43.5002 54.5095 43.0049C53.6566 42.5095 53.6566 41.176 54.4707 39.9567C55.3236 38.7756 56.6416 38.2421 57.4557 38.6994C58.3086 39.1947 58.3473 40.5664 57.5332 41.7094Z" fill="#006CB2"/>
<path d="M45.5151 14.3532C45.5926 14.277 45.6702 14.2008 45.7089 14.0484C45.7477 13.9341 45.6702 13.8198 45.5539 13.8198C45.3213 13.7817 45.0887 13.896 44.6235 14.0865C44.2746 14.2389 42.0649 15.1915 41.3284 15.8011C41.2508 15.8773 41.057 15.8773 41.0182 15.8011C40.8244 15.4582 41.0958 14.3151 41.0958 14.0103C41.0958 13.9341 41.0182 13.8579 40.9019 13.9722C40.5918 14.3151 39.1575 16.6774 38.731 17.9348C38.4597 18.1634 37.9945 18.773 37.9169 18.8873C37.8394 19.0016 37.7619 19.0778 37.7231 19.1922C37.6456 19.3065 37.6068 19.4589 37.8394 19.6113C37.9169 19.6494 38.2271 19.878 38.2271 19.9542C38.2271 20.0685 38.1883 20.2971 38.1495 20.4876C38.1108 20.9067 37.9557 22.8499 38.0332 23.612C38.0332 23.7263 38.0332 23.8025 38.1108 23.8025C38.1883 23.8025 38.2658 23.4977 38.3821 23.3071C38.731 22.5832 39.1575 21.4021 39.4676 20.9448C39.5451 20.8686 39.5839 20.8686 39.6226 20.9067C40.1266 21.364 40.9407 22.1641 41.5222 22.6594C42.0649 23.1166 42.4913 23.5358 42.8402 23.7644C43.1504 24.0311 43.6931 24.374 43.9644 24.4883C44.2746 24.6026 44.3909 24.1073 44.197 23.8025C43.9644 23.4977 43.0728 22.2403 42.6076 21.5164C42.1037 20.7162 41.5997 19.5351 41.3284 18.8111C41.2896 18.6968 41.2896 18.6206 41.2896 18.5063C41.3671 17.8205 43.8094 15.4582 45.5151 14.3532Z" fill="#C4C700"/>
<path d="M62.7716 18.1238C62.6553 17.7809 62.4614 17.4761 62.3064 17.1712C61.376 15.6853 59.9029 14.6946 58.0421 14.3136C55.8324 13.8564 53.4677 14.3517 51.3356 15.4948C49.4361 16.5997 47.7691 18.2 46.5674 20.067C46.3735 20.4099 46.1797 20.7528 46.0634 21.0957C45.5207 22.315 45.2881 23.5342 45.2881 24.7154C45.2881 26.2014 45.8696 27.9159 46.5286 28.7542C47.3039 29.7448 48.4669 30.5831 49.8625 31.0403C47.9242 29.5924 47.3039 27.573 47.1489 26.0871C47.0713 25.7822 47.0713 25.4774 47.0713 25.1345C47.0713 24.9821 47.0713 24.8297 47.1101 24.6773C47.2264 23.2294 47.9242 21.6291 49.1259 20.1813C51.0642 17.7809 53.8554 16.2949 56.3364 16.1044C56.4139 16.1044 56.5302 16.1044 56.6078 16.1044C57.8095 15.9901 61.1046 15.9901 62.8103 18.2C62.7716 18.1619 62.7716 18.1238 62.7716 18.1238Z" fill="#F0830D"/>
<path d="M63.2306 19.916C63.153 19.3064 62.998 18.7349 62.8041 18.1633C61.0984 15.9534 57.8033 15.9534 56.6016 16.0677C57.1831 16.0296 57.7645 16.1058 58.3073 16.2582C58.6174 16.3344 58.9275 16.4487 59.2377 16.6012C60.3231 17.1346 61.0597 18.0109 61.3698 19.154C61.4861 19.535 61.5249 19.9541 61.5249 20.4113C61.5249 20.6018 61.5249 20.7924 61.4861 20.9829V21.021C61.331 22.4307 60.672 23.9548 59.5478 25.3646C59.3927 25.5551 58.4236 26.66 57.8421 27.0029C58.1134 27.3078 58.346 27.6888 58.5011 28.1079C58.6174 28.4127 58.7337 28.7556 58.85 29.0604C60.0517 28.146 61.835 26.2028 62.494 24.4882C62.9592 23.3071 63.2693 22.1259 63.3081 21.021C63.3081 20.9448 63.3081 20.9067 63.3081 20.8305C63.2693 20.4875 63.2693 20.1827 63.2306 19.916Z" fill="#F9B70E"/>
<path d="M47.2668 32.4506C47.2668 32.2601 47.3056 32.0696 47.3443 31.841C47.4219 31.2694 47.6157 30.6598 47.9258 30.0883V30.0502C47.5382 29.7835 47.1893 29.4787 46.8791 29.1357C46.8404 29.2119 46.8016 29.3262 46.7628 29.4025C46.6853 29.5168 46.6465 29.6692 46.569 29.8597C46.3364 30.4693 46.1813 31.2694 46.1426 32.1458C46.1426 32.222 46.1426 32.2982 46.1426 32.4125C46.1426 32.4506 46.1426 32.5268 46.1426 32.5649C46.1426 33.4412 46.4915 34.2795 46.9567 35.0034C47.1893 35.3844 47.4994 35.6892 47.8483 35.9941C47.732 35.8036 47.6545 35.5749 47.5769 35.3463C47.5769 35.3463 47.5769 35.3082 47.5382 35.3082C47.5382 35.3082 47.5382 35.3463 47.5769 35.3463C47.2668 34.4319 47.228 33.4031 47.3056 32.603C47.2668 32.5268 47.2668 32.4887 47.2668 32.4506Z" fill="#006CB2"/>
<path d="M58.8468 27.6116C58.1102 25.7446 56.1331 25.0587 55.2803 24.8682C54.5825 24.7158 53.8847 24.6777 53.2645 24.7539C52.8768 24.792 52.4891 24.8682 52.1015 24.9444C50.1632 25.4398 48.7288 26.6209 48.1473 27.3067C48.0698 27.3829 47.9923 27.4973 47.876 27.6116C48.1861 27.9545 48.535 28.2974 48.9227 28.6022C49.039 28.4498 49.1553 28.3355 49.2328 28.2593C50.2407 27.2305 51.2486 26.6209 52.1015 26.2399C52.8768 25.897 53.6133 25.7827 54.2336 25.7827C54.2724 25.7827 54.3111 25.7827 54.3887 25.7827C55.0865 25.7446 57.2961 25.8589 58.8855 27.6878C58.8468 27.6497 58.8468 27.6497 58.8468 27.6116Z" fill="#006CB2"/>
<path d="M58.8942 27.6873C57.3436 25.8584 55.1339 25.7822 54.3973 25.7822C55.8704 25.8584 56.8008 26.6205 57.0334 26.811C57.6537 27.4206 58.0026 28.2588 58.0026 29.2114C58.0026 29.8972 57.6537 31.307 56.5295 32.9073C54.9401 34.9267 52.459 36.0697 50.4432 35.9173C50.5207 34.4313 50.637 33.4407 50.637 33.4026C50.7146 32.8692 50.3269 32.3738 49.7842 32.2976C49.2415 32.2214 48.815 32.6024 48.66 33.1359C48.6212 33.2121 48.3886 33.8598 48.0785 34.9267C47.5358 34.3551 47.2256 33.5931 47.2256 32.7167C47.2256 32.6786 47.2256 32.6405 47.2256 32.6024C47.1869 33.4026 47.2256 34.4313 47.497 35.3458C47.497 35.3458 47.497 35.3458 47.497 35.3839C47.497 35.3839 47.497 35.3839 47.497 35.3458C47.5745 35.5744 47.652 35.7649 47.7683 35.9935C47.7683 35.9935 47.7683 35.9935 47.8071 36.0316C47.3419 38.1272 47.0318 41.1372 47.8459 44.033C48.0009 44.5664 49.4353 44.6426 49.978 44.4902C50.5207 44.3378 51.3348 44.033 51.1798 43.4995C50.5595 41.2515 50.4044 38.8892 50.4044 37.0222C53.5445 37.4033 57.2273 35.3077 58.5453 32.1833C58.9717 31.2308 59.088 30.7736 59.1656 29.44C59.1656 28.7923 59.088 28.1826 58.8942 27.6873Z" fill="#0096DA"/>
<path d="M42.3774 45.2531L42.0673 45.1007L42.4937 44.11L41.5634 44.9101L41.292 44.7958L42.2224 43.9576L42.1448 42.5859L42.4937 42.7383L42.5325 44.0338L42.9977 42.9289L43.3078 43.0432L42.3774 45.2531Z" fill="#0064AB"/>
<path d="M38.07 42.3188C37.8761 42.5855 37.6048 42.7379 37.2559 42.4712C36.907 42.2045 36.9458 41.9759 37.1396 41.6711L37.8761 40.7185C38.07 40.4518 38.3413 40.2994 38.729 40.5661C39.0779 40.8328 39.0391 41.0614 38.8065 41.3663L38.07 42.3188ZM38.5352 41.1376C38.6515 40.9852 38.6515 40.8328 38.5352 40.7566C38.4189 40.6804 38.2638 40.7185 38.1475 40.8709L37.4109 41.8616C37.2559 42.0521 37.2559 42.1664 37.4109 42.2807C37.5272 42.3569 37.6435 42.3188 37.7986 42.1283L38.5352 41.1376Z" fill="#0064AB"/>
<path d="M33.771 39.2714L33.4609 38.8904C33.1508 38.5094 33.2283 38.3951 33.616 38.0903C33.8486 37.8998 34.0036 37.8236 34.2362 37.976C34.1199 37.7855 34.1587 37.6712 34.3137 37.5188L34.7402 37.2139C34.8177 37.1758 34.8952 37.0996 34.9728 37.0234L35.1666 37.2521C35.1278 37.3283 35.0891 37.3664 35.0115 37.4045L34.5851 37.7474C34.3913 37.8998 34.3913 37.9379 34.5076 38.1284L34.5851 38.2046L35.3992 37.5569L35.593 37.8236L33.771 39.2714ZM34.3913 38.3189L34.3137 38.2808C34.1587 38.0903 34.0812 38.0903 33.8098 38.3189C33.5384 38.5475 33.4997 38.5856 33.6547 38.738L33.771 38.8523L34.3913 38.3189Z" fill="#0064AB"/>
<path d="M30.8281 34.8894L30.4404 34.0893L30.7118 33.975L30.9444 34.4703L31.6422 34.1655L31.4096 33.6702L31.6809 33.5559L31.8748 34.0512L32.6501 33.7083L32.3787 33.1749L32.6501 33.0605L33.0378 33.8607L30.8281 34.8894Z" fill="#0064AB"/>
<path d="M29.0795 29.7837L29.002 29.4027L31.2891 28.4883L31.3279 28.7931L30.7464 29.0217L30.8627 29.517H31.483L31.5605 29.8218L29.0795 29.7837ZM30.5526 29.517L30.4751 29.136L29.3896 29.5551L30.5526 29.517Z" fill="#0064AB"/>
<path d="M29.043 21.6674L29.1593 21.134C29.2756 20.7149 29.3919 20.6387 29.9346 20.753C30.4773 20.8673 30.5936 20.9816 30.4773 21.4007L30.4385 21.5912L31.4465 21.8199L31.3689 22.1247L29.043 21.6674ZM30.1672 21.5912L30.206 21.4388C30.2447 21.2102 30.206 21.1721 29.8571 21.0959C29.5082 21.0197 29.4694 21.0197 29.4306 21.2483L29.3919 21.4388L30.1672 21.5912Z" fill="#0064AB"/>
<path d="M31.212 17.0205C30.9018 16.8681 30.708 16.6395 30.9018 16.2585C31.0957 15.8774 31.367 15.8393 31.6771 16.0298L32.8014 16.5633C33.1115 16.7157 33.3053 16.9443 33.1115 17.3253C32.9177 17.7063 32.6463 17.7063 32.3362 17.5539L31.212 17.0205ZM32.4912 17.2872C32.6851 17.3634 32.8014 17.3253 32.8789 17.211C32.9564 17.0967 32.8789 16.9443 32.6851 16.8681L31.5608 16.2966C31.367 16.1822 31.212 16.2204 31.1344 16.3347C31.0569 16.449 31.1344 16.6014 31.3283 16.6776L32.4912 17.2872Z" fill="#0064AB"/>
<path d="M33.541 12.3341L33.7348 12.0674L35.363 13.439L35.7119 13.0199L35.9445 13.2104L35.363 13.8582L33.541 12.3341Z" fill="#0064AB"/>
<path d="M36.793 9.17218L37.0643 8.98167L37.9172 9.5913L37.5683 8.60065L37.8009 8.44824L38.2661 9.81991L38.8476 10.62L38.5762 10.8106L37.9947 10.0104L36.793 9.17218Z" fill="#0064AB"/>
<path d="M41.3721 6.46599L42.4188 6.04688L42.4963 6.31359L42.1474 6.46599L42.9615 8.40918L42.6514 8.52349L41.8373 6.5803L41.4496 6.73271L41.3721 6.46599Z" fill="#0064AB"/>
<path d="M46.3652 4.97954L47.2569 4.86523L47.3344 5.13195L46.7529 5.20815L46.8692 5.93208L47.4119 5.85588L47.4507 6.12259L46.908 6.1988L47.0243 6.99893L47.6057 6.92273L47.6445 7.18944L46.7529 7.34185L46.3652 4.97954Z" fill="#0064AB"/>
<path d="M51.33 5.32223C51.33 4.97931 51.4851 4.7126 51.9503 4.7507C52.2604 4.7888 52.4155 4.94121 52.3767 5.20792L52.3379 5.43653L52.0278 5.39843V5.24602C52.0278 5.09362 51.989 4.97931 51.8727 4.97931C51.7177 4.97931 51.6402 5.09362 51.6402 5.36033L51.5239 6.50338C51.4851 6.77009 51.6014 6.8463 51.6789 6.8463C51.7952 6.8463 51.8727 6.77009 51.9115 6.57959V6.42718L52.2604 6.50338L52.2216 6.77009C52.1829 7.03681 52.0666 7.18921 51.6789 7.15111C51.2525 7.11301 51.1362 6.8844 51.175 6.50338L51.33 5.32223Z" fill="#0064AB"/>
<path d="M56.4811 5.66504L56.7912 5.77934L56.4423 6.73189L56.8687 6.8843L57.2176 5.93175L57.5278 6.04606L56.7137 8.25596L56.4035 8.17976L56.7524 7.15101L56.3648 6.9986L55.9771 8.02735L55.667 7.91304L56.4811 5.66504Z" fill="#0064AB"/>
<path d="M61.3304 7.87598L61.7181 8.14269L60.9428 9.97157V10.0097L62.0282 8.3332L62.2996 8.52371L60.9815 10.505L60.5551 10.2383L61.3692 8.3332L60.245 10.0097L59.9736 9.85727L61.3304 7.87598Z" fill="#0064AB"/>
<path d="M65.4815 11.2285L65.7141 11.4571L63.9308 13.0955L63.6982 12.8288L65.4815 11.2285Z" fill="#0064AB"/>
<path d="M67.6846 15.0389C67.9947 14.8865 68.3048 14.8103 68.4987 15.1913C68.6537 15.4581 68.5762 15.6867 68.3436 15.801L68.1498 15.9153L67.9947 15.6486L68.1498 15.5724C68.2661 15.4962 68.3436 15.4199 68.2661 15.2675C68.1885 15.1151 68.0722 15.1532 67.8009 15.3056L66.793 15.8772C66.5604 16.0296 66.5604 16.1058 66.5991 16.2201C66.6767 16.3344 66.793 16.3344 66.948 16.2582L67.1031 16.182L67.2582 16.4487L67.0256 16.563C66.793 16.6773 66.5991 16.6773 66.4053 16.3725C66.2115 16.0296 66.3278 15.801 66.6379 15.6105L67.6846 15.0389Z" fill="#0064AB"/>
<path d="M68.6927 19.8394L68.7702 20.1442L68.5764 20.1823C68.4213 20.2204 68.3438 20.2966 68.3826 20.4491C68.4213 20.6015 68.5764 20.6396 68.6927 20.5634C68.8865 20.5253 68.9641 20.4872 69.1967 20.068C69.3517 19.8013 69.468 19.5727 69.7781 19.4965C70.1658 19.3822 70.3596 19.5346 70.4759 19.8775C70.5147 20.0299 70.5147 20.1823 70.4372 20.2966C70.3984 20.3729 70.3209 20.411 70.1658 20.4872L69.9332 20.5634L69.8557 20.2585L70.0495 20.2204C70.1658 20.1823 70.2433 20.1061 70.2046 19.9918C70.1658 19.8775 70.0883 19.8394 69.8944 19.8775C69.7394 19.9156 69.6618 19.9918 69.4293 20.3729C69.1967 20.792 69.0804 20.8682 68.809 20.9444C68.4601 21.0587 68.1887 20.9825 68.0724 20.6015C67.9949 20.2966 68.0724 20.068 68.3438 19.9918L68.6927 19.8394Z" fill="#0064AB"/>
</svg>
