<svg width="190" height="50" viewBox="0 0 190 50" fill="none" xmlns="http://www.w3.org/2000/svg">
<rect width="190" height="50" rx="10" fill="white"/>
<path d="M96.657 26.7873H101.332V31.2435H99.6489V28.1109H90.3459V26.7873H94.974V25.0224H89.6914V23.6988H99.0879C99.0879 23.6988 99.1346 23.6105 99.1814 23.5223C99.2281 23.4341 99.2749 23.3017 99.3216 23.1252C99.3684 22.9046 99.4151 22.7281 99.4151 22.5958C99.4151 22.4634 99.4151 22.2428 99.4151 22.0663V20.4779H90.2991V19.1543H101.145V20.8309C101.145 21.0515 101.145 21.1839 101.145 21.581C101.145 21.9339 101.098 22.2869 101.051 22.5516C101.005 22.9046 100.958 23.1693 100.864 23.3458C100.818 23.5223 100.771 23.6547 100.724 23.6547H101.94V24.9783H96.6102L96.657 26.7873Z" fill="#353536"/>
<path d="M112.83 24.5804C112.503 24.4039 112.035 24.0951 111.521 23.698C111.007 23.3009 110.68 22.9038 110.399 22.4626C110.119 22.0214 109.978 21.4919 109.978 20.9183V20.3889H112.783V19.1094H105.444V20.3889H108.249V20.8742C108.249 21.4919 108.108 22.0214 107.828 22.4185C107.547 22.8597 107.22 23.2568 106.706 23.6539C106.145 24.0951 105.724 24.3598 105.397 24.5363C105.07 24.7128 104.883 24.801 104.883 24.801L105.35 26.0364C105.35 26.0364 105.491 25.9923 105.818 25.8599C106.098 25.7717 106.426 25.5952 106.753 25.3746C107.454 24.9334 108.015 24.4922 108.436 24.0951C108.856 23.698 109.09 23.4333 109.09 23.4333C109.09 23.4774 109.371 23.698 109.745 24.0951C110.165 24.4922 110.68 24.9334 111.428 25.3746C111.755 25.5952 112.082 25.7276 112.363 25.8599C112.643 25.9482 112.783 26.0364 112.83 26.0364L113.298 24.801C113.344 24.8451 113.157 24.7569 112.83 24.5804Z" fill="#353536"/>
<path d="M119.988 20.5658H125.224V23.3455C125.224 24.4485 124.756 25.8163 124.195 26.434C123.634 27.0517 122.933 27.5811 122.232 27.9782C121.577 28.3753 121.016 28.5959 120.549 28.7283C120.081 28.8606 119.894 28.9048 119.848 28.9048L120.315 30.1843C120.362 30.1843 120.736 30.0519 121.25 29.8754C121.764 29.6989 122.325 29.4783 122.886 29.2136C124.055 28.64 125.037 27.89 125.785 26.9634C126.533 26.0369 126.813 24.5809 126.813 23.1249V19.2422H119.894V20.5658H119.988Z" fill="#353536"/>
<path d="M160.797 24.8015V26.1251H155.421V31.1991H153.738V26.1251H148.408V24.8015H157.758C157.758 24.8015 157.805 24.6691 157.898 24.4926C157.992 24.3161 158.038 24.0955 158.085 23.8749C158.132 23.6543 158.132 23.4337 158.132 23.2131C158.132 22.9925 158.132 22.7278 158.132 22.463V20.5658H149.203V19.2422H159.815V21.6689C159.815 22.0218 159.815 22.3307 159.815 22.6836C159.815 22.9925 159.815 23.3013 159.721 23.6102C159.675 23.919 159.581 24.1838 159.534 24.4485C159.441 24.7132 159.394 24.8456 159.394 24.8456L160.797 24.8015Z" fill="#353536"/>
<path d="M170.102 19.5073C169.401 19.1103 168.559 18.8896 167.624 18.8896C165.474 18.8896 163.697 20.1692 163.697 21.7134C163.697 23.2577 165.474 24.5372 167.624 24.5372C169.775 24.5372 171.551 23.2577 171.551 21.7134C171.551 20.7869 170.99 20.0368 170.102 19.5073ZM167.624 23.39C166.409 23.39 165.427 22.64 165.427 21.7134C165.427 20.7869 166.409 20.0368 167.624 20.0368C168.84 20.0368 169.821 20.7869 169.821 21.7134C169.821 22.5958 168.84 23.39 167.624 23.39Z" fill="#353536"/>
<path d="M130.964 19.0207L129.281 19.0225L129.295 31.1999L130.978 31.1982L130.964 19.0207Z" fill="#353536"/>
<path d="M143.923 19.0222V20.7429H141.305C141.071 20.3458 140.744 19.9929 140.417 19.684C139.762 19.1546 138.921 18.8457 137.986 18.8457C135.882 18.8457 134.152 20.5223 134.152 22.5519C134.152 24.5815 135.882 26.2581 137.986 26.2581C139.108 26.2581 140.183 25.7727 140.884 24.9786H143.923V27.7582H145.606V19.0222H143.923ZM137.986 24.8903C136.817 24.8903 135.835 23.8314 135.835 22.5519C135.835 21.2724 136.77 20.2135 137.939 20.2135C139.108 20.2135 140.089 21.2724 140.089 22.5519C140.136 23.8755 139.154 24.8903 137.986 24.8903ZM143.923 23.6549H141.632C141.772 23.302 141.819 22.949 141.819 22.5519C141.819 22.3754 141.819 22.1989 141.772 22.0666H143.923V23.6549Z" fill="#353536"/>
<path d="M86.1361 19.0215H84.4531V27.8016H86.1361V23.566H87.5385V22.2423H86.1361V19.0215Z" fill="#353536"/>
<path d="M173.183 18.9775V26.787H170.238V28.1106H173.183V28.9048H174.913V18.9775H173.183Z" fill="#353536"/>
<path d="M166.779 28.0664H168.509V26.2574L172.295 26.2133V24.8896L163.039 24.9338V26.2574H166.779V28.0664Z" fill="#353536"/>
<path d="M114.886 27.7575H116.569V19.0215H114.886V21.4923H112.549V22.8159H114.886V27.7575Z" fill="#353536"/>
<path d="M77.6322 27.3164H75.9492V31.2432H86.2339V29.9196H77.6322V27.3164Z" fill="#353536"/>
<path d="M108.113 27.3164H106.383V31.2432H116.714V29.9196H108.113V27.3164Z" fill="#353536"/>
<path d="M137.05 27.3164H135.367V31.2432H145.652V29.9196H137.05V27.3164Z" fill="#353536"/>
<path d="M166.081 27.2725H164.398V31.1993H174.87V29.8756H166.081V27.2725Z" fill="#353536"/>
<path d="M75.1052 23.3015C75.1052 24.934 76.7882 26.2576 78.8919 26.2576C80.9956 26.2576 82.6785 24.934 82.6785 23.3015C82.6785 22.375 82.1175 21.5367 81.276 21.0072C81.1826 20.9631 81.0891 20.8748 80.9956 20.8307H82.772V19.5071H79.7333V18.7129H78.0504V19.5071H75.0117V20.8307H76.7882C75.7597 21.3602 75.1052 22.2867 75.1052 23.3015ZM78.8919 21.3602C80.0606 21.3602 80.9956 22.1985 80.9956 23.2574C80.9956 24.2722 80.0606 25.1546 78.8919 25.1546C77.7231 25.1546 76.7882 24.3163 76.7882 23.2574C76.7882 22.1985 77.7231 21.3602 78.8919 21.3602Z" fill="#353536"/>
<path d="M20.3646 18.2275C19.3362 18.2275 19.0089 19.1541 19.0089 19.1982L15.082 31.7728H18.4947L22.7021 18.2275H20.3646Z" fill="#006BAE"/>
<path d="M66.642 18.2275C65.6603 18.2275 65.333 19.1541 65.2863 19.1982L61.3594 31.7728H63.7436C64.772 31.7728 65.0993 30.8021 65.0993 30.8021L69.0262 18.2275H66.642Z" fill="#006BAE"/>
<path d="M24.2428 24.934C24.0091 24.6251 24.2896 24.4045 24.2896 24.3604L31.7693 18.2275H29.0112L21.4379 24.4486C21.4379 24.4486 20.7834 25.0222 21.3444 25.7282L26.2063 31.7728H29.6189L24.2428 24.934Z" fill="#006BAE"/>
<path d="M59.7718 22.4191C60.1458 21.1837 59.9121 20.4336 59.4913 19.8159C59.4446 19.7277 59.3978 19.6835 59.3511 19.5953C58.9304 19.11 58.3694 18.8011 57.8551 18.5805C56.8734 18.2275 55.2372 18.2275 55.2372 18.2275H48.9261C48.8326 18.4923 44.7188 31.7728 44.7188 31.7728H48.1314L51.8713 19.8159H54.6762C54.8632 19.8159 55.6579 19.86 56.0787 19.9924C56.5929 20.213 57.0604 20.6101 57.0604 21.4484C57.0604 21.7572 56.9669 22.1543 56.8267 22.6397C56.5462 23.3897 56.0319 23.8751 55.4242 24.228C54.2087 24.934 52.5725 24.9781 52.1985 24.9781H50.8896L56.3124 31.7287H59.7251L55.2372 26.1694C57.2007 25.8164 59.0706 24.9781 59.7718 22.4191Z" fill="#006BAE"/>
<path d="M36.5385 18.2275C35.5568 18.2275 35.2296 19.0658 35.1828 19.1982L33.4531 24.7575C34.5751 24.6692 35.7438 24.2722 36.3515 24.0515L36.632 23.9633C36.819 23.9192 37.006 23.8309 37.193 23.7868L38.315 20.1248C38.315 20.1248 38.4085 19.8159 38.7357 19.8159H44.8598C45.7948 19.8159 46.1688 18.9776 46.2155 18.8894L46.4025 18.2275H36.5385Z" fill="#006BAE"/>
<path d="M43.6938 25.4193C43.6003 25.3752 43.5068 25.331 43.3666 25.331C41.7771 24.9781 38.9255 25.9046 37.9905 26.2135C37.1023 26.4782 36.1206 26.6547 35.9336 26.6988C35.2791 26.8312 34.4843 26.9194 33.6896 26.9194C33.5026 26.9194 33.3156 26.9194 33.1286 26.9194C33.0351 26.9194 32.9416 26.9194 32.8481 26.8753C32.1937 26.787 30.7912 26.3899 30.1367 24.8457C30.1367 24.8457 30.1367 26.787 32.4274 27.846L31.2119 31.7286H41.0759C42.1044 31.7286 42.4316 30.758 42.4316 30.758L42.6186 30.1403H35.5128C35.4193 30.1403 35.1856 30.0961 35.2791 29.8314L35.9803 27.6253C36.3543 27.493 36.8218 27.3606 37.336 27.14C37.4763 27.0959 37.5698 27.0518 37.71 26.9635C38.4112 26.6988 39.767 26.1252 40.0474 26.037C41.1694 25.684 42.6186 25.2869 43.6938 25.4193Z" fill="#006BAE"/>
<path d="M44.206 25.287C44.206 24.9782 43.271 23.3016 40.7466 23.1692C39.4376 23.1251 38.1754 23.4339 36.6794 23.9193L36.3989 24.0075C35.651 24.2723 34.0615 24.8017 32.7058 24.7135C30.9761 24.6252 30.1346 24.1399 30.1346 24.1399C30.0879 24.1399 30.0879 24.184 30.0879 24.184C30.0411 24.4487 30.8358 26.0812 33.22 26.2577C34.903 26.3901 36.6794 25.8606 37.4274 25.6841L37.5209 25.64C38.5494 25.3312 40.3258 24.89 41.588 24.89C43.5515 24.8458 44.1592 25.3312 44.206 25.287Z" fill="#F5A200"/>
</svg>
