<svg width="190" height="50" viewBox="0 0 190 50" fill="none" xmlns="http://www.w3.org/2000/svg">
<rect width="190" height="50" rx="10" fill="white"/>
<path d="M136.899 29.0039C138.079 29.0039 138.236 27.8507 138.236 27.8507V23.0391L137.253 23.0789C138 22.5619 137.961 21.528 137.961 21.528V17.5913H138.865C139.141 17.5913 139.966 17.5515 139.966 16.4779C139.966 15.4042 138.865 15.3644 138.865 15.3644H137.921V11.7061H135.483V21.6871C135.011 23.0391 134.264 23.0789 134.264 23.0789L127.342 23.1187H121.954V25.0274H127.342L135.68 25.0671V27.8905C135.68 29.0437 136.899 29.0039 136.899 29.0039Z" fill="#003A56"/>
<path d="M157.628 27.2931C157.628 26.3785 156.527 26.3387 156.527 26.3387L156.173 26.2989C157.038 25.782 156.763 24.3504 156.763 24.3504V13.9717C156.802 11.8642 155.426 12.0232 155.426 12.0232H141.582V14.5682H154.246V24.6686C154.285 26.3387 153.106 26.2989 153.106 26.2989H151.69V19.181H149.173V26.2989H146.223L146.263 19.2207H143.824V26.2989H141.229V28.6053H156.409C156.842 28.486 157.628 28.1679 157.628 27.2931Z" fill="#003A56"/>
<path d="M121.608 17.9089C121.962 22.641 127.232 22.5614 127.232 22.5614C127.271 22.5614 127.31 22.5614 127.31 22.5614C132.266 22.5217 133.17 18.227 133.17 18.227C133.17 15.5628 130.811 14.4891 130.811 14.4891H132.226C132.698 14.4891 133.21 14.2505 133.17 13.5745C133.131 12.8985 132.305 12.7792 132.305 12.7792H128.648V11.3477H127.31H126.131V12.7792H122.473C121.687 12.7394 121.608 13.5347 121.608 13.5347C121.569 14.4493 122.355 14.5289 122.355 14.5289H123.614C121.805 15.2049 121.608 17.9089 121.608 17.9089ZM127.31 15.4037C129.159 15.4037 130.653 16.5171 130.653 17.9089C130.653 19.3007 129.159 20.4141 127.35 20.4141C127.35 20.4141 127.35 20.4141 127.31 20.4141C125.462 20.3743 124.007 19.2609 124.007 17.9089C124.007 16.5569 125.462 15.4435 127.31 15.4037Z" fill="#003A56"/>
<path d="M100.758 14.4098H99.3033V11.666H96.8256V16.0004C96.8256 16.0004 96.511 17.432 95.6458 17.432H91.5556H85.7744V12.3818H83.0214L82.9821 18.0284C82.9821 18.0284 82.8248 19.7383 84.3586 19.7383H91.5556H95.3311C95.3311 19.7383 96.2357 19.7383 96.7076 19.1419C96.7076 19.1419 97.1402 20.7722 96.1177 21.4085H91.5556H83.8473V27.254C83.8473 27.254 83.8866 28.5264 85.2238 28.5264H91.5163H99.5393V21.4085H98.7134C98.7134 21.4085 99.264 21.4085 99.264 20.4143V16.3981L100.601 16.3583C100.601 16.3583 101.388 16.3185 101.388 15.2846C101.427 15.2846 101.427 14.4098 100.758 14.4098ZM96.7863 26.2598H91.5556H86.325V23.7546H91.5556H96.7863V26.2598Z" fill="#003A56"/>
<path d="M118.729 27.4528V11.666H116.212V17.5115H114.246V11.666H111.729L111.768 24.1125C111.69 25.4248 110.274 25.1862 110.274 25.1862H105.515L105.554 14.37H109.92C111.1 14.37 111.021 13.4157 111.021 13.4157C111.021 12.4216 109.959 12.3023 109.959 12.3023L102.998 12.2625V26.1008C102.998 27.5323 104.65 27.3732 104.65 27.3732H110.51C111.296 27.3335 111.729 26.8165 111.729 26.8165V27.3732C111.808 28.9639 112.948 28.8048 112.948 28.8048C114.049 28.8048 114.207 27.3732 114.207 27.3732V19.4202H116.212V27.3732C116.212 28.3276 116.92 28.9639 117.589 28.8048C118.729 28.7253 118.729 27.4528 118.729 27.4528Z" fill="#003A56"/>
<path d="M77.4735 20.7325C77.4735 20.7325 77.5915 21.8459 76.8836 21.8061C76.8836 21.8061 74.6419 21.0108 71.9675 20.9711C71.9282 20.9711 71.9282 20.9711 71.9282 20.9711C71.9282 20.9711 66.2256 21.0904 64.3379 23.7546C64.0626 24.1523 63.8659 24.5499 63.8659 25.1066C63.8659 25.1066 63.8266 25.7826 64.3379 26.5382C65.0851 27.7709 67.0122 29.3217 71.8496 29.2422C71.8496 29.2422 71.8889 29.2422 71.9282 29.2422C72.7934 29.282 78.8893 29.3217 79.9118 25.1464C79.9118 25.1464 80.1085 23.7546 79.2432 23.4365C79.2432 23.4365 80.0691 23.1979 80.1085 22.0845V11.666H77.4735V13.6145H74.7205V15.6028H77.5128V17.3524H74.7205V19.2214H77.4735V20.7325ZM71.9675 27.4528C69.4505 27.4528 67.3661 26.3791 67.3661 25.1066C67.3661 23.8341 69.3719 22.8003 71.9675 22.8003V22.84C74.4845 22.84 76.5689 23.8341 76.5689 25.1066C76.5296 26.4189 74.4845 27.4528 71.9675 27.4528Z" fill="#003A56"/>
<path d="M64.3403 21.8461C64.6156 21.8461 64.8122 21.7666 64.8122 21.7666C68.2338 20.6531 70.4755 18.983 71.9306 17.3526C74.2116 14.7679 74.5656 12.2627 74.5656 12.2627H71.9306H64.3403H63.829V14.5293H64.3403H71.4587C68.7057 18.5854 65.4021 19.4204 64.3009 19.7783C64.0256 19.8578 63.9077 19.8976 63.9077 19.8976C63.9077 19.8976 63.1604 20.2555 63.1211 20.852V20.9713C63.1211 21.0508 63.1604 21.1701 63.1998 21.2894C63.5537 21.7666 63.9863 21.8859 64.3403 21.8461Z" fill="#003A56"/>
<path d="M139.848 38.4274C139.848 38.3877 139.887 38.3479 139.887 38.2684C139.887 38.1888 139.887 38.1093 139.887 38.1093C139.887 37.5526 139.808 37.155 139.651 36.9561C139.494 36.7175 139.258 36.5982 138.864 36.5187C139.218 36.4392 139.454 36.2801 139.612 36.0018C139.769 35.7632 139.848 35.3655 139.848 34.8486C139.848 34.2123 139.69 33.7749 139.415 33.5363C139.14 33.2977 138.629 33.1784 137.842 33.1387C137.803 33.1387 137.803 33.1387 137.763 33.1387H135.797V39.8192H137.173V37.0357H137.763C137.803 37.0357 137.803 37.0357 137.842 37.0357C138.078 37.0357 138.235 37.1152 138.314 37.2345C138.432 37.3538 138.471 37.5924 138.511 37.9503C138.511 38.0696 138.511 38.2286 138.511 38.4672C138.511 39.1432 138.55 39.5806 138.589 39.7795H140.044C139.966 39.6204 139.926 39.4216 139.887 39.183C139.848 38.9842 139.848 38.7058 139.848 38.4274ZM138.235 35.7632C138.157 35.8427 137.999 35.9222 137.763 35.962C137.685 36.0018 137.567 36.0018 137.449 36.0018H137.095V34.1726H137.449C137.567 34.1726 137.685 34.1726 137.724 34.2123C137.96 34.2521 138.117 34.2919 138.196 34.3714C138.314 34.4907 138.393 34.7293 138.393 35.0474C138.471 35.4053 138.393 35.6439 138.235 35.7632Z" fill="#003A56"/>
<path d="M143.826 36.2405C143.747 36.161 143.59 36.0814 143.354 35.9622C142.607 35.485 142.213 35.0873 142.213 34.7294C142.213 34.4908 142.292 34.3715 142.41 34.2523C142.528 34.133 142.685 34.0534 142.882 34.0534C143.118 34.0534 143.275 34.133 143.393 34.292C143.472 34.4511 143.55 34.6897 143.55 35.0078V35.0476H144.927V34.8885C144.927 34.292 144.77 33.8148 144.416 33.4967C144.062 33.1786 143.59 33.0195 142.921 33.0195C142.253 33.0195 141.741 33.1786 141.387 33.4967C140.994 33.8546 140.837 34.292 140.837 34.8487C140.837 35.1271 140.876 35.4054 140.955 35.6043C141.033 35.8031 141.23 36.0019 141.466 36.2007C141.545 36.2803 141.702 36.3996 141.859 36.5586C142.056 36.6779 142.292 36.837 142.606 37.0358C142.646 37.0358 142.646 37.0756 142.685 37.0756C143.275 37.4732 143.59 37.8311 143.59 38.1492C143.59 38.3878 143.511 38.5469 143.393 38.7059C143.275 38.8252 143.118 38.9048 142.882 38.9048C142.607 38.9048 142.41 38.8252 142.292 38.6662C142.213 38.5071 142.135 38.2685 142.135 37.9106V37.7516H140.719C140.719 37.7913 140.719 37.8311 140.719 37.8709C140.719 37.9106 140.719 37.9504 140.719 37.9902C140.719 38.6662 140.876 39.1434 141.191 39.4217C141.505 39.7398 142.017 39.8989 142.724 39.8989C143.472 39.8989 144.022 39.7398 144.416 39.382C144.77 39.0638 144.966 38.5867 144.966 37.9504C144.966 37.5925 144.888 37.2744 144.73 37.0358C144.573 36.7972 144.258 36.5189 143.826 36.2405Z" fill="#003A56"/>
<path d="M147.357 33.0986H145.98V39.8189H147.357V33.0986Z" fill="#003A56"/>
<path d="M148.065 34.2121H149.56V39.8189H151.015V34.2121H152.51V33.0986H148.065V34.2121Z" fill="#003A56"/>
<path d="M155.025 35.8822L154.081 33.0986H152.547L154.238 37.274V39.8189H155.654V37.274L157.502 33.0986H156.086L155.025 35.8822Z" fill="#003A56"/>
<path d="M98.4028 33.0986H97.5769L95.7285 39.8189H97.105L97.459 38.3079H98.4028H99.386L99.7007 39.8189H101.156L99.3467 33.0986H98.4028ZM98.4028 37.274H97.6949L98.4028 34.4904L98.4422 34.4109L99.1107 37.3137H98.4028V37.274Z" fill="#003A56"/>
<path d="M105.281 37.1944C105.241 37.433 105.202 37.6716 105.202 37.9102C105.163 38.1488 105.123 38.3874 105.123 38.5862C105.084 38.2681 105.045 37.9897 105.045 37.7512C105.005 37.5126 104.966 37.3535 104.966 37.1944L104.022 33.0986H101.898V39.8189H103.275L103.196 35.246V35.2062C103.196 34.5302 103.157 33.9735 103.118 33.5758L104.573 39.8587H105.871L107.247 33.5758C107.208 33.8144 107.208 34.053 107.208 34.3314C107.208 34.6097 107.168 34.9278 107.168 35.246L107.05 39.8189H108.348V33.0986H106.146L105.281 37.1944Z" fill="#003A56"/>
<path d="M114.917 37.1149C114.917 37.8307 114.838 38.3079 114.72 38.5465C114.602 38.7851 114.366 38.9043 114.052 38.9043C113.698 38.9043 113.462 38.8248 113.344 38.626C113.226 38.3874 113.147 37.9102 113.147 37.1547V33.0986H111.771V37.5126C111.771 38.3476 111.967 38.9441 112.321 39.3418C112.675 39.7394 113.226 39.9382 114.012 39.9382C114.799 39.9382 115.389 39.6996 115.743 39.3418C116.097 38.9441 116.293 38.2681 116.293 37.3137V33.0986H114.917V37.1149Z" fill="#003A56"/>
<path d="M121.169 36.9559C121.169 37.3535 121.169 37.7114 121.208 38.0295C121.247 38.3476 121.247 38.626 121.287 38.9441C121.208 38.5465 121.129 38.1886 121.011 37.7909C120.893 37.433 120.775 36.9956 120.618 36.598L119.359 33.0986H117.472V39.8189H118.77L118.691 35.8424C118.691 35.6038 118.691 35.3255 118.652 35.0074C118.612 34.6892 118.612 34.3314 118.573 33.8939C118.691 34.3711 118.809 34.7688 118.927 35.1664C119.045 35.5243 119.163 35.8822 119.241 36.1606L120.618 39.8189H122.427V33.0986H121.169V36.9559Z" fill="#003A56"/>
<path d="M124.955 33.0986H123.578V39.8189H124.955V33.0986Z" fill="#003A56"/>
<path d="M128.327 36.598C128.288 36.9161 128.209 37.2342 128.131 37.5921C128.091 37.95 128.052 38.3476 127.974 38.7851C127.934 38.5465 127.895 38.2283 127.856 37.9102C127.816 37.5921 127.738 37.1547 127.62 36.598L126.951 33.0986H125.535L127.187 39.8189H128.799L130.53 33.0986H129.153L128.327 36.598Z" fill="#003A56"/>
<path d="M132.575 36.7968H134.541V35.7629H132.575V34.1325H134.738V33.0986H131.159V39.8189H134.817V38.7055H132.575V36.7968Z" fill="#003A56"/>
<path d="M69.8851 35.8822L68.9019 33.0986H67.722L67.5647 33.377L67.5254 33.4168L67.5647 33.4963L69.0985 37.274V39.8189H70.5143V37.274L72.4021 33.0986H70.9469L69.8851 35.8822Z" fill="#003A56"/>
<path d="M76.0964 37.1149C76.0964 37.8307 76.0178 38.3079 75.8998 38.5465C75.7818 38.7851 75.5459 38.9043 75.2312 38.9043C74.8773 38.9043 74.6806 38.8248 74.5233 38.626C74.4053 38.3874 74.3267 37.9102 74.3267 37.1547V33.0986H72.9502V37.5126C72.9502 38.3476 73.1075 38.9441 73.5008 39.3418C73.8547 39.7394 74.4447 39.9382 75.1919 39.9382C75.9785 39.9382 76.5684 39.6996 76.9223 39.3418C77.2763 38.9441 77.4729 38.2681 77.4729 37.3137V33.0986H76.0964V37.1149Z" fill="#003A56"/>
<path d="M82.3104 36.9559C82.3104 37.3535 82.3497 37.7114 82.3497 38.0295C82.3891 38.3476 82.3891 38.626 82.4284 38.9441C82.3497 38.5465 82.2317 38.1886 82.1138 37.7909C82.0351 37.433 81.8778 36.9956 81.7205 36.598L80.462 33.0986H78.5742V39.8189H79.872L79.7934 35.8424C79.7934 35.6038 79.7541 35.3255 79.7541 35.0074C79.7541 34.6892 79.7147 34.3314 79.6754 33.8939C79.7934 34.3711 79.9114 34.7688 80.0294 35.1664C80.108 35.5243 80.2653 35.8822 80.344 36.1606L81.6811 39.8189H83.4902V33.0986H82.1924L82.3104 36.9559Z" fill="#003A56"/>
<path d="M86.9109 33.0195C86.4783 33.0195 86.085 33.0991 85.7704 33.2184C85.4951 33.3377 85.2198 33.5365 85.0625 33.8148C84.9052 34.0534 84.7872 34.3715 84.7085 34.7294C84.6299 35.1271 84.6299 35.644 84.6299 36.32C84.6299 37.3142 84.6692 38.0299 84.7872 38.4674C84.9052 38.9048 85.0625 39.2627 85.3771 39.5012C85.5344 39.6603 85.7704 39.7796 86.0457 39.8591C86.321 39.9387 86.6356 39.9387 87.0682 39.9387C87.3042 39.9387 87.6188 39.8989 87.9335 39.8989C88.2088 39.8591 88.602 39.8194 89.0346 39.7398V36.3598H87.0289V37.3937H87.7761V38.9048C87.6188 38.9445 87.5008 38.9843 87.3829 38.9843C87.3042 39.0241 87.1862 39.0241 87.1076 39.0241C86.6749 39.0241 86.3997 38.865 86.2423 38.6264C86.085 38.3481 86.0064 37.6323 86.0064 36.5586C86.0064 35.5247 86.085 34.8487 86.203 34.5306C86.321 34.2522 86.557 34.0932 86.9109 34.0932C87.1862 34.0932 87.3829 34.1727 87.5008 34.3715C87.6188 34.5306 87.6975 34.8487 87.6975 35.2066V35.2861H89.074V35.2066C89.074 34.5306 88.9167 34.0137 88.5234 33.6558C88.1301 33.1786 87.5795 33.0195 86.9109 33.0195Z" fill="#003A56"/>
<path d="M93.8443 36.9559C93.8443 37.3535 93.8443 37.7114 93.8836 38.0295C93.923 38.3476 93.923 38.626 93.9623 38.9441C93.8836 38.5465 93.805 38.1886 93.687 37.7909C93.569 37.433 93.451 36.9956 93.2937 36.598L91.9959 33.0986H90.1475V39.8189H91.406L91.3273 35.8424C91.3273 35.6038 91.3273 35.3255 91.288 35.0074C91.2487 34.6892 91.2487 34.3314 91.2093 33.8939C91.3273 34.3711 91.4453 34.7688 91.5633 35.1664C91.6813 35.5243 91.7992 35.8822 91.8779 36.1606L93.2544 39.8189H95.0635V33.0986H93.7657L93.8443 36.9559Z" fill="#003A56"/>
<path d="M66.3061 33.0986L64.5757 36.0015V33.0986H63.1992V39.8189H64.5757V36.5582L66.1095 39.8189H67.5646H67.722L67.5646 39.5008L65.7949 36.2003L67.5253 33.4168L67.368 33.0986H66.3061Z" fill="#003A56"/>
<path d="M32.3721 10.7518C38.35 12.8991 41.6535 11.7857 45.7043 7.61035C49.7551 11.6664 54.5138 12.6605 59.7838 10.7916L59.8231 29.0438C59.8231 46.9381 32.5294 46.6995 32.3721 29.1631L32.3721 10.7518Z" fill="#003A56"/>
<path d="M33.833 12.4623C38.4344 13.8143 42.1706 13.3769 45.7494 9.67871C49.407 13.3371 54.1263 13.8541 58.3738 12.4623V28.8853C58.3738 45.0299 33.951 44.6323 33.833 28.9648V12.4623Z" fill="white"/>
<path d="M33.833 12.4629L45.6708 30.7549L58.3738 12.4629V28.8859C58.3738 45.0703 33.833 44.9908 33.833 28.9654V12.4629Z" fill="#96A8A7"/>
<path d="M57.0659 33.0996L56.4367 32.9803L55.2568 33.1394L55.3355 32.7417L56.1221 32.6622L55.4535 32.2248L55.5715 31.8271L56.5153 32.5827L57.1446 32.7417L57.0659 33.0996Z" fill="white"/>
<path d="M56.4414 34.6507L55.1435 33.9747L54.9469 34.3326L54.7109 34.2133L55.2222 33.1396L55.4582 33.2589L55.3009 33.6168L56.638 34.2928L56.4414 34.6507Z" fill="white"/>
<path d="M54.5573 34.4062L54.3701 34.71L55.8723 35.656L56.0594 35.3523L54.5573 34.4062Z" fill="white"/>
<path d="M54.4838 36.5599L54.7198 36.2418L54.7591 36.2815C54.8378 36.3213 54.9164 36.3611 54.9164 36.3611C54.9558 36.3611 55.0344 36.3611 55.0738 36.2815C55.1131 36.2418 55.1131 36.1623 55.1131 36.1225C55.1131 36.0827 55.0738 36.0032 55.0344 36.0032C54.9951 35.9634 54.8378 35.9634 54.6805 36.0032H54.6411C54.5625 36.043 54.4838 36.043 54.4445 36.0827C54.4052 36.0827 54.3265 36.1225 54.2872 36.1225C54.2085 36.1225 54.1299 36.1225 54.0905 36.1225C54.0119 36.0827 53.9726 36.043 53.8939 36.0032C53.7759 35.9237 53.6973 35.8044 53.6973 35.6851C53.6973 35.526 53.7366 35.4067 53.8152 35.2874C53.9332 35.1681 54.0512 35.0886 54.1692 35.0488C54.2872 35.0488 54.4052 35.0886 54.5232 35.1681L54.5625 35.2079L54.4052 35.526C54.3265 35.4862 54.2872 35.4465 54.2085 35.4465C54.1692 35.4465 54.0905 35.4862 54.0512 35.526C54.0119 35.5658 54.0119 35.6055 54.0119 35.6453C54.0119 35.6851 54.0512 35.7646 54.0905 35.7646C54.1692 35.8044 54.3265 35.8044 54.5232 35.7248C54.5625 35.7248 54.6411 35.6851 54.6411 35.6851C54.7591 35.6453 54.8771 35.6055 54.9558 35.6453C55.0344 35.6453 55.1131 35.6851 55.1917 35.7248C55.349 35.8441 55.3884 35.9634 55.4277 36.0827C55.4277 36.202 55.3884 36.3611 55.2311 36.5201C55.1131 36.6792 54.9951 36.7587 54.8771 36.7587C54.7591 36.7985 54.6411 36.719 54.5232 36.6394C54.5232 36.6394 54.4838 36.6394 54.4838 36.5997C54.4838 36.5599 54.4838 36.5997 54.4838 36.5599Z" fill="white"/>
<path d="M54.4329 37.0773C54.3936 37.0375 54.3543 36.9978 54.2756 36.9182C54.2756 36.9182 54.2756 36.9182 54.2363 36.8785L54.197 36.8387C54.079 36.7194 54.0003 36.6399 53.961 36.6399C53.9217 36.6399 53.843 36.6399 53.725 36.6796C53.7644 36.6001 53.8037 36.5206 53.8037 36.441C53.8037 36.3615 53.725 36.282 53.6464 36.1627C53.5284 36.0434 53.4104 35.9639 53.2924 35.9639C53.2138 35.9639 53.0565 36.0434 52.8991 36.1627L52.5059 36.5206L53.6857 37.8726L53.961 37.634L53.4891 37.0773L53.607 36.9978C53.6464 36.958 53.725 36.9182 53.7644 36.9182C53.8037 36.9182 53.8823 36.958 53.9217 37.0375C53.9217 37.0375 53.961 37.0773 54.0003 37.1568C54.1183 37.2761 54.197 37.3556 54.2363 37.3954L54.5509 37.1568C54.5509 37.1171 54.4723 37.1171 54.4329 37.0773ZM53.4104 36.8387L53.3318 36.8785L53.0171 36.5206L53.0958 36.4808C53.1744 36.4013 53.2531 36.3615 53.2924 36.3615C53.3318 36.3615 53.4104 36.4013 53.4497 36.4808C53.4891 36.5603 53.5284 36.6001 53.5284 36.6796C53.5284 36.7194 53.4891 36.7592 53.4104 36.8387Z" fill="white"/>
<path d="M52.5452 38.6677L51.6406 37.1168L52.4665 36.6396L52.5845 36.8782L52.1126 37.1566L52.3092 37.5542L52.7811 37.2759L52.8991 37.4747L52.4665 37.7531L52.7418 38.2303L53.2531 37.9121L53.3711 38.1507L52.5452 38.6677Z" fill="white"/>
<path d="M51.4445 39.2243L50.2646 37.7928L50.6186 37.6337L51.1692 38.3892C51.2872 38.5085 51.3658 38.5881 51.3658 38.6676C51.4052 38.7471 51.4838 38.8267 51.5231 38.8664C51.4838 38.7471 51.4445 38.6676 51.4052 38.5483C51.3658 38.4688 51.3658 38.3495 51.3658 38.2699L51.1299 37.3554L51.4838 37.1963L51.8378 39.0255L51.4445 39.2243Z" fill="white"/>
<path d="M50.3501 39.5814L49.8389 37.9113L50.1535 37.792L50.7041 39.5019L50.3501 39.5814Z" fill="white"/>
<path d="M48.615 40.059L48.2217 38.3093L48.7329 38.19L49.2442 39.0251C49.3229 39.1046 49.3622 39.2239 49.4015 39.3035C49.4409 39.383 49.5195 39.5023 49.5588 39.5818C49.5588 39.5023 49.5195 39.4228 49.4802 39.3432C49.4409 39.2637 49.4409 39.1842 49.4015 39.0649L49.1656 38.0707L49.5195 37.9912L49.9128 39.7409L49.4409 39.8602L48.8509 39.0251C48.8116 38.9853 48.7329 38.866 48.6936 38.7865C48.6543 38.707 48.5756 38.5877 48.5363 38.4684C48.5363 38.5877 48.5756 38.6672 48.615 38.7467C48.615 38.8263 48.6543 38.9058 48.6543 38.9456L48.9296 39.9795L48.615 40.059Z" fill="white"/>
<path d="M47.9877 38.3503L48.0664 39.4637C48.1057 39.7023 48.0664 39.9012 47.9877 40.0204C47.8697 40.1397 47.7518 40.2193 47.5158 40.2193C47.3191 40.2193 47.1618 40.2193 47.0439 40.1C46.9652 39.9807 46.8865 39.8614 46.8865 39.6228L46.7686 38.4298L47.1225 38.3901L47.2405 39.4637C47.2405 39.6626 47.2798 39.8216 47.3191 39.8216C47.3585 39.8614 47.4371 39.9012 47.5158 39.9012C47.5944 39.9012 47.6731 39.8614 47.6731 39.7819C47.6731 39.7023 47.7124 39.583 47.6731 39.3842L47.5944 38.3105L47.9877 38.3503Z" fill="white"/>
<path d="M42.875 39.9779L43.0716 38.1885L43.6222 38.268L43.7402 39.3814C43.7402 39.4212 43.7795 39.461 43.7795 39.5405C43.7795 39.5803 43.7795 39.6996 43.7795 39.7791C43.7795 39.7393 43.8189 39.6598 43.8189 39.5803C43.8189 39.5405 43.8582 39.461 43.8582 39.3814L44.2122 38.3078L44.8021 38.3475L44.6054 40.137L44.2515 40.0972L44.4088 38.8645C44.4088 38.785 44.4088 38.7054 44.4481 38.6259C44.4481 38.5464 44.4875 38.5066 44.4875 38.4271L43.9369 40.0177L43.5829 39.9779L43.3863 38.3475C43.3863 38.4668 43.3863 38.6259 43.3469 38.785L43.229 39.9779H42.875Z" fill="white"/>
<path d="M42.3983 37.8711L41.2578 39.3026L41.6118 39.4617L41.8477 39.1038L42.3197 39.3026L42.2803 39.7003L42.6343 39.8594L42.8703 38.0302L42.3983 37.8711ZM42.359 38.9845L42.005 38.8255L42.477 38.1892L42.359 38.9845Z" fill="white"/>
<path d="M39.9248 38.587L40.8294 37.0361L41.262 37.2747L41.0653 38.2291C41.0653 38.3484 41.026 38.4677 40.9867 38.5472C40.9473 38.6267 40.9473 38.746 40.908 38.8653C40.9473 38.7858 40.9867 38.7063 41.026 38.6665C41.0653 38.587 41.1046 38.5074 41.144 38.4279L41.6552 37.5531L41.9305 37.7121L41.026 39.263L40.6327 38.9846L40.8294 37.9507C40.8687 37.8712 40.8687 37.7917 40.8687 37.6724C40.908 37.5928 40.908 37.4338 40.9473 37.3145C40.908 37.394 40.8294 37.5133 40.79 37.5928C40.7507 37.6724 40.7114 37.7519 40.7114 37.7917L40.2394 38.746L39.9248 38.587Z" fill="white"/>
<path d="M40.1676 37.7118L39.617 38.4275C39.4991 38.3878 39.3811 38.348 39.3417 38.2685C39.2631 38.2287 39.2238 38.1889 39.1451 38.1492C39.0664 38.0697 38.9878 38.0299 38.9485 37.9504C38.9091 37.8708 38.8305 37.8311 38.8698 37.7515C38.8305 37.6322 38.8698 37.5129 38.9091 37.4334C38.9485 37.3141 39.0664 37.155 39.2238 36.9165C39.3417 36.7574 39.4204 36.6779 39.4991 36.5983C39.5777 36.5188 39.6564 36.479 39.6957 36.479C39.7744 36.4393 39.853 36.4393 39.971 36.479C40.0497 36.5188 40.1676 36.5586 40.2463 36.6381C40.4036 36.7574 40.4823 36.8767 40.5216 36.996C40.5609 37.1551 40.5216 37.2743 40.4036 37.4334L40.089 37.1948C40.1676 37.1153 40.207 37.0358 40.1676 36.9562C40.1676 36.9165 40.1283 36.8369 40.089 36.7972C40.0103 36.7574 39.9317 36.7176 39.853 36.7972C39.7744 36.8369 39.6564 36.996 39.4991 37.1948C39.3024 37.4334 39.2238 37.5925 39.1844 37.672C39.1844 37.7515 39.2238 37.8311 39.3024 37.9106C39.3417 37.9106 39.3417 37.9504 39.3811 37.9504C39.3811 37.9901 39.4597 37.9901 39.4597 37.9901L39.6957 37.672L39.5384 37.5527L39.6957 37.3141L40.1676 37.7118Z" fill="white"/>
<path d="M37.3643 36.5989L38.6621 35.3662L39.016 35.7241L38.5441 36.5989C38.5048 36.6785 38.4654 36.7978 38.3868 36.8773C38.3475 36.9568 38.2688 37.0761 38.2295 37.1556C38.2688 37.0761 38.3081 37.0363 38.3868 36.9568C38.4654 36.8773 38.5048 36.7978 38.5834 36.758L39.3307 36.0422L39.5666 36.2808L38.2688 37.5533L37.9149 37.1954L38.3868 36.241C38.4261 36.2013 38.4654 36.082 38.5048 36.0025C38.5441 35.9229 38.6228 35.8036 38.7014 35.6843C38.6228 35.7639 38.5441 35.8434 38.5048 35.8832C38.4261 35.9229 38.3868 36.0025 38.3475 36.0422L37.6002 36.7978L37.3643 36.5989Z" fill="white"/>
<path d="M38.4647 35.208L37.5994 35.884C37.4028 36.0431 37.2455 36.1226 37.0882 36.0828C36.9702 36.0828 36.8129 35.9635 36.6949 35.8045C36.5769 35.6454 36.4982 35.4863 36.5376 35.3273C36.5769 35.208 36.6556 35.0489 36.8129 34.9296L37.7174 34.2139L37.9534 34.532L37.0882 35.208C36.9309 35.3273 36.8522 35.4068 36.8129 35.4864C36.8129 35.5261 36.8129 35.6056 36.8522 35.6852C36.8915 35.7647 36.9702 35.8045 37.0095 35.8045C37.0882 35.8045 37.2062 35.7249 37.3635 35.6056L38.1894 34.9296L38.4647 35.208Z" fill="white"/>
<path d="M35.6768 34.2135L36.306 33.9351L37.0926 33.0205L37.2499 33.3784L36.6993 33.9351L37.4859 33.8556L37.6432 34.2135L36.424 34.2532L35.8734 34.5713L35.6768 34.2135Z" fill="white"/>
<path d="M35.0527 32.1855L36.7832 31.748L36.8618 32.1059L36.1146 32.3048L36.9798 32.5831L37.0585 32.941L36.1539 32.6626L35.328 33.3784L35.2494 32.941L35.9573 32.3445L35.1314 32.5433L35.0527 32.1855Z" fill="white"/>
<path d="M42.5137 14.1719H49.1208V16.3987H50.222V17.7507H49.1601V19.2618H50.2613V20.5741H49.1601V22.7214H47.7443V15.6034H42.5137V14.1719Z" fill="#003A56"/>
<path d="M44.0176 16.3984V23.5959H49.209V25.1468H42.5625V16.3984H44.0176Z" fill="#003A56"/>
<path d="M49.8292 26.6172L50.7337 25.623C52.0709 26.8558 52.8968 28.6054 52.8968 30.5142C52.8968 34.2521 49.7505 37.2742 45.9357 37.2742C42.0815 37.2742 38.9746 34.2521 38.9746 30.5142C38.9746 28.6452 39.7612 26.9353 41.0197 25.7423L41.9242 26.6967C40.941 27.6908 40.3118 29.0428 40.3118 30.5142C40.3118 33.4965 42.8288 35.962 45.8964 35.962C48.964 35.962 51.481 33.4965 51.481 30.5142C51.5203 29.0428 50.891 27.6511 49.8292 26.6172Z" fill="#003A56"/>
</svg>
