<svg width="190" height="50" viewBox="0 0 190 50" fill="none" xmlns="http://www.w3.org/2000/svg">
<rect width="190" height="50" rx="10" fill="white"/>
<path d="M85.1069 22.8578C85.2379 22.4251 85.2816 21.9923 85.2816 21.6028V18.5303H76.2846V19.8285H83.2288V21.6894C83.2288 22.0789 83.2288 22.4683 83.1852 22.8578C83.1415 23.2473 83.0541 23.5935 82.9668 23.8964H74.9307V25.1947H79.6912V27.2286H75.9789V28.5269H83.5782V32.5515H85.6746V27.1421H81.8313V25.1081H87.64V23.8099H84.6701C84.8448 23.6368 84.9758 23.3338 85.1069 22.8578Z" fill="#003B68"/>
<path d="M99.6547 22.8578C99.7857 22.4251 99.8294 21.9923 99.8294 21.6028V18.5303H90.8324V19.8285H97.7767V21.6894C97.7767 22.0789 97.7767 22.4683 97.733 22.8578C97.6894 23.2473 97.602 23.5935 97.5147 23.8964H89.4785V25.1947H94.2391V27.2286H90.5267V28.5269H98.1261V32.5515H100.222V27.1421H96.3791V25.1081H102.275V23.8099H99.3053C99.4363 23.6368 99.5674 23.3338 99.6547 22.8578Z" fill="#003B68"/>
<path d="M133.148 25.3675H138.782C139.306 25.3675 139.699 25.2376 140.005 24.978C140.31 24.7183 140.441 24.4154 140.441 23.8528V18.5732H138.345V20.6937H133.541V18.5732H131.444V23.8961C131.444 24.4154 131.619 24.7616 131.881 25.0213C132.23 25.2376 132.667 25.3675 133.148 25.3675ZM138.389 21.9487V24.1125H133.584V21.9487H138.389Z" fill="#003B68"/>
<path d="M106.377 25.4111H113.409V24.1128H106.77V22.5116H113.19V21.2133H106.77V19.8285H113.409V18.5303H104.674V23.8964C104.674 24.3292 104.805 24.7187 105.111 25.0216C105.46 25.2812 105.853 25.4111 106.377 25.4111Z" fill="#003B68"/>
<path d="M151.143 21.4297C151.143 21.8192 151.099 22.2087 151.099 22.5982C151.055 22.9876 150.968 23.3338 150.837 23.5935H152.584C152.758 23.4204 152.89 23.1175 153.021 22.6414C153.152 22.1654 153.195 21.7327 153.195 21.3432V18.5303H144.198V19.8285H151.143V21.4297Z" fill="#003B68"/>
<path d="M148.304 21.8184H146.208V24.5014H142.67V25.7564H154.899V24.5014H148.304V21.8184Z" fill="#003B68"/>
<path d="M110.351 26.5791H108.123V28.916H103.45V30.2142H115.111V28.916H110.351V26.5791Z" fill="#003B68"/>
<path d="M137.035 26.5791H134.939V28.916H130.266V30.2142H141.708V28.916H137.035V26.5791Z" fill="#003B68"/>
<path d="M167.475 21.7756V18.4434H165.379V32.4646H167.475V23.0738H169.615V21.7756H167.475Z" fill="#003B68"/>
<path d="M125.859 20.9107H123.588V22.209H125.859V25.7143H127.912V18.4873H125.859V20.9107Z" fill="#003B68"/>
<path d="M120.355 23.5929C121.621 23.8525 123.237 24.6748 124.111 25.4104L124.984 24.3718C124.373 23.7227 122.32 22.5543 121.228 22.2081C121.403 21.732 121.49 21.256 121.49 20.6934V19.9145H123.892V18.6162H116.948V19.9145H119.35V20.6934C119.35 21.6455 118.957 23.6794 116.424 24.1555V25.4104C116.73 25.4104 117.035 25.3672 117.341 25.2806C118.433 25.021 119.568 24.4584 120.355 23.5929Z" fill="#003B68"/>
<path d="M71.5661 18.4434H69.4697V27.2283H71.5661V22.9873H73.5315V21.689H71.5661V18.4434Z" fill="#003B68"/>
<path d="M64.9274 27.7051H62.8311V30.9507C62.8311 31.4268 63.0058 31.8162 63.3115 32.0759C63.6172 32.3355 64.0103 32.4654 64.4907 32.4654H72.0901V31.1671H64.9274V27.7051Z" fill="#003B68"/>
<path d="M126.728 27.2714C125.942 26.6223 125.025 26.3193 123.889 26.3193C122.798 26.3193 121.88 26.6223 121.094 27.2714C120.308 27.9205 119.915 28.6995 119.915 29.6083C119.915 30.517 120.308 31.296 121.094 31.9019C121.88 32.551 122.798 32.8539 123.889 32.8539C124.981 32.8539 125.942 32.551 126.728 31.9019C127.514 31.2527 127.907 30.517 127.907 29.6083C127.864 28.6562 127.471 27.8772 126.728 27.2714ZM123.889 31.5557C122.841 31.5557 122.011 30.6469 122.011 29.565C122.011 28.4831 122.841 27.5743 123.889 27.5743C124.938 27.5743 125.767 28.4831 125.767 29.565C125.767 30.6469 124.938 31.5557 123.889 31.5557Z" fill="#003B68"/>
<path d="M151.538 27.2714C150.752 26.6223 149.835 26.3193 148.743 26.3193C147.651 26.3193 146.734 26.6223 145.948 27.2714C145.162 27.9205 144.769 28.6995 144.769 29.6083C144.769 30.517 145.162 31.296 145.948 31.9019C146.734 32.551 147.651 32.8539 148.743 32.8539C149.835 32.8539 150.796 32.551 151.538 31.9019C152.324 31.2527 152.717 30.517 152.717 29.6083C152.674 28.6562 152.324 27.8772 151.538 27.2714ZM148.743 31.5557C147.695 31.5557 146.865 30.6469 146.865 29.565C146.865 28.4831 147.695 27.5743 148.743 27.5743C149.791 27.5743 150.621 28.4831 150.621 29.565C150.621 30.6469 149.747 31.5557 148.743 31.5557Z" fill="#003B68"/>
<path d="M66.59 25.1081C67.3325 24.5022 67.7256 23.7233 67.7256 22.8578C67.7256 22.0355 67.3762 21.2998 66.7211 20.7373H67.8566V19.439H64.7994V18.4004H62.7467V19.3957H59.6895V20.694H60.9123C60.2572 21.2998 59.9078 21.9922 59.9078 22.8145C59.9078 23.7233 60.3009 24.4589 61.0434 25.0648C61.7858 25.6707 62.703 26.0169 63.7949 26.0169C64.9304 26.0601 65.8476 25.7139 66.59 25.1081ZM62.0042 22.8145C62.0042 21.7326 62.834 20.8671 63.8385 20.8671C64.8431 20.8671 65.6729 21.7326 65.6729 22.8145C65.6729 23.8964 64.8431 24.7619 63.8385 24.7619C62.834 24.7619 62.0042 23.8964 62.0042 22.8145Z" fill="#003B68"/>
<path d="M161.189 23.1604C161.32 22.771 161.408 22.2949 161.408 21.7756V18.5732H159.224V21.3429C159.224 22.9873 158.613 24.5885 156.298 25.1078V26.4926C157.04 26.4494 158.438 25.9733 159.137 25.4973C159.442 25.2809 159.879 24.978 160.272 24.5452C161.451 25.0213 162.543 25.8002 163.373 26.6225L164.378 25.5406C163.985 24.8482 162.325 23.6365 161.189 23.1604Z" fill="#003B68"/>
<path d="M49.6487 25.3678C49.4304 25.1082 49.212 24.8918 48.9499 24.7187C49.081 24.5889 49.2557 24.4158 49.3867 24.2427L55.2828 17.1455H50.2602L46.8972 21.2134C45.9801 22.2953 45.4123 22.7713 44.4078 22.7713C43.4033 22.7713 42.8355 22.2953 41.9183 21.2134L38.5554 17.1455H33.5765L39.4289 24.1994C39.6036 24.3725 39.7346 24.5456 39.9093 24.6754C39.6909 24.8485 39.4725 25.0649 39.2542 25.3246L36.2406 28.7433C34.0569 28.7433 30.3009 28.7433 30.3009 28.7433C26.8942 28.7433 24.7542 26.7094 24.7542 23.4637C24.7542 23.4637 24.7542 17.4052 24.7542 17.3186H20.3867C20.3867 17.4052 20.3867 23.4637 20.3867 23.4637C20.3867 30.734 25.6277 32.5948 30.1262 32.5948H37.3762C37.9439 32.5948 38.2496 32.465 38.5117 32.1188L41.831 28.3106C42.7918 27.2287 43.3596 26.7526 44.4078 26.7526C45.456 26.7526 46.0237 27.2287 46.9846 28.3106L50.6969 32.5948H55.9379L49.6487 25.3678Z" fill="#009982"/>
</svg>
