<svg width="190" height="50" viewBox="0 0 190 50" fill="none" xmlns="http://www.w3.org/2000/svg">
<rect width="190" height="50" rx="10" fill="white"/>
<path d="M46.61 12.0368L44.1625 9.55788C43.7594 9.14959 43.2699 8.97461 42.7516 8.97461C42.2334 8.97461 41.7151 9.17875 41.3408 9.55788L39.2388 11.6868L37.1369 9.55788C36.7626 9.17875 36.2443 8.97461 35.7548 8.97461C35.2366 8.97461 34.7183 9.14959 34.3152 9.55788L31.8389 12.0659C31.0615 12.8533 31.0615 14.1365 31.8389 14.9239L36.2731 19.386C37.9143 21.0483 40.5633 21.0483 42.2046 19.386L46.6388 14.9239C47.4162 14.1074 47.4162 12.8242 46.61 12.0368Z" fill="#00A73C"/>
<path d="M34.489 27.1716C36.1302 25.5092 36.1302 22.8262 34.489 21.1639L30.0836 16.7019C29.3062 15.9145 28.0393 15.9145 27.2331 16.7019L24.7856 19.1808C24.4113 19.5599 24.2097 20.0557 24.2097 20.5515C24.1809 21.1056 24.3825 21.6305 24.7856 22.068L26.8875 24.1969L24.7856 26.2967C24.3825 26.7049 24.2097 27.2007 24.2097 27.7257C24.2097 28.2506 24.4113 28.7755 24.7856 29.1547L27.2618 31.6627C28.0393 32.4501 29.3062 32.4501 30.0836 31.6627L34.489 27.1716Z" fill="#00A73C"/>
<path d="M46.61 33.443L42.2046 28.9518C40.5633 27.2895 37.9143 27.2895 36.2731 28.9518L31.8389 33.443C31.0615 34.2304 31.0615 35.5136 31.8389 36.301L34.3152 38.8091C34.7183 39.1882 35.2078 39.3923 35.726 39.3923C36.2443 39.3923 36.7626 39.1882 37.1369 38.8091L39.2388 36.6801L41.3408 38.8091C41.7439 39.2173 42.2334 39.3923 42.7516 39.3923C43.2699 39.3923 43.7882 39.1882 44.1625 38.8091L46.61 36.3302C47.4162 35.5136 47.4162 34.2304 46.61 33.443Z" fill="#00A73C"/>
<path d="M51.5677 24.1679L57.1825 18.481C57.5856 18.0728 57.7583 17.577 57.7583 17.052C57.7583 16.5271 57.5568 16.0313 57.1825 15.623L54.7062 13.115C53.9288 12.3276 52.6619 12.3276 51.8845 13.115L43.9663 21.1641C42.325 22.8264 42.325 25.5094 43.9663 27.1717L51.9133 35.1917C52.6907 35.9791 53.9576 35.9791 54.735 35.1917L57.1825 32.7128C57.5856 32.3045 57.7583 31.8087 57.7583 31.2838C57.7583 30.7589 57.5568 30.2339 57.1825 29.8548L51.5677 24.1679Z" fill="#002F7B"/>
<path d="M142.497 34.5799C141.575 33.8508 140.481 33.4717 139.186 33.4717C137.89 33.4717 136.796 33.8508 135.874 34.5799C134.953 35.309 134.492 36.213 134.492 37.2921C134.492 38.3711 134.953 39.2752 135.874 40.0335C136.796 40.7917 137.89 41.1417 139.186 41.1417C140.481 41.1417 141.575 40.7625 142.497 40.0335C143.418 39.2752 143.85 38.3711 143.85 37.2921C143.879 36.213 143.418 35.309 142.497 34.5799ZM140.424 38.8377C140.078 39.3044 139.675 39.5377 139.214 39.5377C138.725 39.5377 138.322 39.3044 137.976 38.8377C137.631 38.3711 137.458 37.8462 137.458 37.2921C137.458 36.738 137.631 36.213 137.976 35.7756C138.322 35.309 138.725 35.0757 139.214 35.0757C139.675 35.0757 140.078 35.309 140.424 35.7756C140.769 36.2422 140.942 36.738 140.942 37.2921C140.942 37.8462 140.769 38.3711 140.424 38.8377Z" fill="#00A73C"/>
<path d="M147.507 32.8887H131.181V31.2556H136.335V27.3477H139.3V31.2556H147.507V32.8887Z" fill="#00A73C"/>
<path d="M132.96 22.6523H145.571V27.2893C145.571 27.8143 145.485 28.3684 145.341 28.9516C145.168 29.5349 144.996 29.9432 144.794 30.1473H142.26C142.404 29.7682 142.519 29.3599 142.577 28.8642C142.635 28.3684 142.663 27.8726 142.663 27.3768V24.3147H132.989V22.6523H132.96Z" fill="#00A73C"/>
<path d="M75.494 22.7979V24.4602H65.8194V30.322H75.7243V31.9552H70.5991V36.0089H76.9337V37.642H61.2988V36.0089H67.691V31.9552H64.9268C64.2933 31.9552 63.8039 31.7802 63.4295 31.4302C63.0552 31.0803 62.8825 30.6136 62.8825 30.0595V22.7979H75.494Z" fill="#00A73C"/>
<path d="M90.0406 27.144V24.4318H80.4235V22.7695H92.9487V28.748H83.5332V31.1394H93.323V32.8018H88.2554V35.9806H94.5899V37.6137H78.9551V35.9806H85.3184V32.8018H82.5255C81.892 32.8018 81.4313 32.6559 81.0858 32.3351C80.7403 32.0143 80.5963 31.5769 80.5963 30.9936V27.144H90.0406Z" fill="#00A73C"/>
<path d="M102.075 28.8638V35.9797H103.544V28.8638H106.365V35.9797H112.211V37.6129H96.6045V35.9797H99.2823V28.8638H102.075ZM97.7274 22.7979H110.684V29.4763C110.684 30.672 110.598 31.6927 110.397 32.5968C110.195 33.4717 109.936 34.2008 109.59 34.7549H106.999C107.373 34.1424 107.604 33.4133 107.69 32.5384C107.776 31.6927 107.805 30.5845 107.805 29.2721V24.431H97.7562V22.7979H97.7274Z" fill="#00A73C"/>
<path d="M118.162 26.9696V28.2237H127.981V29.7985H122.913V31.2275H129.564V32.8607H113.354V31.2275H120.005V29.7985H117.269C116.665 29.7985 116.175 29.6235 115.801 29.2736C115.427 28.9236 115.254 28.4861 115.254 27.9029V22.6826H127.808V24.2866H118.162V25.5698H127.693V26.9696H118.162ZM124.727 34.4646C125.62 35.1937 126.08 36.0978 126.08 37.1477C126.08 38.2267 125.62 39.1308 124.727 39.8599C123.834 40.589 122.74 40.9681 121.444 40.9681C120.149 40.9681 119.055 40.589 118.162 39.8599C117.241 39.1308 116.78 38.2267 116.78 37.1477C116.78 36.0978 117.241 35.1937 118.162 34.4646C119.083 33.7356 120.178 33.3564 121.444 33.3564C122.74 33.3856 123.834 33.7356 124.727 34.4646ZM120.206 35.6312C119.861 36.0978 119.688 36.5936 119.688 37.1477C119.688 37.7309 119.861 38.2267 120.206 38.6933C120.552 39.16 120.955 39.3641 121.444 39.3641C121.905 39.3641 122.308 39.1308 122.654 38.6933C122.999 38.2267 123.172 37.7309 123.172 37.1477C123.172 36.5936 122.999 36.0978 122.654 35.6312C122.308 35.1646 121.905 34.9604 121.444 34.9604C120.984 34.9604 120.552 35.1937 120.206 35.6312Z" fill="#00A73C"/>
<path d="M163.056 22.5361V26.2982H165.791V27.9605H163.056V35.718H160.119V32.1892C159.716 32.3934 159.255 32.5684 158.708 32.685C158.161 32.8308 157.585 32.8892 156.981 32.8892H150.992C150.358 32.8892 149.869 32.7142 149.494 32.3642C149.12 32.0142 148.947 31.5476 148.947 30.9935V23.1194H157.816V24.7526H151.884V31.256H157.125C157.729 31.256 158.276 31.2268 158.766 31.1393C159.255 31.0519 159.687 30.9644 160.062 30.8185V22.5361H163.056ZM154.303 38.7218H163.69V40.3842H153.381C152.806 40.3842 152.316 40.2092 151.942 39.8592C151.567 39.5092 151.366 39.0426 151.366 38.4302V34.9598H154.303V38.7218Z" fill="#00A73C"/>
<path d="M76.9898 14.3416C76.8747 13.875 76.6731 13.4375 76.414 13.0876C76.1548 12.7376 75.8093 12.446 75.4062 12.2418C75.0031 12.0377 74.5136 11.9502 73.9377 11.9502C73.3907 11.9502 72.9012 12.0377 72.4693 12.2418C72.0662 12.446 71.7206 12.7084 71.4615 13.0876C71.2024 13.4375 71.0008 13.8458 70.8568 14.3416C70.7417 14.8082 70.6553 15.3332 70.6553 15.8873C70.6553 16.4414 70.7129 16.9663 70.8568 17.4329C70.972 17.8995 71.1736 18.3078 71.4615 18.6578C71.7206 19.0077 72.0662 19.2994 72.4693 19.4744C72.8724 19.6785 73.3619 19.766 73.9377 19.766C74.4848 19.766 74.9743 19.6785 75.4062 19.4744C75.8093 19.2702 76.1548 19.0077 76.414 18.6578C76.6731 18.3078 76.8747 17.8995 76.9898 17.4329C77.105 16.9663 77.1914 16.4414 77.1914 15.8873C77.1626 15.3332 77.105 14.8082 76.9898 14.3416ZM73.9089 18.1912C72.9875 18.1912 72.5268 17.4329 72.5268 15.8873C72.5268 14.3416 72.9875 13.5833 73.9089 13.5833C74.3696 13.5833 74.7152 13.7583 74.9167 14.1375C75.1471 14.5166 75.2622 15.129 75.2622 15.8873C75.291 17.4329 74.8303 18.1912 73.9089 18.1912Z" fill="#00A73C"/>
<path d="M62.8789 8.97505C63.0517 8.94589 63.2532 8.91673 63.426 8.91673C63.5987 8.91673 63.7715 8.88756 63.9731 8.88756C64.1458 8.88756 64.3186 8.88756 64.4913 8.91673C64.6641 8.91673 64.8369 8.94589 65.0384 8.97505V19.7072C64.8657 19.7364 64.6641 19.7655 64.4913 19.7655C64.3186 19.7655 64.1458 19.7655 63.9731 19.7655C63.8003 19.7655 63.6275 19.7655 63.4548 19.7655C63.282 19.7655 63.1093 19.7364 62.9077 19.7072V8.97505H62.8789ZM65.3264 14.2828L68.1769 8.97505C68.4072 8.94589 68.6088 8.91673 68.8104 8.88756C69.0119 8.88756 69.1847 8.8584 69.3286 8.8584C69.5014 8.8584 69.6742 8.8584 69.8757 8.88756C70.0773 8.91673 70.3076 8.91673 70.5092 8.94589L67.6298 14.1078L70.7683 19.6489C70.538 19.678 70.3364 19.678 70.1061 19.7072C69.9045 19.7364 69.703 19.7364 69.5302 19.7364C69.3862 19.7364 69.2135 19.7364 69.0119 19.7364C68.8104 19.7364 68.6088 19.7072 68.3785 19.6489L65.3264 14.2828Z" fill="#004098"/>
<path d="M78.2841 9.82049C78.6873 9.76216 79.0616 9.733 79.4071 9.70383C79.7526 9.67467 80.1269 9.64551 80.5588 9.64551C81.0483 9.64551 81.5378 9.70383 82.0273 9.79132C82.5168 9.87882 82.9487 10.0538 83.323 10.2871C83.6973 10.5204 84.014 10.8412 84.2732 11.2495C84.5035 11.6578 84.6187 12.1536 84.6187 12.766C84.6187 13.1451 84.5611 13.4659 84.4747 13.7284C84.3884 14.02 84.2732 14.2533 84.1292 14.4575C83.9853 14.6616 83.8413 14.8366 83.6685 15.0116C83.4958 15.1574 83.3518 15.274 83.2078 15.3615L82.9775 15.5074L85.3385 19.6777C85.1658 19.7069 84.9642 19.7069 84.7627 19.7361C84.5611 19.7652 84.3596 19.7652 84.158 19.7652C83.8125 19.7652 83.467 19.7361 83.1502 19.6777L80.6164 15.0991L80.9331 14.9241C81.0483 14.8658 81.2211 14.7783 81.3938 14.6616C81.5666 14.5741 81.7394 14.4283 81.9121 14.2825C82.0849 14.1367 82.2288 13.9617 82.344 13.7284C82.4592 13.5242 82.5168 13.2618 82.5168 12.9701C82.5168 12.3869 82.344 11.9786 82.0273 11.6869C81.7106 11.4245 81.2787 11.2787 80.7604 11.2787C80.5588 11.2787 80.3861 11.2787 80.2133 11.3078V19.6486C80.0405 19.6777 79.8966 19.6777 79.7238 19.7069C79.5511 19.7069 79.4071 19.7361 79.2343 19.7361C79.0904 19.7361 78.9176 19.7361 78.7448 19.7361C78.5721 19.7361 78.3993 19.7069 78.2266 19.6777V9.82049H78.2841Z" fill="#004098"/>
<path d="M89.5745 19.7654C88.8546 19.7654 88.2212 19.6487 87.7029 19.3862C87.1846 19.1238 86.7527 18.7738 86.4072 18.3363C86.0617 17.8989 85.8025 17.3448 85.6586 16.7324C85.4858 16.1199 85.3994 15.4492 85.3994 14.7201C85.3994 13.991 85.4858 13.3202 85.6586 12.7078C85.8313 12.0954 86.0905 11.5413 86.4072 11.1038C86.7527 10.6372 87.1846 10.2872 87.7029 10.0539C88.2212 9.79146 88.8546 9.6748 89.5745 9.6748C90.2943 9.6748 90.9278 9.79146 91.446 10.0539C91.9643 10.3164 92.3962 10.6664 92.7417 11.1038C93.0873 11.5704 93.3464 12.0954 93.4904 12.7078C93.6631 13.3202 93.7495 13.991 93.7495 14.7201C93.7495 15.4492 93.6631 16.1199 93.4904 16.7324C93.3176 17.3448 93.0585 17.8697 92.7417 18.3363C92.3962 18.7738 91.9643 19.1238 91.446 19.3862C90.9278 19.6487 90.2943 19.7654 89.5745 19.7654ZM89.5745 18.103C90.9566 18.103 91.6476 16.9657 91.6476 14.7201C91.6476 13.5827 91.4748 12.737 91.1581 12.1829C90.8126 11.6288 90.2943 11.3371 89.6033 11.3371C88.1924 11.3371 87.5013 12.4745 87.5013 14.7201C87.4725 16.9657 88.1924 18.103 89.5745 18.103Z" fill="#004098"/>
<path d="M96.7113 9.733C96.9128 9.70383 97.0856 9.67467 97.2583 9.67467C97.4311 9.67467 97.6326 9.64551 97.8342 9.64551C98.007 9.64551 98.1797 9.64551 98.3525 9.67467C98.5252 9.70383 98.7268 9.70383 98.9284 9.733L102.009 19.6777C101.635 19.7361 101.261 19.7652 100.915 19.7652C100.57 19.7652 100.224 19.7361 99.9073 19.6777L99.3603 17.6946H96.1066L95.5595 19.6777C95.2428 19.7361 94.9261 19.7652 94.6093 19.7652C94.2638 19.7652 93.9471 19.7361 93.6016 19.6777L96.7113 9.733ZM98.8996 16.0031L97.7766 11.8328L96.5961 16.0031H98.8996Z" fill="#004098"/>
<path d="M102.816 9.82049C103.19 9.76216 103.593 9.733 103.996 9.70383C104.4 9.67467 104.86 9.64551 105.35 9.64551C107.049 9.64551 108.315 10.083 109.208 10.9287C110.101 11.7744 110.533 13.0576 110.533 14.7783C110.533 16.4989 110.072 17.7529 109.179 18.5695C108.287 19.3861 106.962 19.7944 105.206 19.7944C104.745 19.7944 104.342 19.7652 103.939 19.7361C103.565 19.7069 103.161 19.6777 102.787 19.6194V9.82049H102.816ZM104.774 18.0154C104.86 18.0154 104.947 18.0446 105.091 18.0446C105.206 18.0446 105.379 18.0446 105.551 18.0446C105.954 18.0446 106.329 17.9862 106.703 17.8988C107.049 17.8113 107.365 17.6363 107.624 17.3738C107.884 17.1113 108.085 16.7905 108.229 16.3531C108.373 15.9156 108.459 15.3907 108.459 14.7199C108.459 14.0492 108.373 13.5242 108.229 13.0868C108.085 12.6493 107.884 12.2994 107.624 12.0369C107.365 11.7744 107.077 11.5995 106.732 11.512C106.386 11.3953 106.041 11.3662 105.666 11.3662C105.551 11.3662 105.407 11.3662 105.235 11.3662C105.062 11.3662 104.918 11.3953 104.803 11.3953V18.0154H104.774Z" fill="#004098"/>
</svg>
