<svg width="190" height="50" viewBox="0 0 190 50" fill="none" xmlns="http://www.w3.org/2000/svg">
<rect width="190" height="50" rx="10" fill="white"/>
<path d="M109.035 15.1959H101.26L97.0377 20.1046L93.5599 15.1959H85.8709L93.0369 24.4536L87.4939 30.4919H81.2391C80.4034 30.4919 79.7186 29.845 79.7186 29.0491V19.9609H87.6017L83.865 15.1959H79.7186V10.6826H72.8977V15.1959H54.7211C50.7041 15.1959 48.1914 18.0457 48.1914 21.4807C48.1914 24.9106 50.7041 27.7603 54.7211 27.7603H61.7631C62.5989 27.7603 63.2783 28.32 63.2783 29.121C63.2783 29.9169 62.5989 30.4919 61.7631 30.4919H48.9517V35.262H63.3861C67.4086 35.262 69.9159 32.4072 69.9159 28.9721C69.9159 25.537 67.4086 22.6873 63.3861 22.6873H56.3441C55.503 22.6873 54.8236 22.1225 54.8236 21.3318C54.8236 20.5359 55.503 19.9609 56.3441 19.9609H72.8977V29.0491C72.8977 32.4842 75.4049 35.262 79.4274 35.262H90.9124L96.3152 29.0029L100.845 35.262H108.501L100.359 24.5769L109.035 15.1959Z" fill="#ED1B23"/>
<path d="M117.401 27.7797C116.657 28.2367 115.853 28.4678 115.001 28.4678C113.88 28.4678 112.904 28.1289 112.073 27.4563C111.205 26.7374 110.769 25.8389 110.769 24.776C110.769 23.7029 111.2 22.8094 112.073 22.0957C112.898 21.4334 113.869 21.0996 115.001 21.0996C115.923 21.0996 116.77 21.3512 117.541 21.8493C118.339 22.373 118.851 23.0508 119.078 23.8877H120.108V21.4231H122.329V30.9683H120.108V25.957H118.975C118.689 26.7169 118.166 27.3228 117.401 27.7797ZM112.656 30.2238H115.088V33.2738H125.57V35.3173H113.826C113.421 35.3173 113.136 35.2352 112.963 35.0709C112.753 34.8758 112.65 34.5472 112.65 34.0902V30.2238H112.656ZM113.632 23.518C113.238 23.8569 113.049 24.2779 113.049 24.7811C113.049 25.274 113.238 25.7002 113.632 26.0494C114.02 26.3883 114.478 26.5628 115.001 26.5628C115.503 26.5628 115.945 26.3934 116.322 26.0494C116.721 25.7002 116.926 25.274 116.926 24.7811C116.926 24.2831 116.727 23.8569 116.322 23.518C115.945 23.1894 115.503 23.0251 115.001 23.0251C114.467 23.02 114.009 23.1894 113.632 23.518ZM123.111 21.4385H125.435V30.994H123.111V21.4385Z" fill="#005AAA"/>
<path d="M136.783 21.428V23.4716H133.715C133.823 24.3547 134.098 25.0479 134.535 25.5665C135.063 26.1724 136.422 26.7423 137.446 26.8912L136.848 28.8937C135.926 28.827 135.068 28.5702 134.281 28.1235C133.467 27.6665 132.858 27.0658 132.442 26.3264C132.011 27.0555 131.348 27.6614 130.469 28.1389C129.655 28.5754 128.841 28.8167 128.016 28.8732L127.396 26.8861C128.409 26.732 129.8 26.1672 130.318 25.5613C130.733 25.0479 130.992 24.3496 131.105 23.4664H128.086V21.4229H136.783V21.428ZM128.894 30.2544H131.326V33.2735H141.808V35.3171H130.086C129.682 35.3171 129.391 35.235 129.207 35.0706C129.002 34.8755 128.9 34.5469 128.9 34.0899V30.2544H128.894ZM139.242 21.428H141.674V30.9835H139.242V21.428Z" fill="#005AAA"/>
</svg>
