<svg width="76" height="77" viewBox="0 0 76 77" fill="none" xmlns="http://www.w3.org/2000/svg">
<path d="M44.4835 16.3818C50.81 16.3818 55.3255 17.7263 58.0299 20.4152C60.01 22.4522 61 24.9985 61 28.0541C61 29.1541 60.8793 30.3152 60.6378 31.5374L57.8126 45.1652C56.8467 49.7689 54.4803 53.4559 50.7134 56.2263C46.9465 58.9967 42.0688 60.3818 36.0803 60.3818H15L24.2 16.3818H44.4835ZM39.9197 25.9152H35.211L30.0677 50.8485H36.9496C39.2194 50.8485 40.9822 50.3392 42.2378 49.3207C43.5417 48.2615 44.4352 46.5503 44.9181 44.1874L47.0189 34.1652C47.2121 33.2689 47.3087 32.4541 47.3087 31.7207C47.3087 27.8504 44.8457 25.9152 39.9197 25.9152Z" fill="#00468B"/>
</svg>
