<svg width="137" height="40" viewBox="0 0 137 40" fill="none" xmlns="http://www.w3.org/2000/svg">
<g clip-path="url(#clip0_1286_36967)">
<path d="M22.144 25.6553L15.1474 29.3324L15.1512 29.3131L11.3059 31.3237L10.5654 35.6389L22.144 29.5528L28.1585 32.7157L27.3948 28.416L22.144 25.6553Z" fill="white"/>
<path d="M24.0611 3.8942L22.1433 0.00439453L16.3531 11.7337L9.64062 12.7101L12.7629 15.7434L18.646 14.8889L24.0611 3.8942Z" fill="white"/>
<path d="M16.4812 21.5452L7.6808 12.998L3.4082 13.6186L12.7751 22.7496L11.6363 29.3809L15.4836 27.3702L16.4812 21.5452Z" fill="white"/>
<path d="M32.0512 17.3949L30.9472 18.4717L27.8018 21.538L28.7858 27.2741L29.9149 33.6327L33.7196 35.6337L31.5098 22.7424L36.3586 18.0155L32.0512 17.3949Z" fill="white"/>
<path d="M27.673 15.1852L37.7745 16.6409L40.8774 13.6172L36.6222 12.9986L36.5836 12.9947L27.932 11.7361L24.9373 5.66943L23.0156 9.57084L25.6411 14.8913L27.673 15.1852Z" fill="white"/>
<path d="M34.2632 27.0235C33.5382 25.9273 33.3197 24.7944 33.774 24.4947C34.2284 24.1951 35.1834 24.8389 35.9084 25.9351C36.6334 27.0312 36.8519 28.1642 36.3975 28.4638C35.9432 28.7635 34.9882 28.1197 34.2632 27.0235Z" fill="white"/>
<path d="M32.1095 10.5455C30.3754 10.8045 28.8848 10.4314 28.7765 9.7122C28.6702 8.99302 29.9887 8.20229 31.7209 7.94323C33.4551 7.68417 34.9457 8.0573 35.0539 8.77649C35.1603 9.49567 33.8418 10.2864 32.1095 10.5455Z" fill="white"/>
<path d="M17.3764 5.88269C17.0922 8.05378 16.1314 9.72029 15.2304 9.60236C14.3295 9.48443 13.8307 7.62846 14.1168 5.45543C14.401 3.28433 15.3619 1.61782 16.2628 1.73575C17.1637 1.85368 17.6625 3.70965 17.3764 5.88269Z" fill="white"/>
<path d="M7.52561 20.7817C9.55364 22.106 10.7542 23.8595 10.2052 24.7005C9.65611 25.5415 7.56814 25.1491 5.53817 23.8267C3.51014 22.5024 2.30956 20.7489 2.85862 19.9079C3.40767 19.0669 5.49564 19.4593 7.52561 20.7817Z" fill="white"/>
<path d="M18.1474 34.2181C19.6767 32.2848 21.5674 31.2292 22.3678 31.8633C23.1701 32.4974 22.5786 34.5796 21.0493 36.5129C19.5201 38.4462 17.6293 39.5018 16.8289 38.8677C16.0285 38.2336 16.6182 36.1514 18.1474 34.2181Z" fill="white"/>
<path d="M118.179 24.1223C118.179 25.5173 119.37 26.2148 121.754 26.2148C124.162 26.2148 125.366 25.588 125.366 24.3346C125.366 23.6675 124.956 23.1216 124.138 22.6971C123.319 22.2725 122.32 21.9188 121.14 21.6357C119.984 21.3527 118.817 21.0292 117.637 20.6653C116.481 20.2812 115.494 19.6949 114.675 18.9065C113.857 18.0978 113.447 17.0971 113.447 15.9044C113.447 10.83 117.336 8.29285 125.113 8.29285C127.954 8.29285 130.097 8.74772 131.541 9.65746C133.01 10.547 133.744 11.7903 133.744 13.3874C133.744 13.9737 133.648 14.5397 133.456 15.0856C133.287 15.6112 133.106 15.9852 132.914 16.2076L132.625 16.5715H126.232C126.762 16.1065 127.027 15.5202 127.027 14.8127C127.027 13.4986 126.004 12.8416 123.957 12.8416C121.381 12.8416 120.093 13.5289 120.093 14.9036C120.093 15.591 120.502 16.1368 121.321 16.5412C122.139 16.9455 123.126 17.269 124.282 17.5116C125.462 17.7339 126.642 18.017 127.821 18.3607C129.001 18.7043 130 19.2805 130.819 20.0892C131.638 20.8776 132.047 21.9086 132.047 23.1823C132.047 25.7498 131.132 27.6602 129.302 28.9137C127.472 30.1469 124.655 30.7635 120.851 30.7635C117.047 30.7635 114.447 30.1974 113.05 29.0653C112.015 28.2162 111.497 27.0436 111.497 25.5476C111.497 24.9815 111.569 24.3649 111.714 23.6978L111.822 23.2126H118.323L118.251 23.5765C118.203 23.7787 118.179 23.9606 118.179 24.1223Z" fill="white"/>
<path fill-rule="evenodd" clip-rule="evenodd" d="M97.5656 23.6974H101.863C104.392 23.6974 106.534 23.1617 108.292 22.0902C110.05 20.9985 111.109 19.6137 111.47 17.9357L112.193 14.5091C112.289 14.0441 112.337 13.5993 112.337 13.1748C112.337 11.9213 111.916 10.8903 111.073 10.0816C109.917 9.03039 107.979 8.50476 105.258 8.50476H91.3319L90.3381 13.2353L102.983 13.2354C103.946 13.2354 104.608 13.4174 104.969 13.7813C105.331 14.1452 105.511 14.4787 105.511 14.782C105.511 15.0852 105.487 15.3278 105.439 15.5098L105.186 16.7531C104.873 18.2289 103.729 18.9668 101.755 18.9668H92.0452L89.6562 30.3385H96.1571L97.5656 23.6974Z" fill="white"/>
<path d="M86.9788 30.3386H68.8486L73.4353 8.50476H91.5655L90.5543 13.2354H78.925L78.0943 17.3293H87.7011L86.6899 22.0599H77.083L76.3607 25.6079H87.99L86.9788 30.3386Z" fill="white"/>
<path d="M60.832 8.50476C63.9861 8.50476 66.2373 9.1719 67.5856 10.5062C68.5728 11.517 69.0664 12.7805 69.0664 14.2968C69.0664 14.8426 69.0062 15.4188 68.8858 16.0253L67.4773 22.7877C66.9957 25.0722 65.8159 26.9018 63.9379 28.2765C62.0599 29.6512 59.6281 30.3386 56.6425 30.3386H46.1328L50.7195 8.50476H60.832ZM58.5567 13.2354H56.2091L53.6449 25.6079H57.0759C58.2075 25.6079 59.0864 25.3552 59.7124 24.8498C60.3625 24.3242 60.8079 23.4751 61.0487 22.3025L62.096 17.3293C62.1923 16.8845 62.2405 16.4802 62.2405 16.1163C62.2405 14.1957 61.0125 13.2354 58.5567 13.2354Z" fill="white"/>
</g>
<defs>
<clipPath id="clip0_1286_36967">
<rect width="136.47" height="39.0475" fill="white" transform="translate(0 0.00439453)"/>
</clipPath>
</defs>
</svg>
