<svg width="158" height="46" viewBox="0 0 158 46" fill="none" xmlns="http://www.w3.org/2000/svg">
<g clip-path="url(#clip0_1286_70935)">
<path d="M25.5628 29.9542L17.4863 34.1989L17.4908 34.1765L13.052 36.4975L12.1973 41.4786L25.5628 34.4533L32.5055 38.1043L31.624 33.1411L25.5628 29.9542Z" fill="#2F85D4"/>
<path d="M27.773 4.83461L25.5592 0.344482L18.8753 13.884L11.127 15.011L14.7311 18.5125L21.5221 17.5261L27.773 4.83461Z" fill="#9AC2E7"/>
<path d="M19.0261 25.2097L8.86754 15.3434L3.93555 16.0598L14.748 26.6L13.4335 34.2546L17.8746 31.9337L19.0261 25.2097Z" fill="#66ACDE"/>
<path d="M36.997 20.419L35.7227 21.662L32.0918 25.2015L33.2277 31.8228L34.531 39.1628L38.9229 41.4726L36.3721 26.5918L41.9692 21.1354L36.997 20.419Z" fill="#0A4081"/>
<path d="M31.9425 17.8682L43.603 19.5486L47.1848 16.0583L42.2729 15.3442L42.2283 15.3397L32.2416 13.8869L28.7847 6.88391L26.5664 11.3874L29.597 17.529L31.9425 17.8682Z" fill="#1B609F"/>
<path d="M39.553 31.5335C38.7161 30.2681 38.4639 28.9603 38.9883 28.6144C39.5128 28.2685 40.6152 29.0117 41.4521 30.277C42.289 31.5424 42.5412 32.8501 42.0167 33.196C41.4923 33.542 40.3898 32.7988 39.553 31.5335Z" fill="#0A4081"/>
<path d="M37.0672 12.5124C35.0654 12.8114 33.3448 12.3807 33.2198 11.5505C33.0971 10.7203 34.6191 9.80759 36.6187 9.50854C38.6205 9.2095 40.3411 9.64021 40.4661 10.4704C40.5888 11.3006 39.0668 12.2133 37.0672 12.5124Z" fill="#1B609F"/>
<path d="M20.0589 7.12992C19.7308 9.63609 18.6217 11.5598 17.5817 11.4237C16.5418 11.2875 15.966 9.14512 16.2963 6.63672C16.6244 4.13055 17.7335 2.20685 18.7735 2.34298C19.8134 2.47912 20.3892 4.62152 20.0589 7.12992Z" fill="#9AC2E7"/>
<path d="M8.6873 24.3284C11.0283 25.8571 12.4142 27.8813 11.7804 28.852C11.1466 29.8228 8.7364 29.3698 6.39314 27.8433C4.05212 26.3146 2.66625 24.2905 3.30004 23.3197C3.93384 22.349 6.34404 22.802 8.6873 24.3284Z" fill="#66ACDE"/>
<path d="M20.95 39.8385C22.7152 37.6068 24.8978 36.3883 25.8217 37.1203C26.7479 37.8523 26.065 40.2558 24.2997 42.4875C22.5345 44.7192 20.3519 45.9377 19.428 45.2057C18.5041 44.4737 19.1847 42.0702 20.95 39.8385Z" fill="#2F85D4"/>
<path d="M136.418 28.1846C136.418 29.7948 137.793 30.5999 140.545 30.5999C143.324 30.5999 144.714 29.8765 144.714 28.4296C144.714 27.6595 144.241 27.0294 143.296 26.5394C142.351 26.0493 141.198 25.6409 139.836 25.3142C138.502 24.9875 137.154 24.6141 135.792 24.194C134.458 23.7507 133.319 23.0739 132.374 22.1638C131.429 21.2303 130.956 20.0752 130.956 18.6983C130.956 12.8408 135.445 9.91211 144.422 9.91211C147.702 9.91211 150.175 10.4372 151.843 11.4873C153.538 12.5141 154.386 13.9493 154.386 15.7929C154.386 16.4697 154.275 17.1231 154.052 17.7532C153.858 18.3599 153.649 18.7916 153.427 19.0484L153.094 19.4684H145.714C146.326 18.9317 146.632 18.2549 146.632 17.4381C146.632 15.9213 145.45 15.1628 143.088 15.1628C140.114 15.1628 138.627 15.9563 138.627 17.5431C138.627 18.3366 139.1 18.9667 140.045 19.4334C140.99 19.9001 142.129 20.2735 143.463 20.5536C144.825 20.8103 146.187 21.137 147.549 21.5337C148.911 21.9304 150.064 22.5955 151.009 23.529C151.954 24.4391 152.426 25.6292 152.426 27.0994C152.426 30.0632 151.37 32.2685 149.258 33.7153C147.146 35.1389 143.894 35.8506 139.503 35.8506C135.111 35.8506 132.11 35.1972 130.498 33.8904C129.303 32.9102 128.705 31.5567 128.705 29.8298C128.705 29.1764 128.788 28.4646 128.955 27.6945L129.08 27.1344H136.584L136.501 27.5545C136.445 27.7879 136.418 27.9979 136.418 28.1846Z" fill="#00468B"/>
<path fill-rule="evenodd" clip-rule="evenodd" d="M112.62 27.6941H117.581C120.5 27.6941 122.973 27.0757 125.002 25.8389C127.031 24.5787 128.254 22.9801 128.671 21.0432L129.505 17.0877C129.616 16.5509 129.671 16.0375 129.671 15.5475C129.671 14.1006 129.185 12.9104 128.212 11.977C126.878 10.7635 124.641 10.1567 121.5 10.1567H105.424L104.277 15.6173L118.874 15.6175C119.985 15.6175 120.75 15.8275 121.167 16.2476C121.584 16.6676 121.792 17.0527 121.792 17.4027C121.792 17.7528 121.764 18.0328 121.709 18.2428L121.417 19.678C121.055 21.3816 119.735 22.2334 117.456 22.2334H106.248L103.49 35.3602H110.994L112.62 27.6941Z" fill="#00468B"/>
<path d="M100.401 35.3602H79.4727L84.7672 10.1567H105.695L104.528 15.6175H91.1041L90.1452 20.3431H101.235L100.067 25.8039H88.9779L88.1441 29.8994H101.568L100.401 35.3602Z" fill="#00468B"/>
<path d="M70.2196 10.1567C73.8605 10.1567 76.4592 10.9268 78.0156 12.4671C79.1551 13.6339 79.7249 15.0924 79.7249 16.8426C79.7249 17.4727 79.6554 18.1378 79.5164 18.8379L77.8905 26.644C77.3347 29.281 75.9728 31.393 73.8049 32.9798C71.6371 34.5667 68.83 35.3602 65.3836 35.3602H53.252L58.5465 10.1567H70.2196ZM67.5932 15.6175H64.8834L61.9234 29.8994H65.8839C67.1902 29.8994 68.2046 29.6077 68.9273 29.0243C69.6777 28.4176 70.1918 27.4374 70.4698 26.0839L71.6788 20.3431C71.7899 19.8297 71.8455 19.363 71.8455 18.9429C71.8455 16.726 70.4281 15.6175 67.5932 15.6175Z" fill="#00468B"/>
</g>
<defs>
<clipPath id="clip0_1286_70935">
<rect width="157.531" height="45.0738" fill="white" transform="translate(0 0.344482)"/>
</clipPath>
</defs>
</svg>
