<svg width="109" height="32" viewBox="0 0 109 32" fill="none" xmlns="http://www.w3.org/2000/svg">
<g clip-path="url(#clip0_1378_19085)">
<path d="M17.5994 20.8701L12.0383 23.7928L12.0414 23.7774L8.98502 25.3755L8.39648 28.8053L17.5994 23.968L22.3799 26.4819L21.7729 23.0644L17.5994 20.8701Z" fill="#2F85D4"/>
<path d="M19.1239 3.57365L17.5996 0.481934L12.9973 9.80472L7.66211 10.5807L10.1438 12.9917L14.8198 12.3125L19.1239 3.57365Z" fill="#9AC2E7"/>
<path d="M13.0997 17.6031L6.10495 10.8096L2.70898 11.3028L10.154 18.5604L9.24892 23.831L12.3068 22.2329L13.0997 17.6031Z" fill="#66ACDE"/>
<path d="M25.4752 14.3042L24.5978 15.1601L22.0977 17.5972L22.8798 22.1564L23.7772 27.2104L26.8013 28.8008L25.0449 18.5545L28.8988 14.7975L25.4752 14.3042Z" fill="#0A4081"/>
<path d="M21.9947 12.5482L30.0237 13.7053L32.49 11.302L29.1078 10.8103L29.0771 10.8072L22.2006 9.80684L19.8204 4.98486L18.293 8.0858L20.3797 12.3146L21.9947 12.5482Z" fill="#1B609F"/>
<path d="M27.2324 21.9575C26.6561 21.0862 26.4825 20.1857 26.8436 19.9476C27.2047 19.7094 27.9638 20.2211 28.54 21.0924C29.1163 21.9636 29.2899 22.8641 28.9288 23.1023C28.5677 23.3405 27.8086 22.8288 27.2324 21.9575Z" fill="#0A4081"/>
<path d="M25.5211 8.86027C24.1428 9.06618 22.958 8.76961 22.872 8.19798C22.7874 7.62635 23.8354 6.99786 25.2123 6.79195C26.5906 6.58604 27.7754 6.88261 27.8614 7.45424C27.9459 8.02587 26.898 8.65436 25.5211 8.86027Z" fill="#1B609F"/>
<path d="M13.8112 5.15429C13.5853 6.87993 12.8216 8.20452 12.1055 8.11078C11.3894 8.01705 10.993 6.54187 11.2204 4.81469C11.4463 3.08905 12.21 1.76446 12.9261 1.8582C13.6421 1.95193 14.0386 3.42711 13.8112 5.15429Z" fill="#9AC2E7"/>
<path d="M5.9812 16.9963C7.59313 18.0489 8.54739 19.4426 8.11098 20.1111C7.67458 20.7795 6.015 20.4676 4.40153 19.4165C2.7896 18.3639 1.83535 16.9702 2.27175 16.3017C2.70816 15.6333 4.36773 15.9452 5.9812 16.9963Z" fill="#66ACDE"/>
<path d="M14.4237 27.6758C15.6392 26.1391 17.142 25.3001 17.7782 25.8042C18.4159 26.3082 17.9457 27.9631 16.7302 29.4998C15.5147 31.0364 14.0119 31.8754 13.3757 31.3714C12.7396 30.8674 13.2082 29.2124 14.4237 27.6758Z" fill="#2F85D4"/>
<path d="M93.9307 19.6515C93.9307 20.7602 94.878 21.3146 96.7726 21.3146C98.6863 21.3146 99.6431 20.8165 99.6431 19.8202C99.6431 19.29 99.3178 18.8561 98.6671 18.5187C98.0165 18.1812 97.2223 17.9 96.2846 17.6751C95.366 17.4501 94.4378 17.193 93.5001 16.9038C92.5815 16.5985 91.7969 16.1325 91.1462 15.5058C90.4956 14.8631 90.1702 14.0677 90.1702 13.1196C90.1702 9.08643 93.2609 7.06982 99.4422 7.06982C101.7 7.06982 103.404 7.43137 104.552 8.15445C105.719 8.86147 106.303 9.84969 106.303 11.1191C106.303 11.5851 106.226 12.035 106.073 12.4689C105.939 12.8866 105.796 13.1839 105.643 13.3607L105.413 13.6499H100.332C100.753 13.2803 100.964 12.8143 100.964 12.2519C100.964 11.2075 100.15 10.6853 98.5236 10.6853C96.4759 10.6853 95.4521 11.2316 95.4521 12.3242C95.4521 12.8706 95.7774 13.3044 96.4281 13.6258C97.0788 13.9472 97.8634 14.2043 98.782 14.3971C99.7197 14.5738 100.657 14.7988 101.595 15.072C102.533 15.3451 103.327 15.8031 103.978 16.4458C104.628 17.0725 104.954 17.892 104.954 18.9043C104.954 20.945 104.227 22.4635 102.772 23.4598C101.318 24.44 99.0786 24.93 96.0549 24.93C93.0312 24.93 90.9644 24.4801 89.8545 23.5803C89.0316 22.9054 88.6201 21.9734 88.6201 20.7843C88.6201 20.3344 88.6775 19.8443 88.7924 19.3141L88.8785 18.9284H94.0455L93.9881 19.2177C93.9498 19.3784 93.9307 19.523 93.9307 19.6515Z" fill="#00468B"/>
<path fill-rule="evenodd" clip-rule="evenodd" d="M77.5473 19.3138H80.9633C82.9727 19.3138 84.6759 18.888 86.073 18.0364C87.47 17.1687 88.312 16.068 88.5991 14.7343L89.1732 12.0106C89.2497 11.6411 89.288 11.2876 89.288 10.9501C89.288 9.95387 88.9531 9.13437 88.2833 8.49163C87.3647 7.65606 85.8242 7.23828 83.6617 7.23828H72.5926L71.8027 10.9982L81.8532 10.9983C82.6187 10.9983 83.145 11.1429 83.432 11.4322C83.7191 11.7214 83.8626 11.9865 83.8626 12.2276C83.8626 12.4686 83.8435 12.6614 83.8052 12.806L83.6043 13.7943C83.3555 14.9673 82.4464 15.5538 80.8772 15.5538H73.1595L71.2607 24.5923H76.4278L77.5473 19.3138Z" fill="#00468B"/>
<path d="M69.132 24.5923H54.7217L58.3673 7.23828H72.7776L71.9739 10.9983H62.7306L62.0704 14.2522H69.7061L68.9023 18.0123H61.2666L60.6925 20.8323H69.9358L69.132 24.5923Z" fill="#00468B"/>
<path d="M48.3503 7.23828C50.8572 7.23828 52.6466 7.76854 53.7182 8.82907C54.5029 9.6325 54.8952 10.6368 54.8952 11.8419C54.8952 12.2758 54.8473 12.7337 54.7516 13.2158L53.6321 18.5907C53.2494 20.4065 52.3117 21.8607 50.819 22.9533C49.3262 24.046 47.3934 24.5923 45.0204 24.5923H36.667L40.3126 7.23828H48.3503ZM46.5418 10.9983H44.6759L42.6378 20.8323H45.3648C46.2643 20.8323 46.9628 20.6314 47.4604 20.2297C47.9771 19.8119 48.3311 19.1371 48.5225 18.2051L49.355 14.2522C49.4315 13.8987 49.4698 13.5773 49.4698 13.2881C49.4698 11.7616 48.4938 10.9983 46.5418 10.9983Z" fill="#00468B"/>
</g>
<defs>
<clipPath id="clip0_1378_19085">
<rect width="108.47" height="31.036" fill="white" transform="translate(0 0.481934)"/>
</clipPath>
</defs>
</svg>
