<svg width="41" height="40" viewBox="0 0 41 40" fill="none" xmlns="http://www.w3.org/2000/svg">
<path d="M31.25 25C26.4175 25 22.5 21.0825 22.5 16.25C22.5 11.4175 26.4175 7.5 31.25 7.5C36.0825 7.5 40 11.4175 40 16.25L40.04 17.5C40.04 27.165 32.205 35 22.54 35V30C25.88 30 29.0175 28.7 31.38 26.34C31.835 25.885 32.25 25.4025 32.6225 24.895C32.175 24.965 31.7175 25.0025 31.25 25.0025V25ZM8.75 25C3.9175 25 0 21.0825 0 16.25C0 11.4175 3.9175 7.5 8.75 7.5C13.5825 7.5 17.5 11.4175 17.5 16.25L17.54 17.5C17.54 27.165 9.705 35 0.04 35V30C3.38 30 6.5175 28.7 8.88 26.34C9.335 25.885 9.75 25.4025 10.1225 24.895C9.675 24.965 9.2175 25.0025 8.75 25.0025V25Z" fill="#EAEAEA"/>
</svg>
