<svg width="18" height="19" viewBox="0 0 18 19" fill="none" xmlns="http://www.w3.org/2000/svg">
<path d="M9.75 14.7502H14.25V7.9837L9 3.9007L3.75 7.9837V14.7502H8.25V10.2502H9.75V14.7502ZM15.75 15.5002C15.75 15.6991 15.671 15.8899 15.5303 16.0305C15.3897 16.1712 15.1989 16.2502 15 16.2502H3C2.80109 16.2502 2.61032 16.1712 2.46967 16.0305C2.32902 15.8899 2.25 15.6991 2.25 15.5002V7.6177C2.24992 7.50341 2.27596 7.39062 2.32614 7.28793C2.37631 7.18524 2.44929 7.09538 2.5395 7.0252L8.5395 2.3587C8.67116 2.25629 8.8332 2.20068 9 2.20068C9.1668 2.20068 9.32884 2.25629 9.4605 2.3587L15.4605 7.0252C15.5507 7.09538 15.6237 7.18524 15.6739 7.28793C15.724 7.39062 15.7501 7.50341 15.75 7.6177V15.5002Z" fill="#111111"/>
</svg>
