<svg width="41" height="40" viewBox="0 0 41 40" fill="none" xmlns="http://www.w3.org/2000/svg">
<path d="M8.79 17.5C13.6225 17.5 17.54 21.4175 17.54 26.25C17.54 31.0825 13.6225 35 8.79 35C3.9575 35 0.04 31.0825 0.04 26.25L0 25C0 15.335 7.835 7.5 17.5 7.5V12.5C14.16 12.5 11.0225 13.8 8.66 16.16C8.205 16.615 7.79 17.0975 7.4175 17.605C7.865 17.535 8.3225 17.4975 8.7875 17.4975L8.79 17.5ZM31.29 17.5C36.1225 17.5 40.04 21.4175 40.04 26.25C40.04 31.0825 36.1225 35 31.29 35C26.4575 35 22.54 31.0825 22.54 26.25L22.5 25C22.5 15.335 30.335 7.5 40 7.5V12.5C36.66 12.5 33.5225 13.8 31.16 16.16C30.705 16.615 30.29 17.0975 29.9175 17.605C30.365 17.535 30.8225 17.5 31.29 17.5Z" fill="#EAEAEA"/>
</svg>
