<svg width="20" height="20" viewBox="0 0 20 20" fill="none" xmlns="http://www.w3.org/2000/svg">
<path d="M5.83301 15.0002L14.1663 15.0002V13.3335L5.83301 13.3335V15.0002Z" fill="white"/>
<path d="M14.1663 11.6667L5.83301 11.6667V10L14.1663 10V11.6667Z" fill="white"/>
<path d="M5.83301 8.33317H9.16634V6.6665H5.83301V8.33317Z" fill="white"/>
<path fill-rule="evenodd" clip-rule="evenodd" d="M5 1.6665C3.61929 1.6665 2.5 2.7858 2.5 4.1665L2.5 15.8332C2.5 17.2139 3.61929 18.3332 5 18.3332H15C16.3807 18.3332 17.5 17.2139 17.5 15.8332V7.49984C17.5 4.27818 14.8883 1.6665 11.6667 1.6665L5 1.6665ZM5 3.33317L10.8333 3.33317V7.49984L15.8333 7.49984L15.8333 15.8332C15.8333 16.2934 15.4602 16.6665 15 16.6665H5C4.53977 16.6665 4.16667 16.2934 4.16667 15.8332L4.16667 4.1665C4.16667 3.70627 4.53977 3.33317 5 3.33317ZM12.5 3.41652C13.8427 3.68909 14.9511 4.60739 15.4867 5.83317L12.5 5.83317V3.41652Z" fill="white"/>
</svg>
