<svg width="76" height="77" viewBox="0 0 76 77" fill="none" xmlns="http://www.w3.org/2000/svg">
<path fill-rule="evenodd" clip-rule="evenodd" d="M31.0414 47.1167H39.758C44.8854 47.1167 49.2314 46.037 52.7962 43.8778C56.3609 41.6778 58.5096 38.887 59.2421 35.5056L60.707 28.6C60.9023 27.663 61 26.7667 61 25.9111C61 23.3852 60.1454 21.3074 58.4363 19.6778C56.0924 17.5593 52.1614 16.5 46.6433 16.5H18.3984L16.383 26.033L42.0287 26.0333C43.982 26.0333 45.3248 26.4 46.0573 27.1333C46.7898 27.8667 47.1561 28.5389 47.1561 29.15C47.1561 29.7611 47.1072 30.25 47.0096 30.6167L46.4968 33.1222C45.862 36.0963 43.5425 37.5833 39.5382 37.5833H19.8451L15 60.5H28.1847L31.0414 47.1167Z" fill="#00468B"/>
</svg>
