<svg width="76" height="77" viewBox="0 0 76 77" fill="none" xmlns="http://www.w3.org/2000/svg">
<path d="M29.5146 47.7004C29.5146 50.4939 31.9253 51.8907 36.7468 51.8907C41.6169 51.8907 44.052 50.6356 44.052 48.1255C44.052 46.7895 43.224 45.6964 41.5682 44.8462C39.9123 43.996 37.8912 43.2875 35.5049 42.7206C33.1672 42.1538 30.8052 41.5061 28.4188 40.7773C26.0812 40.0081 24.0844 38.834 22.4286 37.2551C20.7727 35.6356 19.9448 33.6316 19.9448 31.2429C19.9448 21.081 27.8101 16 43.5406 16C49.2873 16 53.6217 16.9109 56.5438 18.7328C59.5146 20.5142 61 23.0041 61 26.2024C61 27.3765 60.8052 28.5101 60.4156 29.6032C60.0747 30.6559 59.7094 31.4049 59.3198 31.8502L58.7354 32.5789H45.8052C46.8766 31.6478 47.4123 30.4737 47.4123 29.0567C47.4123 26.4251 45.3425 25.1093 41.2029 25.1093C35.9919 25.1093 33.3864 26.4858 33.3864 29.2389C33.3864 30.6154 34.2143 31.7085 35.8701 32.5182C37.526 33.3279 39.5227 33.9757 41.8604 34.4615C44.2468 34.9069 46.6331 35.4737 49.0195 36.1619C51.4058 36.8502 53.4269 38.004 55.0828 39.6235C56.7386 41.2024 57.5666 43.2672 57.5666 45.8178C57.5666 50.9595 55.7159 54.7854 52.0146 57.2955C48.3133 59.7652 42.6153 61 34.9205 61C27.2257 61 21.9659 59.8664 19.1412 57.5992C17.0471 55.8988 16 53.5506 16 50.5547C16 49.4211 16.1461 48.1862 16.4383 46.8502L16.6575 45.8785H29.8068L29.6607 46.6073C29.5633 47.0121 29.5146 47.3765 29.5146 47.7004Z" fill="#00468B"/>
</svg>
