<svg width="76" height="77" viewBox="0 0 76 77" fill="none" xmlns="http://www.w3.org/2000/svg">
<path d="M38.1743 50.5449L24.4197 57.7738L24.4273 57.7358L16.8678 61.6885L15.4121 70.1716L38.1743 58.2071L49.9982 64.425L48.4969 55.9723L38.1743 50.5449Z" fill="#2F85D4"/>
<path d="M41.941 7.7651L38.1707 0.118164L26.7877 23.1768L13.5918 25.0961L19.7299 31.0594L31.2953 29.3795L41.941 7.7651Z" fill="#9AC2E7"/>
<path d="M27.0439 42.4649L9.74322 25.6621L1.34375 26.8821L19.758 44.8327L17.5194 57.8689L25.0827 53.9163L27.0439 42.4649Z" fill="#66ACDE"/>
<path d="M57.6488 34.3066L55.4786 36.4236L49.2949 42.4515L51.2295 53.7281L53.449 66.2284L60.9288 70.1621L56.5846 44.8193L66.1167 35.5267L57.6488 34.3066Z" fill="#0A4081"/>
<path d="M49.0425 29.9618L68.901 32.8237L75.0011 26.8794L66.6358 25.6632L66.5598 25.6556L49.5518 23.1814L43.6646 11.2549L39.8867 18.9246L45.048 29.3841L49.0425 29.9618Z" fill="#1B609F"/>
<path d="M62.0016 53.2349C60.5763 51.0799 60.1469 48.8527 61.04 48.2636C61.9332 47.6745 63.8107 48.9401 65.2359 51.0951C66.6612 53.2501 67.0907 55.4773 66.1975 56.0664C65.3044 56.6555 63.4268 55.3899 62.0016 53.2349Z" fill="#0A4081"/>
<path d="M57.7673 20.8419C54.3581 21.3512 51.4278 20.6176 51.2149 19.2038C51.0059 17.7899 53.5979 16.2355 57.0033 15.7262C60.4125 15.2169 63.3429 15.9504 63.5557 17.3643C63.7647 18.7781 61.1727 20.3326 57.7673 20.8419Z" fill="#1B609F"/>
<path d="M28.8049 11.6738C28.2462 15.9419 26.3573 19.2181 24.5861 18.9863C22.815 18.7544 21.8345 15.1058 22.397 10.8338C22.9557 6.56568 24.8446 3.28951 26.6157 3.52135C28.3868 3.75319 29.3674 7.40183 28.8049 11.6738Z" fill="#9AC2E7"/>
<path d="M9.43633 40.9646C13.4232 43.568 15.7834 47.0152 14.7041 48.6685C13.6247 50.3218 9.51995 49.5503 5.52925 46.9506C1.54235 44.3472 -0.817868 40.9 0.261521 39.2467C1.34091 37.5934 5.44563 38.3649 9.43633 40.9646Z" fill="#66ACDE"/>
<path d="M30.3197 67.3781C33.326 63.5775 37.0431 61.5023 38.6166 62.7489C40.1939 63.9955 39.0308 68.0889 36.0245 71.8895C33.0182 75.6902 29.3011 77.7654 27.7277 76.5187C26.1542 75.2721 27.3134 71.1788 30.3197 67.3781Z" fill="#2F85D4"/>
</svg>
